<?xml version="1.0" encoding="UTF-8" standalone="no"?>
<!DOCTYPE svg PUBLIC "-//W3C//DTD SVG 1.1//EN" "http://www.w3.org/Graphics/SVG/1.1/DTD/svg11.dtd">
<svg>
<metadata>
Created by FontForge 20090622 at Thu May 21 13:24:04 2015
 By deploy user
Copyright 2011 Google Inc. All Rights Reserved.
</metadata>
<defs>
<font id="RobotoCondensed-Bold" horiz-adv-x="980">
  <font-face font-family="Roboto Condensed" font-weight="700" font-stretch="normal" units-per-em="2048" panose-1="2 0 0 0 0 0 0 0 0 0" ascent="1536" descent="-512" x-height="1082" cap-height="1456" bbox="-1487 -555 2132 2163" underline-thickness="100" underline-position="-100" unicode-range="U+0002-U+FFFD"/>
<missing-glyph horiz-adv-x="803" d="M699 0h-595v1456h595v-1456zM653 86v1284l-229 -642zM149 1361v-1267l226 634zM183 54h432l-216 605zM399 796l216 606h-432z"/>
    <glyph glyph-name="uniFB01" unicode="fi" horiz-adv-x="1118" d="M160 0v869h-131v213h131v49q2 204 111.5 315t312.5 111q117 0 287 -59l-41 -241q-122 46 -227 46q-157 0 -159 -173v-48h167v-213h-167v-869h-284zM1000 0h-284v1082h284v-1082z"/>
    <glyph glyph-name="uniFB02" unicode="fl" horiz-adv-x="1126" d="M724 1313q-70 7 -113 7q-159 0 -159 -165v-73h169v-213h-169v-869h-284v869h-131v213h131v75q0 195 105 297.5t298 102.5q146 0 437 -31v-1526h-284v1313z"/>
    <glyph glyph-name=".notdef" horiz-adv-x="803" d="M699 0h-595v1456h595v-1456zM653 86v1284l-229 -642zM149 1361v-1267l226 634zM183 54h432l-216 605zM399 796l216 606h-432z"/>
    <glyph glyph-name="uni0000" horiz-adv-x="0"/>
    <glyph glyph-name="uni0002" horiz-adv-x="0"/>
    <glyph glyph-name="uni000D" unicode="" horiz-adv-x="472"/>
    <glyph glyph-name="space" unicode=" " horiz-adv-x="472"/>
    <glyph glyph-name="exclam" unicode="!" horiz-adv-x="533" d="M392 448h-235l-33 1008h301zM119 137q0 68 43 111.5t112 43.5q68 0 111 -43.5t43 -111.5q0 -67 -42.5 -110t-111.5 -43q-70 0 -112.5 43t-42.5 110z"/>
    <glyph glyph-name="quotedbl" unicode="&quot;" horiz-adv-x="656" d="M265 1398l-39 -413h-164v551h203v-138zM592 1398l-40 -413h-163v551h203v-138z"/>
    <glyph glyph-name="numbersign" unicode="#" horiz-adv-x="1080" d="M565 410h-134l-59 -410h-175l60 410h-183v173h208l42 283h-187v174h212l61 416h174l-61 -416h135l61 416h174l-61 -416h179v-174h-204l-42 -283h182v-173h-207l-60 -410h-175zM456 583h135l41 283h-134z"/>
    <glyph glyph-name="dollar" unicode="$" horiz-adv-x="1036" d="M657 384q0 83 -34 131t-112 90q-153 68 -226.5 130.5t-109.5 143t-36 191.5q0 166 92 274.5t243 128.5v214h151v-218q150 -29 233.5 -152t83.5 -312h-283q0 120 -34.5 179t-89.5 59q-53 0 -83 -46t-30 -128q0 -71 31 -118t118 -98q160 -76 230.5 -138.5t104.5 -141.5 t34 -187q0 -169 -89.5 -275t-247.5 -127v-199h-150v199q-173 25 -267 147.5t-94 326.5h283q0 -118 38 -181.5t114 -63.5q61 0 95.5 45.5t34.5 125.5z"/>
    <glyph glyph-name="percent" unicode="%" horiz-adv-x="1308" d="M97 1176q0 133 73.5 217t198.5 84t199.5 -82.5t74.5 -222.5v-73q0 -135 -74 -217t-198 -82q-123 0 -198.5 82t-75.5 223v71zM281 1099q0 -60 25.5 -95.5t64.5 -35.5q40 0 63.5 37t23.5 97v74q0 58 -24 95.5t-65 37.5q-40 0 -64 -37.5t-24 -98.5v-74zM671 357 q0 135 75 217.5t198 82.5q124 0 199 -81.5t75 -223.5v-73q0 -134 -73 -216.5t-199 -82.5q-127 0 -201 83t-74 220v74zM856 279q0 -56 26.5 -94t63.5 -38q83 0 87 119v91q0 59 -24.5 95.5t-64.5 36.5q-88 0 -88 -153v-57zM422 109l-134 76l597 1138l135 -76z"/>
    <glyph glyph-name="ampersand" unicode="&amp;" horiz-adv-x="1186" d="M72 392q0 103 46.5 186.5t174.5 188.5q-55 87 -87 164.5t-32 160.5q0 171 95 277.5t254 106.5q143 0 235.5 -98.5t92.5 -241.5q0 -190 -159 -317l-80 -65l187 -261q35 103 35 222h239q0 -281 -110 -452l188 -263h-321l-54 76q-129 -96 -298 -96q-184 0 -295 113t-111 299 zM493 214q79 0 149 52l-230 325l-6 -5q-50 -77 -50 -177q0 -84 39.5 -139.5t97.5 -55.5zM426 1097q0 -71 68 -174l47 36q42 32 60 66.5t18 92.5q0 52 -28.5 87.5t-68.5 35.5q-44 0 -70 -39.5t-26 -104.5z"/>
    <glyph glyph-name="quotesingle" unicode="'" horiz-adv-x="330" d="M275 1388l-29 -405h-184v553h213v-148z"/>
    <glyph glyph-name="parenleft" unicode="(" horiz-adv-x="662" d="M120 592q0 224 52.5 430t157 368.5t223.5 224.5l53 -156q-113 -106 -179 -325.5t-69 -507.5v-60q0 -300 65.5 -527.5t182.5 -339.5l-53 -154q-118 62 -221.5 221t-156.5 362t-55 423v41z"/>
    <glyph glyph-name="parenright" unicode=")" horiz-adv-x="662" d="M556 568q0 -233 -59.5 -441t-165 -365t-223.5 -217l-52 154q114 109 180 333.5t68 508.5v53q0 291 -65.5 520.5t-182.5 346.5l52 154q77 -39 157.5 -130t145.5 -225t105 -301.5t40 -390.5z"/>
    <glyph glyph-name="asterisk" unicode="*" horiz-adv-x="930" d="M342 962l-315 89l60 182l310 -126l-19 349h196l-20 -356l304 123l59 -183l-320 -90l210 -265l-160 -113l-182 291l-181 -282l-159 109z"/>
    <glyph glyph-name="plus" unicode="+" horiz-adv-x="973" d="M620 816h283v-263h-283v-407h-268v407h-288v263h288v390h268v-390z"/>
    <glyph glyph-name="comma" unicode="," horiz-adv-x="503" d="M187 -367l-151 79l38 71q64 118 66 238v225h246l-1 -201q-1 -106 -54 -220t-144 -192z"/>
    <glyph glyph-name="hyphen" unicode="-" horiz-adv-x="744" d="M612 506h-489v236h489v-236z"/>
    <glyph glyph-name="period" unicode="." horiz-adv-x="596" d="M126 144q0 68 45.5 112t118.5 44q71 0 118 -43.5t47 -112.5q0 -70 -47.5 -112.5t-117.5 -42.5q-71 0 -117.5 43t-46.5 112z"/>
    <glyph glyph-name="slash" unicode="/" horiz-adv-x="678" d="M206 -125h-207l437 1581h207z"/>
    <glyph glyph-name="zero" unicode="0" horiz-adv-x="1036" d="M941 602q0 -302 -109.5 -462t-312.5 -160q-201 0 -310.5 155.5t-113.5 445.5v275q0 301 109 460.5t313 159.5t313 -158t111 -451v-265zM657 897q0 172 -34 258t-106 86q-135 0 -140 -315v-363q0 -176 34.5 -262t107.5 -86q69 0 102.5 80.5t35.5 246.5v355z"/>
    <glyph glyph-name="one" unicode="1" horiz-adv-x="1036" d="M718 0h-284v1112l-277 -107v236l531 217h30v-1458z"/>
    <glyph glyph-name="two" unicode="2" horiz-adv-x="1036" d="M953 0h-858v200l394 501q75 104 110.5 182.5t35.5 150.5q0 97 -33.5 152t-96.5 55q-69 0 -109.5 -64t-40.5 -180h-284q0 134 55.5 245t156 172.5t227.5 61.5q195 0 302.5 -107.5t107.5 -305.5q0 -123 -59.5 -249.5t-215.5 -311.5l-187 -267h495v-235z"/>
    <glyph glyph-name="three" unicode="3" horiz-adv-x="1036" d="M347 857h137q78 0 114.5 54.5t36.5 145.5q0 87 -37.5 135.5t-100.5 48.5q-59 0 -96.5 -46t-37.5 -116h-283q0 114 52.5 204.5t147 141.5t209.5 51q201 0 315 -111t114 -304q0 -99 -51.5 -183.5t-135.5 -129.5q103 -44 153.5 -132t50.5 -208q0 -194 -123.5 -311 t-324.5 -117q-187 0 -303.5 115.5t-116.5 303.5h283q0 -78 41 -131t104 -53q73 0 115.5 54t42.5 144q0 215 -167 216h-139v228z"/>
    <glyph glyph-name="four" unicode="4" horiz-adv-x="1036" d="M841 550h124v-235h-124v-315h-283v315h-482l-13 183l494 958h284v-906zM338 550h220v487l-6 -11z"/>
    <glyph glyph-name="five" unicode="5" horiz-adv-x="1036" d="M124 716l72 740h705v-242h-473l-26 -312q82 55 169 55q180 0 277.5 -128t97.5 -362q0 -219 -116 -353t-310 -134q-115 0 -213 54.5t-154.5 151.5t-57.5 220h280q7 -91 45 -141t98 -50q70 0 108 67.5t38 201.5q0 126 -45.5 190t-127.5 64q-80 0 -124 -55l-18 -25z"/>
    <glyph glyph-name="six" unicode="6" horiz-adv-x="1036" d="M770 1471v-240h-16q-159 -1 -252.5 -95.5t-113.5 -264.5q91 104 228 104q158 0 252.5 -135t94.5 -360q0 -143 -54 -258t-151.5 -178.5t-220.5 -63.5q-198 0 -317.5 159t-119.5 428v105q0 241 75.5 422t218 278.5t332.5 98.5h44zM527 741q-54 0 -90.5 -34t-54.5 -84v-102 q0 -154 41 -230t108 -76q68 0 109 73.5t41 188.5q0 117 -42.5 190.5t-111.5 73.5z"/>
    <glyph glyph-name="seven" unicode="7" horiz-adv-x="1036" d="M949 1293l-460 -1293h-299l462 1221h-584v235h881v-163z"/>
    <glyph glyph-name="eight" unicode="8" horiz-adv-x="1036" d="M911 1069q0 -106 -45 -188t-124 -131q90 -51 142 -140.5t52 -210.5q0 -194 -112 -306.5t-305 -112.5t-307 112.5t-114 306.5q0 121 52 211t143 140q-80 49 -125 131t-45 188q0 191 107 299t287 108q182 0 288 -109t106 -298zM519 215q64 0 98.5 54.5t34.5 151.5t-36 152 t-99 55t-99.5 -55t-36.5 -152t36.5 -151.5t101.5 -54.5zM629 1054q0 85 -27.5 136t-84.5 51q-54 0 -82 -49.5t-28 -137.5q0 -86 28 -138.5t84 -52.5t83 52.5t27 138.5z"/>
    <glyph glyph-name="nine" unicode="9" horiz-adv-x="1036" d="M644 563q-90 -92 -197 -92q-166 0 -261.5 133.5t-95.5 356.5q0 144 54 263.5t150.5 185.5t215.5 66q123 0 219 -73t149 -209.5t53 -310.5v-103q0 -372 -163.5 -581.5t-463.5 -213.5h-29v244h19q166 1 249.5 86t100.5 248zM519 693q82 0 129 112v130q0 143 -39 224.5 t-101 81.5q-61 0 -98.5 -80.5t-37.5 -196.5q0 -126 39 -198.5t108 -72.5z"/>
    <glyph glyph-name="colon" unicode=":" horiz-adv-x="562" d="M128 144q0 68 45.5 112t118.5 44q71 0 118 -43.5t47 -112.5q0 -70 -47.5 -112.5t-117.5 -42.5q-71 0 -117.5 43t-46.5 112zM128 962q0 68 45.5 112t118.5 44q71 0 118 -43.5t47 -112.5q0 -70 -47.5 -112.5t-117.5 -42.5q-71 0 -117.5 43t-46.5 112z"/>
    <glyph glyph-name="semicolon" unicode=";" horiz-adv-x="522" d="M112 962q0 68 45.5 112t118.5 44q71 0 118 -43.5t47 -112.5q0 -70 -47.5 -112.5t-117.5 -42.5q-71 0 -117.5 43t-46.5 112zM211 -367l-151 79l38 71q64 118 66 238v225h246l-1 -201q-1 -106 -54 -220t-144 -192z"/>
    <glyph glyph-name="less" unicode="&lt;" horiz-adv-x="915" d="M336 617l453 -199v-282l-728 364v238l728 365v-282z"/>
    <glyph glyph-name="equal" unicode="=" horiz-adv-x="1030" d="M895 744h-763v238h763v-238zM895 311h-763v237h763v-237z"/>
    <glyph glyph-name="greater" unicode="&gt;" horiz-adv-x="930" d="M583 621l-462 201v280l738 -364v-238l-738 -365v280z"/>
    <glyph glyph-name="question" unicode="?" horiz-adv-x="918" d="M304 448q0 140 27.5 222.5t98.5 157.5q75 83 100 136t25 107q0 167 -108 167q-48 0 -80 -46t-34 -124h-283q2 194 108.5 301t288.5 107q186 0 289 -103.5t103 -289.5q0 -154 -127 -302l-83 -94q-41 -49 -58 -101.5t-19 -137.5h-248zM278 142q0 68 43.5 111t110.5 43 q69 0 112 -43.5t43 -110.5q0 -66 -42 -110t-113 -44q-70 0 -112 44t-42 110z"/>
    <glyph glyph-name="at" unicode="@" horiz-adv-x="1569" d="M1486 537q-5 -168 -54.5 -298.5t-132.5 -195t-192 -64.5q-143 0 -204 134q-83 -131 -209 -131t-194 124.5t-52 324.5q15 163 70.5 291t140.5 198t185 70q127 0 215 -68l53 -41l-44 -578q-7 -81 10.5 -121.5t64.5 -40.5q72 0 120 111t52 278q13 347 -115 534.5t-378 187.5 q-239 0 -387 -213t-161 -576q-14 -358 115.5 -549t381.5 -191q71 0 147 18.5t132 49.5l34 -155q-52 -40 -140 -64.5t-176 -24.5q-225 0 -382 106.5t-234 313t-68 496.5q9 276 105.5 495t261.5 338t375 119q209 0 362 -106.5t230 -307.5t68 -464zM663 431q-8 -133 18 -201 t83 -68q32 0 62 41t49 112l36 491q-26 7 -48 7q-88 0 -136.5 -91t-63.5 -291z"/>
    <glyph glyph-name="A" unicode="A" horiz-adv-x="1223" d="M812 298h-401l-78 -298h-311l455 1456h269l458 -1456h-314zM475 543h272l-136 519z"/>
    <glyph glyph-name="B" unicode="B" horiz-adv-x="1149" d="M117 0v1456h450q228 0 346.5 -101.5t118.5 -297.5q0 -111 -49 -191t-134 -117q98 -28 151 -112.5t53 -208.5q0 -212 -116.5 -320t-337.5 -108h-482zM411 633v-389h188q79 0 120 49t41 139q0 196 -142 201h-207zM411 847h153q173 0 173 179q0 99 -40 142t-130 43h-156 v-364z"/>
    <glyph glyph-name="C" unicode="C" horiz-adv-x="1168" d="M1104 485q-11 -249 -140 -377t-364 -128q-247 0 -378.5 162.5t-131.5 463.5v245q0 300 136 462.5t378 162.5q238 0 361.5 -133t140.5 -382h-295q-4 154 -47.5 212.5t-159.5 58.5q-118 0 -167 -82.5t-52 -271.5v-275q0 -217 48.5 -298t166.5 -81q116 0 160 56.5t50 204.5 h294z"/>
    <glyph glyph-name="D" unicode="D" horiz-adv-x="1157" d="M117 0v1456h385q255 0 406.5 -162t154.5 -444v-236q0 -287 -151.5 -450.5t-417.5 -163.5h-377zM411 1211v-967h88q147 0 207 77.5t63 267.5v253q0 204 -57 284.5t-194 84.5h-107z"/>
    <glyph glyph-name="E" unicode="E" horiz-adv-x="1005" d="M869 630h-458v-386h542v-244h-836v1456h834v-245h-540v-344h458v-237z"/>
    <glyph glyph-name="F" unicode="F" horiz-adv-x="974" d="M868 594h-457v-594h-294v1456h806v-245h-512v-373h457v-244z"/>
    <glyph glyph-name="G" unicode="G" horiz-adv-x="1198" d="M1107 165q-85 -92 -208.5 -138.5t-270.5 -46.5q-251 0 -390 155.5t-143 452.5v262q0 301 131.5 463.5t383.5 162.5q237 0 357.5 -117t139.5 -367h-286q-12 139 -58 189.5t-144 50.5q-119 0 -173 -87t-56 -277v-264q0 -199 59.5 -289.5t195.5 -90.5q87 0 141 35l26 18v267 h-206v222h501v-601z"/>
    <glyph glyph-name="H" unicode="H" horiz-adv-x="1257" d="M1138 0h-293v623h-434v-623h-294v1456h294v-589h434v589h293v-1456z"/>
    <glyph glyph-name="I" unicode="I" horiz-adv-x="554" d="M424 0h-294v1456h294v-1456z"/>
    <glyph glyph-name="J" unicode="J" horiz-adv-x="1004" d="M596 1456h294v-1008q0 -212 -118 -340t-304 -128q-200 0 -311 119t-111 331h295q0 -206 127 -206q128 0 128 238v994z"/>
    <glyph glyph-name="K" unicode="K" horiz-adv-x="1133" d="M527 562l-116 -146v-416h-294v1456h294v-635l93 157l271 478h360l-417 -640l424 -816h-349z"/>
    <glyph glyph-name="L" unicode="L" d="M411 244h516v-244h-810v1456h294v-1212z"/>
    <glyph glyph-name="M" unicode="M" horiz-adv-x="1553" d="M501 1456l275 -1053l274 1053h384v-1456h-295v394l27 607l-291 -1001h-200l-291 1001l27 -607v-394h-294v1456h384z"/>
    <glyph glyph-name="N" unicode="N" horiz-adv-x="1254" d="M1135 0h-294l-430 955v-955h-294v1456h294l431 -956v956h293v-1456z"/>
    <glyph glyph-name="O" unicode="O" horiz-adv-x="1236" d="M1142 597q0 -293 -138.5 -455t-384.5 -162q-245 0 -385 160.5t-142 449.5v249q0 300 139 468.5t386 168.5q243 0 383 -165.5t142 -464.5v-249zM847 841q0 197 -56 293t-174 96q-117 0 -173 -92.5t-58 -281.5v-259q0 -191 57 -281.5t176 -90.5q115 0 171 88.5t57 274.5 v253z"/>
    <glyph glyph-name="P" unicode="P" horiz-adv-x="1165" d="M411 512v-512h-294v1456h496q216 0 344.5 -134t128.5 -348t-127 -338t-352 -124h-196zM411 757h202q84 0 130 55t46 160q0 109 -47 173.5t-126 65.5h-205v-454z"/>
    <glyph glyph-name="Q" unicode="Q" horiz-adv-x="1236" d="M1141 615q0 -361 -195 -525l201 -180l-185 -170l-268 245l-77 -5q-247 0 -386.5 167.5t-140.5 463.5v228q0 300 139 468.5t386 168.5q241 0 381 -162t145 -455v-244zM846 841q0 199 -57 294t-174 95t-173 -92.5t-58 -281.5v-241q0 -200 57.5 -295t175.5 -95 q115 0 171.5 94.5t57.5 288.5v233z"/>
    <glyph glyph-name="R" unicode="R" horiz-adv-x="1134" d="M558 532h-146v-532h-294v1456h469q221 0 341.5 -114.5t120.5 -325.5q0 -290 -211 -406l255 -596v-14h-316zM412 777h167q88 0 132 58.5t44 156.5q0 219 -171 219h-172v-434z"/>
    <glyph glyph-name="S" unicode="S" horiz-adv-x="1106" d="M732 382q0 89 -45.5 134.5t-165.5 94.5q-219 83 -315 194.5t-96 263.5q0 184 130.5 295.5t331.5 111.5q134 0 239 -56.5t161.5 -159.5t56.5 -234h-293q0 102 -43.5 155.5t-125.5 53.5q-77 0 -120 -45.5t-43 -122.5q0 -60 48 -108.5t170 -100.5q213 -77 309.5 -189 t96.5 -285q0 -190 -121 -297t-329 -107q-141 0 -257 58t-181.5 166t-65.5 255h295q0 -126 49 -183t160 -57q154 0 154 163z"/>
    <glyph glyph-name="T" unicode="T" horiz-adv-x="1112" d="M1060 1211h-360v-1211h-295v1211h-354v245h1009v-245z"/>
    <glyph glyph-name="U" unicode="U" horiz-adv-x="1170" d="M1064 1456v-1008q-2 -227 -125 -347.5t-353 -120.5q-234 0 -357.5 122t-123.5 353v1001h296v-1002q0 -124 40 -177t145 -53t144 52.5t40 172.5v1007h294z"/>
    <glyph glyph-name="V" unicode="V" horiz-adv-x="1184" d="M591 400l245 1056h328l-420 -1456h-306l-417 1456h326z"/>
    <glyph glyph-name="W" unicode="W" horiz-adv-x="1534" d="M1063 541l138 915h291l-259 -1456h-295l-170 858l-168 -858h-296l-260 1456h293l137 -914l171 914h247z"/>
    <glyph glyph-name="X" unicode="X" horiz-adv-x="1146" d="M573 956l196 500h337l-342 -722l350 -734h-341l-200 509l-199 -509h-341l350 734l-343 722h337z"/>
    <glyph glyph-name="Y" unicode="Y" horiz-adv-x="1111" d="M556 802l219 654h320l-390 -928v-528h-298v528l-391 928h320z"/>
    <glyph glyph-name="Z" unicode="Z" horiz-adv-x="1086" d="M422 244h600v-244h-944v177l594 1034h-600v245h939v-173z"/>
    <glyph glyph-name="bracketleft" unicode="[" horiz-adv-x="540" d="M499 1471h-105v-1587h105v-223h-389v2034h389v-224z"/>
    <glyph glyph-name="backslash" unicode="\" horiz-adv-x="781" d="M10 1456h289l510 -1581h-289z"/>
    <glyph glyph-name="bracketright" unicode="]" horiz-adv-x="540" d="M34 1695h389v-2034h-389v223h106v1587h-106v224z"/>
    <glyph glyph-name="asciicircum" unicode="^" horiz-adv-x="800" d="M402 1184l-131 -455h-222l252 727h203l251 -727h-221z"/>
    <glyph glyph-name="underscore" unicode="_" horiz-adv-x="819" d="M796 -228h-775v228h775v-228z"/>
    <glyph glyph-name="grave" unicode="`" horiz-adv-x="678" d="M567 1226h-239l-276 310h317z"/>
    <glyph glyph-name="a" unicode="a" horiz-adv-x="964" d="M617 0q-12 25 -24 84q-76 -104 -206 -104q-136 0 -225.5 90t-89.5 233q0 170 108.5 263t312.5 95h86v87q0 73 -25 103t-73 30q-106 0 -106 -124h-283q0 150 112.5 247.5t284.5 97.5q178 0 275.5 -92.5t97.5 -264.5v-509q2 -140 40 -219v-17h-285zM450 202q47 0 80 19 t49 45v225h-68q-72 0 -113.5 -46t-41.5 -123q0 -120 94 -120z"/>
    <glyph glyph-name="b" unicode="b" horiz-adv-x="1014" d="M947 506q0 -263 -84 -394.5t-264 -131.5q-141 0 -226 127l-9 -107h-261v1536h283v-542q80 108 211 108q180 0 264 -130.5t86 -382.5v-83zM664 577q0 171 -33 229.5t-115 58.5q-89 0 -130 -81v-493q38 -76 132 -76q81 0 112.5 53t33.5 206v103z"/>
    <glyph glyph-name="c" unicode="c" horiz-adv-x="942" d="M494 215q123 0 125 160h266q-2 -177 -109 -286t-276 -109q-209 0 -319 130t-112 383v86q0 255 108.5 389t320.5 134q179 0 282 -110.5t105 -313.5h-266q-1 91 -30 140t-96 49q-74 0 -106 -52.5t-34 -203.5v-110q0 -132 13 -184.5t43 -77t85 -24.5z"/>
    <glyph glyph-name="d" unicode="d" horiz-adv-x="1015" d="M65 574q0 266 90 397t262 131q125 0 208 -108v542h285v-1536h-257l-13 110q-87 -130 -224 -130q-170 0 -259.5 130t-91.5 382v82zM349 503q0 -160 34 -223.5t115 -63.5q84 0 127 75v494q-42 80 -126 80q-78 0 -114 -63t-36 -224v-75z"/>
    <glyph glyph-name="e" unicode="e" d="M540 -20q-218 0 -340 130t-122 372v86q0 256 112 395t321 139q204 0 307 -130.5t105 -386.5v-139h-563q6 -120 53 -175.5t145 -55.5q142 0 237 97l111 -171q-52 -72 -151 -116.5t-215 -44.5zM362 644h283v26q-2 97 -32 147t-104 50t-107.5 -53t-39.5 -170z"/>
    <glyph glyph-name="f" unicode="f" horiz-adv-x="671" d="M168 0v869h-131v213h131v97q1 179 94.5 278.5t258.5 99.5q50 0 128 -20l-2 -226q-29 9 -69 9q-126 0 -126 -150v-88h169v-213h-169v-869h-284z"/>
    <glyph glyph-name="g" unicode="g" horiz-adv-x="1030" d="M69 574q0 266 96 397t269 131q147 0 227 -116l11 96h255v-1082q0 -207 -116 -316.5t-333 -109.5q-89 0 -187 35.5t-146 90.5l95 196q40 -42 104 -68.5t121 -26.5q95 0 136.5 45.5t42.5 146.5v93q-81 -106 -211 -106q-173 0 -267.5 134.5t-96.5 379.5v80zM352 503 q0 -150 39 -218.5t124 -68.5q87 0 129 63v517q-44 69 -127 69q-84 0 -124.5 -69t-40.5 -222v-71z"/>
    <glyph glyph-name="h" unicode="h" horiz-adv-x="1008" d="M379 987q92 115 226 115q148 0 225 -104t78 -310v-688h-284v685q0 95 -29.5 137.5t-95.5 42.5q-77 0 -120 -71v-794h-283v1536h283v-549z"/>
    <glyph glyph-name="i" unicode="i" horiz-adv-x="516" d="M400 0h-284v1082h284v-1082zM103 1362q0 66 42 108t112 42t112 -42t42 -108q0 -65 -41.5 -108t-112.5 -43t-112.5 43t-41.5 108z"/>
    <glyph glyph-name="j" unicode="j" horiz-adv-x="503" d="M401 1082v-1140q0 -185 -85 -282t-241 -97q-66 0 -128 17l-1 231q47 -9 75 -9q94 0 96 132v1148h284zM98 1362q0 66 42 108t112 42t112 -42t42 -108q0 -65 -41.5 -108t-112.5 -43t-112.5 43t-41.5 108z"/>
    <glyph glyph-name="k" unicode="k" d="M462 417l-76 -85v-332h-283v1536h283v-830l35 52l196 324h337l-314 -446l344 -636h-324z"/>
    <glyph glyph-name="l" unicode="l" horiz-adv-x="516" d="M400 0h-284v1536h284v-1536z"/>
    <glyph glyph-name="m" unicode="m" horiz-adv-x="1519" d="M369 1082l8 -100q95 120 251 120q162 0 229 -146q93 146 265 146q284 0 291 -393v-709h-283v691q0 94 -26 134t-88 40q-79 0 -118 -97l2 -34v-734h-283v689q0 93 -25 134.5t-89 41.5q-73 0 -116 -79v-786h-283v1082h265z"/>
    <glyph glyph-name="n" unicode="n" horiz-adv-x="1008" d="M362 1082l8 -107q96 127 251 127q279 0 287 -391v-711h-284v690q0 92 -27.5 133.5t-96.5 41.5q-77 0 -120 -79v-786h-284v1082h266z"/>
    <glyph glyph-name="o" unicode="o" horiz-adv-x="1019" d="M70 576q0 246 116 386t321 140q207 0 323 -140t116 -388v-69q0 -247 -115 -386t-322 -139q-208 0 -323.5 139.5t-115.5 387.5v69zM354 505q0 -290 155 -290q143 0 154 242l1 119q0 148 -41 219.5t-116 71.5q-72 0 -112.5 -71.5t-40.5 -219.5v-71z"/>
    <glyph glyph-name="p" unicode="p" horiz-adv-x="1014" d="M946 507q0 -255 -87.5 -391t-260.5 -136q-132 0 -212 107v-503h-283v1498h262l10 -99q81 119 221 119q173 0 260.5 -126t89.5 -386v-83zM664 578q0 157 -34.5 222t-116.5 65q-87 0 -127 -73v-507q38 -70 129 -70q84 0 116.5 71t32.5 221v71z"/>
    <glyph glyph-name="q" unicode="q" horiz-adv-x="1018" d="M65 576q0 266 89 396t264 130q142 0 226 -128l18 108h247v-1498h-284v500q-79 -104 -208 -104q-171 0 -260.5 132.5t-91.5 381.5v82zM349 505q0 -157 34 -223.5t116 -66.5q86 0 126 67v515q-40 70 -125 70q-81 0 -115.5 -65t-35.5 -217v-80z"/>
    <glyph glyph-name="r" unicode="r" horiz-adv-x="679" d="M637 809l-94 8q-116 0 -157 -102v-715h-284v1082h267l8 -117q67 137 185 137q48 0 78 -13z"/>
    <glyph glyph-name="s" unicode="s" horiz-adv-x="930" d="M582 290q0 36 -34.5 66.5t-153.5 82.5q-175 71 -240.5 147t-65.5 189q0 142 102.5 234.5t271.5 92.5q178 0 285 -92t107 -247h-283q0 132 -110 132q-45 0 -74 -28t-29 -78q0 -36 32 -63.5t151 -78.5q173 -64 244.5 -142.5t71.5 -203.5q0 -145 -109 -233t-286 -88 q-119 0 -210 46.5t-142.5 129.5t-51.5 179h269q2 -74 34.5 -111t106.5 -37q114 0 114 103z"/>
    <glyph glyph-name="t" unicode="t" horiz-adv-x="629" d="M432 1348v-266h145v-213h-145v-537q0 -64 17.5 -88t67.5 -24q41 0 67 7l-2 -220q-72 -27 -156 -27q-274 0 -277 314v575h-125v213h125v266h283z"/>
    <glyph glyph-name="u" unicode="u" horiz-adv-x="1008" d="M635 99q-88 -119 -236 -119q-149 0 -226 102.5t-77 298.5v701h283v-708q2 -158 105 -158q97 0 140 84v782h285v-1082h-266z"/>
    <glyph glyph-name="v" unicode="v" horiz-adv-x="920" d="M458 400l137 682h295l-297 -1082h-270l-298 1082h296z"/>
    <glyph glyph-name="w" unicode="w" horiz-adv-x="1296" d="M891 475l97 607h271l-224 -1082h-235l-153 626l-153 -626h-236l-224 1082h272l96 -608l144 608h201z"/>
    <glyph glyph-name="x" unicode="x" horiz-adv-x="927" d="M465 761l126 321h300l-247 -529l256 -553h-301l-133 339l-132 -339h-302l256 553l-245 529h301z"/>
    <glyph glyph-name="y" unicode="y" horiz-adv-x="914" d="M450 471l144 611h302l-356 -1244q-80 -275 -301 -275q-51 0 -116 19v221l33 -1q66 0 99.5 25.5t50.5 88.5l22 73l-312 1093h304z"/>
    <glyph glyph-name="z" unicode="z" horiz-adv-x="927" d="M416 235h428v-235h-764v177l418 669h-408v236h748v-171z"/>
    <glyph glyph-name="braceleft" unicode="{" horiz-adv-x="610" d="M502 -360q-302 98 -309 449v216q0 209 -137 209v208q137 0 137 212v218q8 347 309 445l54 -162q-100 -48 -109 -249l-1 -250q0 -225 -159 -317q159 -93 159 -321t2 -261q11 -188 107 -234z"/>
    <glyph glyph-name="bar" unicode="|" horiz-adv-x="519" d="M349 -270h-176v1726h176v-1726z"/>
    <glyph glyph-name="braceright" unicode="}" horiz-adv-x="610" d="M54 -197q56 26 83 96.5t27 205.5v196q0 229 163 317q-163 89 -163 318t-1 250q-9 202 -110 249l54 162q154 -50 230.5 -162t78.5 -294v-208q0 -211 138 -211v-208q-138 0 -138 -211v-217q-8 -348 -309 -446z"/>
    <glyph glyph-name="asciitilde" unicode="~" horiz-adv-x="1141" d="M1041 794q0 -185 -81 -302t-209 -117q-60 0 -112 27.5t-120 104.5q-61 83 -116 83q-42 0 -68.5 -51.5t-26.5 -126.5l-209 3q0 185 80 299t209 114q66 0 121.5 -32.5t111.5 -98.5q58 -84 115 -84q41 0 70 52t29 129h206z"/>
    <glyph glyph-name="exclamdown" unicode="¡" horiz-adv-x="555" d="M161 638h235l33 -1007h-301zM434 947q0 -67 -43 -110.5t-112 -43.5q-67 0 -110.5 43t-43.5 111q0 66 42 110t112 44q71 0 113 -44t42 -110z"/>
    <glyph glyph-name="cent" unicode="¢" horiz-adv-x="1042" d="M522 215q60 0 92 43t33 117h266q-2 -143 -81.5 -248t-209.5 -136v-236h-191v235q-159 34 -246 176.5t-87 365.5v22q0 218 87 361t246 177v226h191v-227q135 -30 212 -138.5t79 -274.5h-266q0 87 -33 138t-93 51q-112 0 -133 -171q-7 -56 -7 -170q0 -177 34.5 -244 t106.5 -67z"/>
    <glyph glyph-name="sterling" unicode="£" horiz-adv-x="1074" d="M529 575l5 -137q-2 -123 -56 -194h534v-244h-906v244h74q49 15 54 125l1 52l-4 154h-127v237h121l-6 227q0 202 108 319t287 117q184 0 289.5 -112t105.5 -306h-279q0 84 -30.5 129t-85.5 45q-42 0 -71.5 -48t-29.5 -144l8 -227h250v-237h-242z"/>
    <glyph glyph-name="currency" unicode="¤" horiz-adv-x="1417" d="M1072 107q-159 -127 -361 -127q-203 0 -361 126l-129 -132l-141 144l135 137q-100 156 -100 353q0 204 109 365l-144 147l141 144l142 -145q155 115 348 115q194 0 349 -117l144 148l142 -145l-148 -151q107 -159 107 -361q0 -193 -98 -349l139 -141l-142 -145zM301 608 q0 -118 54 -219.5t149.5 -160t206.5 -58.5q110 0 205.5 58.5t149.5 160t54 219.5q0 119 -54 219.5t-149 158.5t-206 58q-112 0 -207 -58t-149 -158.5t-54 -219.5z"/>
    <glyph glyph-name="yen" unicode="¥" horiz-adv-x="1101" d="M551 906l197 550h322l-309 -714h177v-176h-244v-114h244v-175h-244v-277h-294v277h-264v175h264v114h-264v176h204l-309 714h322z"/>
    <glyph glyph-name="brokenbar" unicode="¦" horiz-adv-x="517" d="M127 -270v795h262v-795h-262zM389 698h-262v758h262v-758z"/>
    <glyph glyph-name="section" unicode="§" horiz-adv-x="1131" d="M1026 482q0 -177 -138 -269q58 -51 88 -120t30 -170q0 -177 -119.5 -275.5t-325.5 -98.5q-224 0 -345.5 108t-121.5 309h283q0 -181 184 -181q81 0 122 37t41 100q0 61 -44.5 100t-184.5 90q-225 71 -312.5 168t-87.5 253q0 178 137 271q-58 51 -88.5 120t-30.5 170 q0 174 121.5 278t326.5 104q214 0 330.5 -113.5t116.5 -313.5h-283q0 88 -44 140t-120 52q-79 0 -121.5 -39t-42.5 -106q0 -70 42.5 -107.5t181.5 -84.5q157 -47 240.5 -102.5t124 -133t40.5 -186.5zM525 660l-103 36q-45 -45 -45 -132q0 -78 43.5 -118.5t172.5 -89.5 l102 -35q52 48 52 132q0 66 -43 109t-179 98z"/>
    <glyph glyph-name="dieresis" unicode="¨" horiz-adv-x="959" d="M93 1365q0 55 40.5 91.5t98.5 36.5t98.5 -36.5t40.5 -91.5q0 -54 -40.5 -90.5t-98.5 -36.5t-98.5 36.5t-40.5 90.5zM582 1365q0 54 40.5 90.5t98.5 36.5t98.5 -36.5t40.5 -90.5q0 -52 -38.5 -89.5t-100.5 -37.5t-100.5 37.5t-38.5 89.5z"/>
    <glyph glyph-name="copyright" unicode="©" horiz-adv-x="1606" d="M1117 596q0 -152 -87.5 -233t-247.5 -81t-254.5 106.5t-94.5 286.5v113q0 174 95.5 280.5t253.5 106.5q163 0 249.5 -82.5t86.5 -231.5h-156q0 96 -46 137.5t-134 41.5q-92 0 -142.5 -67.5t-51.5 -180.5v-123q0 -117 51 -184.5t143 -67.5q89 0 134 40.5t45 138.5h156z M1383 729q0 166 -75 308.5t-212 228t-300 85.5q-159 0 -295.5 -82t-214.5 -226t-78 -314t77.5 -314t214 -227.5t296.5 -83.5t297.5 85t213.5 229t76 311zM86 729q0 202 93.5 375t259 272.5t357.5 99.5t357.5 -99.5t259 -272.5t93.5 -375q0 -204 -95 -377.5t-259.5 -272.5 t-355.5 -99q-193 0 -357.5 100t-258.5 273t-94 376z"/>
    <glyph glyph-name="ordfeminine" unicode="ª" horiz-adv-x="805" d="M515 705l-14 63q-60 -77 -162 -77q-99 0 -154 61.5t-55 166.5q0 227 281 231h84v51q0 127 -84 127q-100 0 -100 -99l-165 14q0 102 73.5 167.5t191.5 65.5q116 0 183 -72t67 -204v-318q0 -98 22 -177h-168zM382 835q59 0 113 56v142h-63q-136 0 -136 -110q0 -88 86 -88z "/>
    <glyph glyph-name="guillemotleft" unicode="«" horiz-adv-x="920" d="M289 523l192 -399h-175l-233 390v19l233 390h175zM630 523l192 -399h-175l-233 390v19l233 390h175z"/>
    <glyph glyph-name="logicalnot" unicode="¬" horiz-adv-x="993" d="M835 374h-192v260h-517v171h709v-431z"/>
    <glyph glyph-name="registered" unicode="®" horiz-adv-x="1606" d="M86 729q0 202 93.5 375t259 272.5t357.5 99.5t357.5 -99.5t259 -272.5t93.5 -375q0 -204 -95 -377.5t-259.5 -272.5t-355.5 -99q-193 0 -357.5 100t-258.5 273t-94 376zM1383 729q0 166 -75 308.5t-212 228t-300 85.5q-159 0 -295.5 -82t-214.5 -226t-78 -314t77.5 -314 t214 -227.5t296.5 -83.5t297.5 85t213.5 229t76 311zM652 653v-337h-151v850h281q151 0 238 -68.5t87 -194.5q0 -112 -112 -174q60 -31 84.5 -86t24.5 -137.5t3.5 -116.5t13.5 -57v-16h-155q-13 34 -13 194q0 76 -33 109.5t-110 33.5h-158zM652 787h135q73 0 121.5 31.5 t48.5 84.5q0 70 -35.5 99.5t-128.5 30.5h-141v-246z"/>
    <glyph glyph-name="macron" unicode="¯" horiz-adv-x="938" d="M784 1290h-631v167h631v-167z"/>
    <glyph glyph-name="degree" unicode="°" horiz-adv-x="796" d="M126 1200q0 115 81.5 195.5t191.5 80.5q109 0 188.5 -80.5t79.5 -195.5q0 -116 -79.5 -194.5t-188.5 -78.5t-191 78.5t-82 194.5zM399 1076q53 0 87 36t34 88t-34 90t-87 38t-89.5 -37.5t-36.5 -90.5t37.5 -88.5t88.5 -35.5z"/>
    <glyph glyph-name="plusminus" unicode="±" horiz-adv-x="968" d="M607 945h260v-243h-260v-364h-247v364h-263v243h263v341h247v-341zM844 1h-731v238h731v-238z"/>
    <glyph glyph-name="uni00B2" unicode="²" horiz-adv-x="687" d="M609 667h-533v138l240 257q43 49 62 91t19 65q0 84 -64 84q-34 0 -53.5 -30.5t-19.5 -79.5h-199q0 118 74 196.5t189 78.5q131 0 200.5 -64.5t69.5 -183.5q0 -77 -35.5 -137.5t-153.5 -164.5l-69 -85h273v-165z"/>
    <glyph glyph-name="uni00B3" unicode="³" horiz-adv-x="687" d="M250 1137h75q78 0 78 87q0 36 -19.5 56.5t-53.5 20.5q-27 0 -47 -15.5t-20 -44.5h-197q0 101 72.5 163t185.5 62q129 0 202.5 -60t73.5 -166q0 -119 -116 -169q128 -41 128 -184q0 -106 -80 -169t-209 -63q-121 0 -194.5 66.5t-73.5 180.5h199q0 -32 21.5 -57t60.5 -25 q43 0 60.5 26.5t17.5 61.5q0 90 -82 92h-82v137z"/>
    <glyph glyph-name="acute" unicode="´" horiz-adv-x="680" d="M297 1536h318l-278 -310h-236z"/>
    <glyph glyph-name="uni00B5" unicode="µ" horiz-adv-x="1125" d="M414 1082v-623q0 -127 28.5 -184.5t102.5 -57.5q100 0 144 86v779h284v-1082h-264l-4 51q-70 -72 -168 -72q-71 0 -123 34v-429h-282v1498h282z"/>
    <glyph glyph-name="paragraph" unicode="¶" horiz-adv-x="892" d="M556 0v520h-65q-125 0 -218.5 58t-143 165t-49.5 245q0 213 112 340.5t303 127.5h272v-1456h-211z"/>
    <glyph glyph-name="periodcentered" unicode="·" horiz-adv-x="583" d="M131 696q0 68 43.5 112t112.5 44q70 0 113 -44t43 -112q0 -69 -43.5 -112t-112.5 -43q-68 0 -112 43t-44 112z"/>
    <glyph glyph-name="cedilla" unicode="¸" horiz-adv-x="511" d="M334 7l-9 -58q58 -13 89.5 -57.5t31.5 -115.5q0 -110 -79 -174t-226 -64l-6 167q73 0 73 82q0 40 -25.5 56t-86.5 21l27 143h211z"/>
    <glyph glyph-name="uni00B9" unicode="¹" horiz-adv-x="687" d="M480 669h-197v547l-148 -41v159l327 121h18v-786z"/>
    <glyph glyph-name="ordmasculine" unicode="º" horiz-adv-x="831" d="M114 1121q0 159 83 257t215 98t215 -96.5t83 -263.5v-72q0 -159 -81 -256.5t-216 -97.5q-134 0 -216.5 97.5t-82.5 261.5v72zM281 1044q0 -98 35.5 -153t96.5 -55q59 0 94.5 54.5t35.5 156.5v74q0 97 -35.5 152t-95.5 55q-59 0 -94.5 -53.5t-36.5 -150.5v-80z"/>
    <glyph glyph-name="guillemotright" unicode="»" horiz-adv-x="921" d="M261 923l233 -390v-19l-233 -390h-177l193 399l-193 400h177zM609 923l233 -390v-19l-233 -390h-177l193 399l-193 400h177z"/>
    <glyph glyph-name="onequarter" unicode="¼" horiz-adv-x="1275" d="M444 664h-197v547l-148 -41v159l327 121h18v-786zM416 117l-134 76l597 1138l135 -76zM1126 327h64v-168h-64v-159h-197v159h-278l-12 136l290 494h197v-462zM824 327h105v201l-8 -13z"/>
    <glyph glyph-name="onehalf" unicode="½" horiz-adv-x="1357" d="M381 117l-134 76l597 1138l135 -76zM431 670h-197v547l-148 -41v159l327 121h18v-786zM1273 0h-533v138l240 257q43 49 62 91t19 65q0 84 -64 84q-34 0 -53.5 -30.5t-19.5 -79.5h-199q0 118 74 196.5t189 78.5q131 0 200.5 -64.5t69.5 -183.5q0 -77 -35.5 -137.5 t-153.5 -164.5l-69 -85h273v-165z"/>
    <glyph glyph-name="threequarters" unicode="¾" horiz-adv-x="1443" d="M552 117l-134 76l597 1138l135 -76zM1263 327h64v-168h-64v-159h-197v159h-278l-12 136l290 494h197v-462zM961 327h105v201l-8 -13zM289 1138h75q78 0 78 87q0 36 -19.5 56.5t-53.5 20.5q-27 0 -47 -15.5t-20 -44.5h-197q0 101 72.5 163t185.5 62q129 0 202.5 -60 t73.5 -166q0 -119 -116 -169q128 -41 128 -184q0 -106 -80 -169t-209 -63q-121 0 -194.5 66.5t-73.5 180.5h199q0 -32 21.5 -57t60.5 -25q43 0 60.5 26.5t17.5 61.5q0 90 -82 92h-82v137z"/>
    <glyph glyph-name="questiondown" unicode="¿" horiz-adv-x="915" d="M606 642q0 -128 -27 -212t-100 -165q-78 -92 -100.5 -144.5t-22.5 -112.5q0 -80 28.5 -117.5t75.5 -37.5q52 0 86 46t34 124h284q-2 -192 -108 -300t-291 -108q-187 0 -289.5 101.5t-102.5 290.5q0 158 128 310l87 101q33 40 49.5 86t18.5 138h250zM639 948 q0 -68 -43.5 -111t-110.5 -43q-69 0 -112 43.5t-43 110.5q0 66 42 110t113 44q70 0 112 -44t42 -110z"/>
    <glyph glyph-name="AE" unicode="Æ" horiz-adv-x="1674" d="M1602 0h-778l-12 333h-333l-132 -333h-332l643 1456h892v-238h-485l13 -352h404v-238h-396l13 -390h503v-238zM577 582h226l-18 524z"/>
    <glyph glyph-name="multiply" unicode="×" horiz-adv-x="960" d="M68 374l255 309l-259 315l166 170l246 -299l247 299l165 -170l-259 -315l255 -309l-166 -170l-242 294l-242 -294z"/>
    <glyph glyph-name="Oslash" unicode="Ø" horiz-adv-x="1233" d="M1158 695q0 -214 -65.5 -376t-187.5 -250.5t-279 -88.5q-134 0 -242 64l-68 -139h-177l120 245q-167 197 -167 553v56q0 215 66.5 378.5t188 251t277.5 87.5q139 0 252 -70l55 112h178l-110 -223q158 -199 159 -535v-65zM389 695q0 -139 22 -234l347 705q-55 60 -134 60 q-113 0 -173.5 -116t-61.5 -342v-73zM860 761q0 118 -19 213l-341 -695q51 -51 126 -51q112 0 172.5 118t61.5 342v73z"/>
    <glyph glyph-name="Thorn" unicode="Þ" horiz-adv-x="1092" d="M403 1456v-267h159q219 0 344 -122t125 -329t-125 -329.5t-343 -122.5h-160v-286h-283v1456h283zM403 959v-438h162q85 0 134 57t49 158q0 100 -48 159t-135 59h-158z"/>
    <glyph glyph-name="germandbls" unicode="ß" horiz-adv-x="1145" d="M411 0h-282v1101q0 218 111 338t312 120q172 0 272.5 -100t100.5 -270q0 -107 -44 -195t-44 -163q0 -36 22.5 -72.5t89.5 -112.5t97.5 -146t30.5 -145q0 -178 -96 -276.5t-292 -98.5q-67 0 -131 16t-98 40l51 230q75 -51 173 -51q111 0 111 135q0 45 -25 86t-90 107.5 t-95 132t-30 142.5q0 96 45.5 187t45.5 169q0 69 -31.5 110t-85.5 41q-114 0 -118 -209v-1116z"/>
    <glyph glyph-name="ae" unicode="æ" horiz-adv-x="1491" d="M1063 -20q-205 0 -324 136q-56 -66 -140 -101t-184 -35q-162 0 -253 89.5t-91 249.5q0 157 105.5 243t313.5 88h125v55q0 76 -29 119t-81 43q-57 0 -89 -36t-32 -87l-282 19q0 150 113 244.5t293 94.5q170 0 270 -94q106 96 265 94q181 0 284 -130t105 -353v-170h-540 q9 -115 60.5 -175t141.5 -60q63 0 116 16t125 61l72 -191q-48 -48 -145 -84t-199 -36zM471 193q72 0 144 67v200h-115q-63 0 -104.5 -40.5t-41.5 -104.5q0 -122 117 -122zM1043 867q-132 0 -150 -223h262v28q0 87 -26.5 141t-85.5 54z"/>
    <glyph glyph-name="eth" unicode="ð" horiz-adv-x="1029" d="M733 1307q106 -123 166 -288.5t60 -368.5v-72q0 -172 -58 -309t-162 -213t-233 -76q-123 0 -222 63.5t-154 176t-55 248.5q0 227 103 362t281 135q102 0 183 -60q-43 143 -128 242l-154 -114l-73 114l128 94q-95 73 -216 113l89 225q198 -49 348 -175l141 104l72 -115z M676 652l-1 19q-50 74 -150 74q-80 0 -123 -72.5t-43 -204.5q0 -112 42 -182.5t109 -70.5q78 0 122 90.5t44 247.5v99z"/>
    <glyph glyph-name="divide" unicode="÷" horiz-adv-x="1023" d="M941 570h-870v232h870v-232zM349 1089q0 67 42.5 109.5t113.5 42.5q73 0 114.5 -43t41.5 -109t-42 -108.5t-114 -42.5q-71 0 -113.5 42.5t-42.5 108.5zM349 277q0 69 44 111t112 42q69 0 112.5 -42t43.5 -111q0 -66 -42 -108.5t-114 -42.5q-71 0 -113.5 42.5t-42.5 108.5 z"/>
    <glyph glyph-name="oslash" unicode="ø" horiz-adv-x="1017" d="M71 551q0 252 119 401.5t317 149.5q79 0 149 -25l57 139h152l-87 -212q168 -148 168 -474q0 -251 -118 -400.5t-319 -149.5q-78 0 -142 22l-59 -144h-152l88 214q-173 149 -173 479zM354 530q0 -100 13 -157l197 480q-26 14 -57 14q-139 0 -152 -268zM663 551 q0 79 -12 145l-193 -471q21 -10 51 -10q140 0 153 264z"/>
    <glyph glyph-name="thorn" unicode="þ" horiz-adv-x="1022" d="M948 532q0 -251 -96 -401.5t-259 -150.5q-126 0 -205 92v-488h-283v1952h283v-523q79 89 202 89q169 0 263.5 -145.5t94.5 -424.5zM665 553q0 312 -151 312q-87 0 -126 -84v-485q38 -81 128 -81q74 0 111.5 80t37.5 258z"/>
    <glyph glyph-name="Hbar" unicode="Ħ" horiz-adv-x="1293" d="M1160 1225h98v-174h-98v-1051h-293v623h-433v-623h-294v1051h-91v174h91v231h294v-231h433v231h293v-231zM434 867h433v184h-433v-184z"/>
    <glyph glyph-name="dotlessi" unicode="ı" horiz-adv-x="537" d="M407 0h-283v1082h283v-1082z"/>
    <glyph glyph-name="kgreenlandic" unicode="ĸ" horiz-adv-x="1077" d="M486 397h-81v-397h-283v1082h283v-406h58l201 406h357l-304 -506l311 -576h-363z"/>
    <glyph glyph-name="Lslash" unicode="Ł" horiz-adv-x="1013" d="M446 904l158 53v-166l-158 -53v-494h516v-244h-810v639l-104 -35v166l104 35v651h294v-552z"/>
    <glyph glyph-name="lslash" unicode="ł" horiz-adv-x="587" d="M428 915l109 42v-167l-109 -42v-748h-284v640l-97 -37v167l97 37v729h284v-621z"/>
    <glyph glyph-name="Eng" unicode="Ŋ" horiz-adv-x="1248" d="M1134 1456v-1479q0 -200 -91 -307t-252 -107q-70 0 -130 17l11 240q42 -12 84 -12q83 0 83 174v18l-429 902v-902h-294v1456h294l429 -899v899h295z"/>
    <glyph glyph-name="eng" unicode="ŋ" horiz-adv-x="1017" d="M364 1082l12 -143q95 163 248 163q142 0 215 -109t76 -316v-710q0 -194 -89 -299t-247 -105q-67 0 -123 17l12 233q39 -12 80 -12q83 0 83 171v687q0 109 -26 157.5t-88 48.5q-82 0 -134 -71v-794h-283v1082h264z"/>
    <glyph glyph-name="OE" unicode="Œ" horiz-adv-x="1723" d="M1611 0h-754q-137 -20 -235 -20q-151 0 -270 73.5t-185 206.5t-69 300v320q0 173 66 310t185 211.5t271 74.5q100 0 237 -20h752v-245h-540v-344h457v-237h-457v-386h542v-244zM622 214q81 0 153 12v1003q-89 12 -155 12q-111 0 -175 -90t-64 -269v-306q0 -181 65 -271.5 t176 -90.5z"/>
    <glyph glyph-name="oe" unicode="œ" horiz-adv-x="1579" d="M88 551q0 252 117.5 401.5t316.5 149.5q183 0 297 -125q110 127 280 125q185 0 290 -127.5t105 -365.5v-160h-525q12 -116 60.5 -175.5t126.5 -59.5q106 0 190 45l56 32l75 -188l-30 -25q-131 -98 -322 -98q-186 0 -304 126q-113 -126 -298 -126q-201 0 -318 149 t-117 408v14zM371 530q0 -162 38 -239t114 -77q138 0 150 262l1 75q0 316 -152 316q-138 0 -150 -265zM1099 867q-109 0 -128 -220h246v26q0 194 -118 194z"/>
    <glyph glyph-name="longs" unicode="ſ" horiz-adv-x="504" d="M108 0v1178q1 183 94.5 281t260.5 98q54 0 140 -21l-24 -225q-37 11 -78 11q-110 0 -110 -153v-1169h-283z"/>
    <glyph glyph-name="uni018F" unicode="Ə" horiz-adv-x="1231" d="M601 -20q-253 0 -391 177t-140 500v171h769q-5 189 -85.5 286t-230.5 97q-170 0 -315 -63l-44 250q36 26 152 52t223 26q278 0 437 -181.5t159 -505.5v-139q0 -190 -70 -344.5t-193 -240t-271 -85.5zM601 244q99 0 162 90.5t74 247.5h-474v-31q0 -307 238 -307z"/>
    <glyph glyph-name="florin" unicode="ƒ" horiz-adv-x="677" d="M608 869h-161l-1 -920q-1 -184 -85.5 -285t-236.5 -101q-69 0 -125 17l12 231q34 -13 75 -13q47 0 62 39.5t15 114.5v917h-130v213h130v92q0 184 93 283.5t262 99.5q54 0 140 -21l-24 -226q-34 10 -80 10q-105 0 -107 -141v-97h161v-213z"/>
    <glyph glyph-name="Ohorn" unicode="Ơ" horiz-adv-x="1245" d="M1140 695q0 -214 -65.5 -376t-187.5 -250.5t-279 -88.5q-155 0 -277 87t-189 248t-68 371v73q0 212 66 375.5t187.5 252.5t278.5 89q231 0 378 -184q47 24 65 95t18 179h188q0 -334 -187 -418q70 -162 72 -377v-76zM842 761q0 229 -61.5 347t-174.5 118t-173.5 -116 t-61.5 -342v-73q0 -227 61.5 -347t175.5 -120q113 0 173 118t61 342v73z"/>
    <glyph glyph-name="ohorn" unicode="ơ" horiz-adv-x="1051" d="M70 551q0 252 119 401.5t317 149.5t316 -146q53 55 53 227h167q0 -266 -149 -348q52 -125 52 -305q0 -251 -118 -400.5t-319 -149.5q-192 0 -309 136.5t-128 370.5zM352 530q0 -315 156 -315q141 0 152 269l1 67q0 316 -155 316q-75 0 -114.5 -79.5t-39.5 -257.5z"/>
    <glyph glyph-name="Uhorn" unicode="Ư" horiz-adv-x="1282" d="M1064 1456v-227q62 7 95 35.5t48 83.5t15 189h184q0 -240 -81 -349t-261 -118v-580q-2 -238 -130 -374t-348 -136q-222 0 -350.5 135.5t-130.5 373.5v967h296v-980q6 -252 185 -252q178 0 184 252v980h294z"/>
    <glyph glyph-name="uhorn" unicode="ư" horiz-adv-x="1107" d="M1165 1177q0 -178 -60.5 -266t-195.5 -107v-804h-266l-8 99q-88 -119 -236 -119q-149 0 -226 102.5t-77 298.5v701h283v-708q2 -158 105 -158q97 0 140 84v782h285v-136q50 16 71 63t21 168h164z"/>
    <glyph glyph-name="uni0237" unicode="ȷ" horiz-adv-x="550" d="M423 1082v-1122q-2 -191 -90.5 -294t-245.5 -103q-70 0 -126 17l13 231q43 -13 82 -13q84 0 84 175v1109h283z"/>
    <glyph glyph-name="uni0259" unicode="ə" horiz-adv-x="959" d="M452 1103q199 0 320.5 -146t121.5 -393v-30q0 -251 -115 -403t-301 -150q-187 0 -291 128t-104 366v159h525q-12 114 -60 174t-127 60q-64 0 -116.5 -15t-128.5 -62l-75 188q54 54 149.5 89t201.5 35zM478 216q106 0 129 219h-247v-25q0 -194 118 -194z"/>
    <glyph glyph-name="circumflex" unicode="ˆ" horiz-adv-x="929" d="M805 1256v-12h-221l-125 144l-125 -144h-216v16l260 276h162z"/>
    <glyph glyph-name="caron" unicode="ˇ" horiz-adv-x="883" d="M437 1395l116 142h241v-11l-268 -281h-176l-268 283v9h240z"/>
    <glyph glyph-name="uni02C9" unicode="ˉ" horiz-adv-x="938" d="M784 1290h-631v167h631v-167z"/>
    <glyph glyph-name="breve" unicode="˘" horiz-adv-x="910" d="M800 1527q0 -133 -95.5 -215t-251.5 -82q-157 0 -252.5 82t-95.5 215h207q0 -62 37.5 -96.5t103.5 -34.5q65 0 102 34.5t37 96.5h208z"/>
    <glyph glyph-name="dotaccent" unicode="˙" horiz-adv-x="544" d="M118 1374q0 62 42 100t107 38t107 -38t42 -100q0 -60 -40 -98t-109 -38t-109 38t-40 98z"/>
    <glyph glyph-name="ring" unicode="˚" horiz-adv-x="682" d="M119 1323q0 86 65 145.5t158 59.5q92 0 157.5 -58.5t65.5 -146.5q0 -85 -64 -143t-159 -58q-97 0 -160 59t-63 142zM342 1216q50 0 79 31t29 76q0 46 -29.5 77.5t-78.5 31.5q-47 0 -77 -31t-30 -78t30.5 -77t76.5 -30z"/>
    <glyph glyph-name="ogonek" unicode="˛" horiz-adv-x="583" d="M375 0q-64 -42 -94 -82t-30 -93q0 -65 51 -65q25 0 62 20l27 -158q-65 -44 -146 -44q-91 0 -147 57t-56 152t46 159.5t144 113.5z"/>
    <glyph glyph-name="tilde" unicode="˜" horiz-adv-x="895" d="M774 1524q0 -111 -56.5 -188.5t-142.5 -77.5q-32 0 -56.5 9t-69 37t-63 34t-40.5 6q-27 0 -45 -24.5t-18 -70.5l-160 9q0 111 57 189.5t140 78.5q22 0 42.5 -6.5t71 -35t72.5 -36t44 -7.5q26 0 45.5 24.5t19.5 70.5z"/>
    <glyph glyph-name="hungarumlaut" unicode="˝" horiz-adv-x="758" d="M549 1535h247l-220 -301h-207zM202 1535h244l-191 -301h-202z"/>
    <glyph glyph-name="uni02F3" unicode="˳" horiz-adv-x="582" d="M133 -230q0 71 47.5 122t118.5 51t117.5 -50.5t46.5 -122.5q0 -73 -47 -121t-117 -48q-71 0 -118.5 48.5t-47.5 120.5zM236 -230q0 -32 18.5 -52.5t44.5 -20.5t43 20.5t17 52.5q0 34 -17 55.5t-43 21.5t-44.5 -21.5t-18.5 -55.5z"/>
    <glyph glyph-name="gravecomb" unicode="̀" horiz-adv-x="0" d="M-283 1226h-229l-246 310h307z"/>
    <glyph glyph-name="acutecomb" unicode="́" horiz-adv-x="0" d="M-404 1536h306l-246 -310h-226z"/>
    <glyph glyph-name="tildecomb" unicode="̃" horiz-adv-x="0" d="M-125 1524q0 -111 -56.5 -188.5t-142.5 -77.5q-32 0 -56.5 9t-69 37t-63 34t-40.5 6q-27 0 -45 -24.5t-18 -70.5l-160 9q0 111 57 189.5t140 78.5q22 0 42.5 -6.5t71 -35t72.5 -36t44 -7.5q26 0 45.5 24.5t19.5 70.5z"/>
    <glyph glyph-name="hookabovecomb" unicode="̉" horiz-adv-x="0" d="M-603 1267l-16 134q57 4 82 18.5t25 46.5q0 40 -27.5 54t-76.5 14l6 137q168 0 251.5 -52.5t83.5 -142.5q0 -56 -30.5 -94.5t-87.5 -49.5v-65h-210z"/>
    <glyph glyph-name="uni030F" unicode="̏" horiz-adv-x="0" d="M-394 1252h-229l-243 266h273zM-88 1252h-225l-205 266h270z"/>
    <glyph glyph-name="dotbelowcomb" unicode="̣" horiz-adv-x="0" d="M-600 -95q73 0 118.5 -39.5t45.5 -99.5t-45.5 -99.5t-118.5 -39.5q-72 0 -117.5 39.5t-45.5 99.5t45.5 99.5t117.5 39.5z"/>
    <glyph glyph-name="tonos" unicode="΄" horiz-adv-x="695" d="M293 1601h264l-165 -345h-173z"/>
    <glyph glyph-name="dieresistonos" unicode="΅" horiz-adv-x="1017" d="M452 1753h250l-149 -333h-139zM91 1365q0 54 37 91t93 37q57 0 94 -37t37 -91q0 -53 -37 -90t-94 -37q-56 0 -93 37t-37 90zM638 1365q0 55 38 91t92 36q56 0 93 -37t37 -90q0 -51 -36 -89t-94 -38q-57 0 -93.5 36.5t-36.5 90.5z"/>
    <glyph glyph-name="anoteleia" unicode="·" horiz-adv-x="583" d="M131 696q0 68 43.5 112t112.5 44q70 0 113 -44t43 -112q0 -69 -43.5 -112t-112.5 -43q-68 0 -112 43t-44 112z"/>
    <glyph glyph-name="Gamma" unicode="Γ" horiz-adv-x="1001" d="M937 1211h-523v-1211h-294v1456h817v-245z"/>
    <glyph glyph-name="uni2206" unicode="∆" horiz-adv-x="1313" d="M512 1456h305l473 -1456h-1259zM415 244h492l-244 797z"/>
    <glyph glyph-name="uni2206" unicode="Δ" horiz-adv-x="1313" d="M512 1456h305l473 -1456h-1259zM415 244h492l-244 797z"/>
    <glyph glyph-name="Theta" unicode="Θ" horiz-adv-x="1231" d="M764 606h-285v234h285v-234zM1147 695q0 -214 -65.5 -376t-187.5 -250.5t-279 -88.5q-155 0 -277 87t-189 248t-68 371v73q0 215 66.5 378.5t188 251t277.5 87.5t277.5 -87t189 -251t67.5 -377v-66zM849 761q0 229 -61.5 347t-174.5 118t-173.5 -116t-61.5 -342v-73 q0 -227 61.5 -347t175.5 -120q112 0 172.5 118t61.5 342v73z"/>
    <glyph glyph-name="Lambda" unicode="Λ" horiz-adv-x="1155" d="M577 1012l-237 -1012h-318l403 1456h304l404 -1456h-319z"/>
    <glyph glyph-name="Xi" unicode="Ξ" horiz-adv-x="1022" d="M96 244h841v-244h-841v244zM195 852h646v-234h-646v234zM118 1456h782v-245h-782v245z"/>
    <glyph glyph-name="Pi" unicode="Π" horiz-adv-x="1259" d="M1139 0h-294v1211h-432v-1211h-294v1456h1020v-1456z"/>
    <glyph glyph-name="Sigma" unicode="Σ" horiz-adv-x="1022" d="M746 727l-288 -484h500v-243h-875v151l350 584l-350 570v151h861v-245h-482l284 -469v-15z"/>
    <glyph glyph-name="Phi" unicode="Φ" horiz-adv-x="1385" d="M847 1287q137 -7 245 -79t167.5 -199.5t59.5 -289.5q0 -157 -59.5 -281.5t-167.5 -195t-245 -77.5v-165h-293v164q-138 5 -246.5 74.5t-169.5 194.5t-61 284q0 162 60 290.5t169.5 201.5t247.5 78v169h293v-169zM366 717q0 -136 51.5 -208t136.5 -80v595 q-85 -9 -136.5 -85.5t-51.5 -221.5zM1031 719q0 142 -50.5 218t-133.5 86v-594q84 10 134 82.5t50 207.5z"/>
    <glyph glyph-name="Psi" unicode="Ψ" horiz-adv-x="1302" d="M801 642q82 26 118.5 113t36.5 240v461h295v-472q-3 -253 -122 -409q-118 -153 -328 -182v-393h-294v391q-216 25 -336.5 179.5t-124.5 408.5v477h294v-481q6 -273 167 -331v812h294v-814z"/>
    <glyph glyph-name="uni2126" unicode="Ω" horiz-adv-x="1205" d="M633 251q66 38 96.5 164.5t31.5 345.5v102q0 182 -44 273.5t-123 91.5q-76 0 -120 -89.5t-45 -267.5v-94q0 -211 26 -336q31 -151 107 -190v-251h-443v247h184q-93 95 -147.5 233.5t-55.5 291.5v89q0 177 62.5 318t176 218.5t255.5 77.5q143 0 257 -78t176 -217t63 -313 v-90q0 -152 -53 -291t-149 -239h180v-247h-435v251z"/>
    <glyph glyph-name="uni2126" unicode="Ω" horiz-adv-x="1205" d="M633 251q66 38 96.5 164.5t31.5 345.5v102q0 182 -44 273.5t-123 91.5q-76 0 -120 -89.5t-45 -267.5v-94q0 -211 26 -336q31 -151 107 -190v-251h-443v247h184q-93 95 -147.5 233.5t-55.5 291.5v89q0 177 62.5 318t176 218.5t255.5 77.5q143 0 257 -78t176 -217t63 -313 v-90q0 -152 -53 -291t-149 -239h180v-247h-435v251z"/>
    <glyph glyph-name="alpha" unicode="α" horiz-adv-x="1010" d="M899 1082v-745q2 -118 52 -118q7 0 11 4l23 -220q-48 -24 -114 -24q-155 0 -217 152q-81 -151 -224 -151q-164 0 -260.5 142t-96.5 412q0 263 96 415.5t262 152.5q127 0 206 -128l17 108h245zM357 513q0 -153 36.5 -226t110.5 -73q73 0 113 67v510q-40 76 -112 76 q-73 0 -110.5 -84t-37.5 -270z"/>
    <glyph glyph-name="beta" unicode="β" horiz-adv-x="1079" d="M554 1476q192 0 299.5 -106t107.5 -288q0 -100 -44 -182t-122 -131q102 -43 157 -134t55 -222q0 -204 -99 -318.5t-275 -114.5q-120 0 -220 63v-449h-282v1434q0 197 120.5 322.5t302.5 125.5zM678 1059q0 77 -33.5 129.5t-90.5 52.5q-64 0 -102.5 -58t-38.5 -153v-771 q61 -44 154 -44q72 0 114.5 58t42.5 145q0 227 -155 227h-67v213h57q119 6 119 201z"/>
    <glyph glyph-name="gamma" unicode="γ" horiz-adv-x="930" d="M469 408l137 674h295l-296 -1068v-431h-282v442l-294 1057h296z"/>
    <glyph glyph-name="delta" unicode="δ" horiz-adv-x="1017" d="M178 1249q0 152 93.5 237.5t260.5 85.5q78 0 146 -22l66 -22l3 -224q-110 47 -189 47q-112 0 -112 -95q0 -46 26 -77t78 -58q382 -158 401 -533l1 -63q0 -246 -119.5 -395.5t-318.5 -149.5q-200 0 -320 145t-120 405q0 161 72.5 286.5t182.5 158.5l-3 6 q-148 102 -148 268zM356 538q0 -151 41.5 -237.5t116.5 -86.5q74 0 114.5 84.5t40.5 259.5q0 113 -42.5 204t-115.5 111q-74 0 -114.5 -85.5t-40.5 -249.5z"/>
    <glyph glyph-name="epsilon" unicode="ε" horiz-adv-x="1000" d="M96 306q0 184 173 251q-72 36 -114.5 96.5t-42.5 132.5q0 147 113 231t305 84q171 0 280 -93t109 -238h-283q0 54 -33.5 82.5t-87.5 28.5q-56 0 -88.5 -34t-32.5 -85t32.5 -81.5t89.5 -30.5h160v-194h-159q-138 0 -138 -128q0 -55 36.5 -92t98.5 -37t99.5 33.5t37.5 87.5 h282q0 -155 -113 -247.5t-290 -92.5q-193 0 -313.5 90t-120.5 236z"/>
    <glyph glyph-name="zeta" unicode="ζ" horiz-adv-x="912" d="M846 1456v-166l-330 -490l-40 -65q-85 -148 -85 -308q0 -76 22 -120.5t83 -72.5l141 -51q102 -40 142 -94.5t39 -137.5q0 -79 -61.5 -177t-147.5 -163l-142 113q73 85 70 167q4 63 -65 90l-92 30q-144 49 -207.5 138t-63.5 233q0 143 50.5 276.5t185.5 327.5l164 236 h-420v234h757z"/>
    <glyph glyph-name="eta" unicode="η" horiz-adv-x="1017" d="M363 1082l10 -123q99 143 251 143q291 0 291 -412v-1105h-284v1119q-3 163 -114 163q-83 0 -134 -76v-791h-284v1082h264z"/>
    <glyph glyph-name="theta" unicode="θ" horiz-adv-x="1060" d="M953 607q0 -300 -110.5 -463.5t-311.5 -163.5q-202 0 -313 164.5t-111 462.5v244q0 300 111 462.5t312 162.5q195 0 307 -156t116 -447v-266zM669 619h-279v-51q0 -353 141 -353q126 0 137 295zM390 845h279v47q0 169 -34.5 259t-104.5 90q-128 0 -139 -295z"/>
    <glyph glyph-name="iota" unicode="ι" horiz-adv-x="640" d="M413 1082l-1 -742q0 -61 17.5 -86.5t67.5 -25.5q39 0 68 8l-2 -221q-71 -26 -158 -26q-273 0 -275 316v777h283z"/>
    <glyph glyph-name="lambda" unicode="λ" horiz-adv-x="984" d="M268 1547q172 0 231 -173l357 -1047q30 -106 76 -109h30v-230q-30 -6 -101 -6q-107 0 -169.5 58t-97.5 165l-126 415l-146 -620h-305l312 1055l-61 166q-27 89 -98 89h-24l-28 -2l-4 217q66 22 154 22z"/>
    <glyph glyph-name="xi" unicode="ξ" horiz-adv-x="967" d="M795 1198l-77 23q-52 14 -104 14q-82 0 -120 -38t-38 -101q0 -146 169 -146h124v-244h-127q-124 -1 -181.5 -63t-57.5 -184q0 -85 41 -141.5t132 -88.5l110 -31q130 -39 181.5 -97.5t51.5 -153.5q0 -79 -61.5 -178t-146.5 -162l-146 113q73 81 73 168q0 63 -85 97 l-162 59q-152 60 -211 149.5t-59 254.5q0 282 257 379q-185 79 -185 264q0 178 110.5 281.5t297.5 103.5q118 0 198 -27l61 -23z"/>
    <glyph glyph-name="pi" unicode="π" horiz-adv-x="1166" d="M1097 860h-138v-520q0 -65 18.5 -88.5t66.5 -23.5q38 0 67 8l-1 -221q-71 -26 -158 -26q-271 0 -276 309v562h-185v-860h-283v860h-145v222h1034v-222z"/>
    <glyph glyph-name="rho" unicode="ρ" horiz-adv-x="1017" d="M532 1102q194 0 304 -152.5t110 -436.5q0 -246 -94.5 -389.5t-259.5 -143.5q-126 0 -205 100v-496h-283v986q0 247 118 389.5t310 142.5zM387 283q42 -69 129 -69q145 0 148 286v34q0 164 -37.5 248.5t-109.5 84.5q-61 0 -95.5 -84.5t-34.5 -237.5v-262z"/>
    <glyph glyph-name="sigma1" unicode="ς" horiz-adv-x="918" d="M490 1102q176 0 278.5 -113.5t102.5 -310.5h-264q0 189 -117 189q-132 0 -143 -261l-1 -80q0 -127 40 -192.5t142 -103.5q131 -44 175.5 -75t68 -75t26.5 -113q0 -81 -62 -180.5t-145 -160.5l-146 114q74 89 72 168q0 70 -75 96q-198 61 -286.5 180t-92.5 321v49 q0 248 114.5 398t312.5 150z"/>
    <glyph glyph-name="sigma" unicode="σ" horiz-adv-x="1033" d="M991 846h-211q146 -141 146 -357q0 -231 -114 -370t-305 -139q-200 0 -318 148.5t-118 407.5v15q0 241 116.5 386t317.5 145l1 -1v1h485v-236zM354 530q0 -316 153 -316q124 0 135 258l1 79q0 153 -34.5 224t-103.5 71q-145 0 -151 -274v-42z"/>
    <glyph glyph-name="tau" unicode="τ" horiz-adv-x="942" d="M889 849h-285v-519q0 -65 15 -89t46 -24q34 0 80 16l29 -221q-70 -32 -169 -32q-137 0 -211 89t-74 265v515h-269v233h838v-233z"/>
    <glyph glyph-name="upsilon" unicode="υ" horiz-adv-x="986" d="M388 1082v-657q0 -211 81 -211q67 0 114 103t47 249q-4 240 -83 516h267q98 -222 98 -516q0 -278 -113 -432.5t-321 -154.5q-182 0 -276.5 112t-95.5 321v670h282z"/>
    <glyph glyph-name="phi" unicode="φ" horiz-adv-x="1351" d="M526 -10q-231 36 -353 192.5t-122 413.5q0 150 48 283.5t134 217.5l197 -155q-43 -61 -68.5 -152t-27.5 -194q0 -291 192 -359v561q0 133 79.5 216t198.5 83q145 0 253.5 -69.5t168.5 -194.5t60 -274q0 -245 -124 -392t-354 -179v-466h-282v468zM808 232q194 59 194 327 q-2 142 -44.5 222.5t-117.5 80.5q-32 0 -32 -34v-596z"/>
    <glyph glyph-name="psi" unicode="ψ" horiz-adv-x="1347" d="M806 1082v-846q194 70 194 360q-3 214 -84 486h260q107 -214 107 -486q0 -264 -124 -420t-353 -188v-466h-283v469q-229 37 -344 188.5t-115 408.5v494h284v-501q2 -272 175 -343v844h283z"/>
    <glyph glyph-name="omega" unicode="ω" horiz-adv-x="1451" d="M473 1082q-104 -261 -112 -516q0 -352 106 -352q111 0 111 296v336h298v-337q0 -295 111 -295q52 0 79 90t27 262q-8 255 -112 516h268q126 -223 126 -516q0 -299 -95.5 -442.5t-282.5 -143.5q-184 0 -270 200q-86 -200 -270 -200q-188 0 -283 144t-95 442q0 293 126 516 h268z"/>
    <glyph glyph-name="theta1" unicode="ϑ" horiz-adv-x="1074" d="M1048 576l-82 -25v-89q0 -217 -117.5 -349.5t-312.5 -132.5q-185 0 -303.5 134t-118.5 351v237h268v-241q0 -106 45.5 -171.5t123.5 -65.5q54 0 86 62.5t32 171.5v93q-164 48 -265.5 183t-102.5 314v26q0 184 94 293t250 109q148 0 234.5 -112t86.5 -313v-245l74 16z M569 1065q0 -152 100 -229v260q-1 121 -40 121q-57 0 -60 -116v-36z"/>
    <glyph glyph-name="Upsilon1" unicode="ϒ" horiz-adv-x="1076" d="M539 805l140 432q41 131 105.5 188.5t158.5 57.5q61 0 130 -26l-35 -232q-4 4 -43 4q-55 0 -66 -70l-245 -669v-490h-296v488l-242 671q-11 70 -66 70q-42 0 -45 -4l-32 232q69 26 130 26q98 0 159.5 -53t100.5 -166z"/>
    <glyph glyph-name="omega1" unicode="ϖ" horiz-adv-x="1478" d="M1455 875h-104q42 -143 42 -309q0 -299 -93 -442.5t-275 -143.5q-198 0 -285 207q-89 -207 -285 -207q-183 0 -275.5 144t-92.5 442q0 162 41 309h-95v207h1422v-207zM1110 566q-4 148 -44 309h-652q-40 -161 -44 -309q0 -352 94 -352q128 0 128 291v187h298v-184 q0 -294 125 -294q95 0 95 352z"/>
    <glyph glyph-name="afii10051" unicode="Ђ" horiz-adv-x="1329" d="M996 1211h-374v-341q102 25 182 25q221 0 342.5 -117.5t121.5 -334.5q0 -213 -126 -337t-358 -124v229q172 0 187 152l3 62q0 106 -48 165t-137 59q-86 0 -167 -17v-632h-295v1211h-290v245h959v-245z"/>
    <glyph glyph-name="afii10053" unicode="Є" horiz-adv-x="1178" d="M1105 485q-13 -232 -146 -368.5t-357 -136.5q-242 0 -380.5 187.5t-138.5 517.5v87q0 211 64 371.5t183 246.5t275 86q220 0 351 -136t151 -380h-295q-7 147 -55.5 209t-151.5 62q-108 0 -163 -93t-64 -287h342v-244h-342q6 -197 59.5 -291t164.5 -94q107 0 154.5 66.5 t53.5 196.5h295z"/>
    <glyph glyph-name="afii10058" unicode="Љ" horiz-adv-x="1864" d="M1151 963h179q139 0 248.5 -61.5t168.5 -171t59 -248.5q0 -211 -129 -345t-341 -137h-480v1211h-286l-20 -516q-12 -255 -57.5 -404.5t-133 -219.5t-235.5 -71h-73v244l35 3q91 11 130.5 115t50.5 350l21 744h863v-493zM1151 719v-475h177q81 0 132.5 66.5t51.5 173.5 q0 103 -50.5 168.5t-131.5 66.5h-179z"/>
    <glyph glyph-name="afii10059" unicode="Њ" horiz-adv-x="1854" d="M414 843h430v613h295v-501h171q223 0 353.5 -133.5t130.5 -343.5q0 -208 -127.5 -341t-338.5 -137h-484v599h-430v-599h-294v1456h294v-613zM1139 711v-466h178q82 0 133 66t51 169q0 98 -49.5 164t-132.5 67h-180z"/>
    <glyph glyph-name="afii10060" unicode="Ћ" horiz-adv-x="1357" d="M977 1211h-369v-292q89 13 147 13q240 0 365.5 -122.5t128.5 -350.5v-459h-295v456q-1 127 -46 179.5t-153 52.5q-56 0 -147 -13v-675h-296v1211h-267v245h932v-245z"/>
    <glyph glyph-name="afii10145" unicode="Џ" horiz-adv-x="1246" d="M104 1456h294v-1212h431v1212h296v-1456h-350v-360h-296v360h-375v1456z"/>
    <glyph glyph-name="afii10018" unicode="Б" horiz-adv-x="1118" d="M933 1211h-522v-278h174q221 0 352 -125.5t131 -335.5q0 -209 -128 -338.5t-339 -133.5h-485v1456h817v-245zM411 689v-445h178q86 0 135.5 64.5t49.5 165.5q0 95 -48.5 154.5t-134.5 60.5h-180z"/>
    <glyph glyph-name="afii10021" unicode="Д" horiz-adv-x="1343" d="M1283 -358h-270v358h-689v-357h-278l-16 601h97q64 59 101 190t52 343l41 679h837v-1212h151zM443 244h422v967h-264l-24 -401q-25 -361 -134 -566z"/>
    <glyph glyph-name="afii10024" unicode="Ж" horiz-adv-x="1809" d="M1205 591h-139v-591h-294v591h-144l-229 -591h-366l367 798l-351 658h366l237 -585h120v585h294v-585h116l229 585h365l-343 -655l359 -801h-366z"/>
    <glyph glyph-name="afii10025" unicode="З" horiz-adv-x="1109" d="M700 1055q0 80 -44.5 128t-120.5 48q-67 0 -109.5 -46.5t-42.5 -123.5h-294q0 121 58.5 215.5t161.5 146.5t226 52q217 0 338.5 -108.5t121.5 -305.5q0 -100 -50.5 -182.5t-138.5 -130.5q100 -42 154 -127.5t54 -212.5q0 -197 -131 -312t-348 -115q-132 0 -238.5 51 t-166 146t-59.5 226h295q0 -75 47 -128t122 -53q84 0 134 53t50 137q0 113 -43 162t-125 49h-149v237h150q148 1 148 194z"/>
    <glyph glyph-name="afii10026" unicode="И" horiz-adv-x="1241" d="M830 1456h294v-1456h-294v964l-429 -964h-295v1456h295v-965z"/>
    <glyph glyph-name="afii10029" unicode="Л" horiz-adv-x="1258" d="M1138 1456v-1456h-295v1211h-270l-20 -516q-12 -255 -57.5 -404.5t-133 -219.5t-235.5 -71h-72v244l34 3q92 11 132.5 120.5t50.5 387.5l19 701h847z"/>
    <glyph glyph-name="afii10037" unicode="У" horiz-adv-x="1128" d="M577 809l196 647h316l-399 -1170q-68 -174 -146.5 -239t-188.5 -68h-32l-70 4l-5 244q10 -4 65 -4q56 0 84.5 25t49.5 112l14 53l-416 1043h315z"/>
    <glyph glyph-name="afii10038" unicode="Ф" horiz-adv-x="1481" d="M886 1326q147 0 266.5 -76t185.5 -214.5t66 -315.5q0 -173 -65.5 -308.5t-185 -210.5t-267.5 -75v-186h-282v186q-152 0 -271 73.5t-185 210t-66 308.5q0 177 66 316t185 215.5t271 76.5v190h282v-190zM601 1075q-116 0 -179 -95.5t-63 -261.5q0 -158 63 -249t182 -91 v697h-3zM1127 720q0 170 -63.5 262.5t-177.5 92.5v-697q114 0 177.5 90.5t63.5 251.5z"/>
    <glyph glyph-name="afii10040" unicode="Ц" horiz-adv-x="1367" d="M106 1456h294v-1212h431v1212h295v-1213h179l-20 -594h-274v351h-905v1456z"/>
    <glyph glyph-name="afii10041" unicode="Ч" horiz-adv-x="1252" d="M1133 1456v-1456h-294v549q-117 -26 -220 -26q-238 0 -363 120t-130 346v467h295v-451q0 -128 43.5 -183t154.5 -55q107 0 220 26v663h294z"/>
    <glyph glyph-name="afii10042" unicode="Ш" horiz-adv-x="1705" d="M412 1456v-1212h296v1212h294v-1212h292v1212h294v-1456h-1471v1456h295z"/>
    <glyph glyph-name="afii10043" unicode="Щ" horiz-adv-x="1834" d="M412 1456v-1212h296v1212h294v-1212h292v1212h294v-1222h172l-20 -584h-262v350h-1361v1456h295z"/>
    <glyph glyph-name="afii10044" unicode="Ъ" horiz-adv-x="1360" d="M52 1456h603v-523h173q222 0 352 -126t130 -335q0 -208 -127 -338t-339 -134h-485v1221h-307v235zM655 689v-445h177q85 0 134.5 64.5t49.5 165.5q0 95 -48.5 154.5t-133.5 60.5h-179z"/>
    <glyph glyph-name="afii10045" unicode="Ы" horiz-adv-x="1561" d="M415 933h174q221 0 352 -125.5t131 -335.5q0 -209 -128 -338.5t-339 -133.5h-485v1456h295v-523zM1442 0h-294v1456h294v-1456zM415 689v-445h178q86 0 135.5 64.5t49.5 165.5q0 95 -48.5 154.5t-134.5 60.5h-180z"/>
    <glyph glyph-name="afii10046" unicode="Ь" horiz-adv-x="1125" d="M411 933h174q221 0 352 -125.5t131 -335.5q0 -209 -128 -338.5t-339 -133.5h-485v1456h295v-523zM411 689v-445h178q86 0 135.5 64.5t49.5 165.5q0 95 -48.5 154.5t-134.5 60.5h-180z"/>
    <glyph glyph-name="afii10047" unicode="Э" horiz-adv-x="1158" d="M353 485q7 -130 54.5 -196.5t155.5 -66.5q115 0 165.5 96.5t57.5 286.5h-355v245h354q-8 193 -64 287t-162 94q-103 0 -151.5 -62t-55.5 -209h-295q20 244 151 380t351 136q238 0 380 -191t142 -520v-86q0 -324 -138.5 -511.5t-379.5 -187.5q-225 0 -358 136.5 t-146 368.5h294z"/>
    <glyph glyph-name="afii10048" unicode="Ю" horiz-adv-x="1672" d="M1584 597q0 -293 -138.5 -455t-384.5 -162q-242 0 -381.5 156t-145.5 442h-117v-578h-294v1456h294v-642h117v27q0 197 62.5 340.5t181.5 219t281 75.5q243 0 383 -165.5t142 -464.5v-249zM1289 841q0 197 -56 293t-174 96q-117 0 -173 -92.5t-58 -281.5v-259 q0 -191 57 -281.5t176 -90.5q115 0 171 88.5t57 274.5v253z"/>
    <glyph glyph-name="afii10049" unicode="Я" horiz-adv-x="1068" d="M660 0v524h-154l-215 -524h-317l258 630q-180 125 -180 376q0 216 121.5 333t344.5 117h437v-1456h-295zM347 983q0 -121 43 -175.5t134 -54.5h136v458h-146q-167 0 -167 -228z"/>
    <glyph glyph-name="afii10066" unicode="б" horiz-adv-x="1027" d="M578 1022q175 0 277.5 -137.5t102.5 -374.5v-15q0 -236 -117 -376t-318 -140q-202 0 -318.5 152t-116.5 417v45q2 362 104 571.5t307 262.5q98 30 126 57.5t28 73.5h226q0 -160 -72 -238.5t-257 -119.5q-103 -26 -159 -98.5t-75 -200.5q113 121 262 121zM522 787 q-145 0 -150 -255v-37q0 -149 38.5 -215t112.5 -66q147 0 152 261v41q0 271 -153 271z"/>
    <glyph glyph-name="afii10067" unicode="в" horiz-adv-x="1019" d="M121 0v1082h393q189 0 290.5 -78t101.5 -224q0 -75 -43.5 -134.5t-126.5 -91.5q101 -21 159.5 -84.5t58.5 -160.5q0 -309 -389 -309h-444zM403 448v-215h169q55 0 77 27t22 79q0 60 -24 84t-69 25h-175zM403 643h115q57 0 80.5 24.5t23.5 72.5q0 105 -98 109h-121v-206z "/>
    <glyph glyph-name="afii10068" unicode="г" horiz-adv-x="759" d="M736 846h-351v-846h-283v1082h634v-236z"/>
    <glyph glyph-name="afii10069" unicode="д" horiz-adv-x="1157" d="M125 235q70 80 100 161t35 227l8 459h705v-847h143v-560h-283v325h-499v-325h-290v560h81zM439 235h252v606h-144l-1 -107q-3 -310 -107 -499z"/>
    <glyph glyph-name="afii10072" unicode="ж" horiz-adv-x="1542" d="M1013 400h-97v-400h-282v400h-96l-143 -400h-339l265 583l-272 499h350l155 -403h80v403h282v-403h80l157 403h350l-268 -492l267 -590h-347z"/>
    <glyph glyph-name="afii10073" unicode="з" horiz-adv-x="927" d="M563 762q0 119 -90 119q-49 0 -77 -28.5t-28 -82.5h-283q0 147 104 239t269 92q181 0 284 -82.5t103 -232.5q0 -72 -37 -132.5t-103 -96.5q156 -66 156 -251q0 -148 -110 -237t-294 -89q-171 0 -278.5 92.5t-107.5 247.5h283q0 -57 32 -89t87 -32q52 0 79 34.5t27 94.5 q0 127 -99 131h-141v188h134q90 1 90 115z"/>
    <glyph glyph-name="afii10074" unicode="и" horiz-adv-x="1023" d="M638 1082h282v-1082h-282v665l-252 -665h-284v1082h284v-664z"/>
    <glyph glyph-name="afii10076" unicode="к" horiz-adv-x="1032" d="M479 397h-74v-397h-282v1082h282v-406h70l164 406h355l-285 -499l307 -583h-375z"/>
    <glyph glyph-name="afii10077" unicode="л" horiz-adv-x="1024" d="M921 1082v-1082h-283v846h-168l-16 -334q-15 -260 -93 -384.5t-232 -127.5h-92l-3 236l32 4q57 8 84 83t35 246l19 513h717z"/>
    <glyph glyph-name="afii10078" unicode="м" horiz-adv-x="1360" d="M670 344l203 738h355v-1082h-283v579l-180 -579h-189l-173 560v-560h-282v1082h349z"/>
    <glyph glyph-name="afii10079" unicode="н" horiz-adv-x="1022" d="M918 0h-283v415h-249v-415h-284v1082h284v-433h249v433h283v-1082z"/>
    <glyph glyph-name="afii10081" unicode="п" horiz-adv-x="1023" d="M920 0h-283v846h-251v-846h-284v1082h818v-1082z"/>
    <glyph glyph-name="afii10084" unicode="т" horiz-adv-x="930" d="M882 849h-278v-849h-283v849h-276v233h837v-233z"/>
    <glyph glyph-name="afii10086" unicode="ф" horiz-adv-x="1300" d="M68 534q0 262 89.5 415t248.5 153q50 0 99 -19v453h283v-454q48 20 104 20q158 0 248.5 -151.5t90.5 -437.5q0 -249 -91 -391t-246 -142q-58 0 -106 20v-416h-283v414q-45 -18 -100 -18q-155 0 -246 141t-91 413zM948 534q0 166 -34 249.5t-98 83.5l-28 -2v-649l30 -2 q65 0 97.5 73.5t32.5 246.5zM351 513q0 -151 30.5 -223.5t93.5 -74.5h18l12 1v649l-24 2q-118 0 -129 -273z"/>
    <glyph glyph-name="afii10088" unicode="ц" horiz-adv-x="1109" d="M102 1082h284v-847h251v847h283v-849h148l-20 -554h-262v321h-684v1082z"/>
    <glyph glyph-name="afii10089" unicode="ч" horiz-adv-x="1003" d="M902 0h-284v334q-50 -10 -97 -10q-214 0 -323.5 106.5t-109.5 308.5v343h284v-344q0 -99 32.5 -139t116.5 -40q44 0 97 11v512h284v-1082z"/>
    <glyph glyph-name="afii10090" unicode="ш" horiz-adv-x="1480" d="M386 1082v-847h203v847h284v-847h205v847h283v-1082h-1259v1082h284z"/>
    <glyph glyph-name="afii10091" unicode="щ" horiz-adv-x="1632" d="M383 1082v-847h203v847h284v-847h205v847h283v-849h200l-20 -554h-262v321h-1177v1082h284z"/>
    <glyph glyph-name="afii10092" unicode="ъ" horiz-adv-x="1176" d="M580 767h144q192 0 301 -105t109 -281q0 -172 -110.5 -276.5t-298.5 -104.5h-428v846h-250v236h533v-315zM580 532v-299h148q57 0 90 38t33 109q0 152 -130 152h-141z"/>
    <glyph glyph-name="afii10093" unicode="ы" horiz-adv-x="1500" d="M404 767h145q191 0 300.5 -105t109.5 -281q0 -172 -110.5 -276.5t-300.5 -104.5h-427v1082h283v-315zM1365 0h-283v1082h283v-1082zM404 532v-299h148q59 0 92 39t33 108q0 152 -133 152h-140z"/>
    <glyph glyph-name="afii10094" unicode="ь" horiz-adv-x="1010" d="M404 767h145q191 0 300.5 -105t109.5 -281q0 -172 -110.5 -276.5t-300.5 -104.5h-427v1082h283v-315zM404 532v-299h148q59 0 92 39t33 108q0 152 -133 152h-140z"/>
    <glyph glyph-name="afii10095" unicode="э" horiz-adv-x="930" d="M443 867q-59 0 -87 -43.5t-28 -116.5h-266q0 170 108.5 282.5t272.5 112.5q196 0 312 -148.5t116 -409.5v-18q0 -250 -116 -398t-312 -148q-175 0 -278 115.5t-103 307.5h266q0 -91 31.5 -140t83.5 -49q128 0 143 242h-197v177h196q-14 234 -142 234z"/>
    <glyph glyph-name="afii10096" unicode="ю" horiz-adv-x="1437" d="M408 668h94q27 200 140.5 317t288.5 117q201 0 320 -149.5t119 -422.5q0 -251 -118 -400.5t-319 -149.5q-181 0 -295.5 122t-137.5 331h-92v-433h-283v1082h283v-414zM778 530q0 -315 155 -315q140 0 153 264l1 72q0 158 -40 237t-116 79q-139 0 -152 -268z"/>
    <glyph glyph-name="afii10097" unicode="я" horiz-adv-x="1010" d="M886 1082v-1082h-281v373h-105l-176 -373h-285l201 427q-82 45 -126.5 120.5t-44.5 171.5q0 161 110.5 262t298.5 101h408zM352 710q0 -57 34.5 -95.5t88.5 -38.5h130v273h-131q-53 0 -87.5 -40.5t-34.5 -98.5z"/>
    <glyph glyph-name="afii10099" unicode="ђ" horiz-adv-x="1008" d="M579 1189h-200v-202q92 115 226 115q148 0 225 -104t78 -310v-721q0 -194 -89 -299t-247 -105q-67 0 -123 17l12 231q43 -13 80 -13q83 0 83 176v709q0 98 -29.5 140t-95.5 42q-77 0 -120 -71v-794h-283v1189h-124v183h124v164h283v-164h200v-183z"/>
    <glyph glyph-name="afii10101" unicode="є" horiz-adv-x="930" d="M489 215q60 0 92.5 43t33.5 117h265q0 -168 -109 -281.5t-276 -113.5q-201 0 -315.5 147.5t-114.5 407.5v19q0 255 115 401.5t314 146.5q176 0 281 -116t105 -308h-265q-2 90 -35 139.5t-91 49.5q-64 0 -99.5 -56.5t-40.5 -193.5h210v-178h-209q8 -123 42 -173.5 t97 -50.5z"/>
    <glyph glyph-name="afii10106" unicode="љ" horiz-adv-x="1517" d="M912 1082v-340h145q188 0 298.5 -101t110.5 -269q0 -167 -109.5 -269.5t-300.5 -102.5h-428v846h-158l-16 -334q-15 -263 -93 -386t-232 -126h-91l-3 236l32 4q57 8 84 83t35 246l19 513h707zM912 508v-275h148q59 0 91.5 38.5t32.5 102.5q0 134 -133 134h-139z"/>
    <glyph glyph-name="afii10107" unicode="њ" horiz-adv-x="1522" d="M386 664h249v418h283v-340h145q188 0 298.5 -101t110.5 -269q0 -167 -109.5 -269.5t-300.5 -102.5h-427v430h-249v-430h-284v1082h284v-418zM918 508v-275h148q59 0 91.5 38.5t32.5 102.5q0 134 -133 134h-139z"/>
    <glyph glyph-name="afii10108" unicode="ћ" horiz-adv-x="1017" d="M593 1201h-214v-214q92 115 226 115q148 0 225 -104t78 -310v-688h-284v685q0 95 -29.5 137.5t-95.5 42.5q-77 0 -120 -71v-794h-283v1201h-110v183h110v152h283v-152h214v-183z"/>
    <glyph glyph-name="afii10193" unicode="џ" horiz-adv-x="1023" d="M386 1082v-847h251v847h283v-1082h-268v-359h-282v359h-268v1082h284z"/>
    <glyph glyph-name="uni0460" unicode="Ѡ" horiz-adv-x="1689" d="M1572 1456v-991q0 -149 -54.5 -260t-154 -168.5t-228.5 -57.5q-192 0 -295 149q-105 -149 -294 -149q-197 0 -316 127.5t-122 349.5v1000h296v-986q0 -247 142 -247q143 0 147 230v1003h296v-989q0 -128 39.5 -186t106.5 -58q139 0 143 230v1003h294z"/>
    <glyph glyph-name="uni0461" unicode="ѡ" horiz-adv-x="1437" d="M1374 1082v-645q-3 -215 -105 -336.5t-280 -121.5q-166 0 -255 131q-95 -131 -262 -131q-176 0 -278 123t-105 334v646h285v-658q4 -210 98 -210q118 0 122 215v653h284v-634q0 -123 26.5 -178.5t84.5 -55.5q98 0 102 211v657h283z"/>
    <glyph glyph-name="afii10194" unicode="ѣ" horiz-adv-x="1010" d="M607 1082h-203v-290h144q191 0 300.5 -108t109.5 -287q0 -180 -110 -288.5t-301 -108.5h-427v1082h-122v184h122v295h284v-295h203v-184zM404 557v-324h148q59 0 91.5 43.5t32.5 120.5q0 73 -32 116t-89 44h-151z"/>
    <glyph glyph-name="uni0464" unicode="Ѥ" horiz-adv-x="1576" d="M399 860h124q18 284 157 450.5t361 166.5q223 0 354 -137t148 -378h-293q-7 145 -56 206t-153 61q-106 0 -159 -90t-61 -279h342v-235h-343q4 -210 55.5 -303.5t162.5 -93.5q104 0 153 61t57 197h294q-13 -237 -148.5 -371t-355.5 -134q-232 0 -368.5 173.5t-148.5 470.5 h-122v-625h-293v1456h293v-596z"/>
    <glyph glyph-name="uni0465" unicode="ѥ" horiz-adv-x="1342" d="M391 634h84q20 223 132 345.5t293 122.5q178 0 282 -116.5t104 -307.5h-264q-2 90 -35 139.5t-92 49.5q-65 0 -99 -56.5t-39 -176.5h242v-183h-243q5 -128 39.5 -182t100.5 -54q60 0 92.5 43t33.5 117h264q0 -112 -50 -202.5t-139 -141.5t-196 -51q-183 0 -295.5 124.5 t-130.5 346.5h-84v-451h-284v1082h284v-448z"/>
    <glyph glyph-name="uni0466" unicode="Ѧ" horiz-adv-x="1200" d="M761 418h-38v-418h-242v418h-32l-112 -418h-308l426 1456h305l423 -1456h-309zM506 628h199l-100 370z"/>
    <glyph glyph-name="uni0467" unicode="ѧ" horiz-adv-x="1015" d="M625 268h-38v-268h-182v268h-28l-68 -268h-288l334 1082h292l335 -1082h-287zM426 457h150l-54 208l-22 106l-21 -106z"/>
    <glyph glyph-name="uni0468" unicode="Ѩ" horiz-adv-x="1672" d="M419 626h254l242 830h305l424 -1456h-308l-113 418h-40v-418h-242v418h-31l-112 -418h-308l122 419h-193v-419h-295v1456h295v-830zM967 628h200l-100 370z"/>
    <glyph glyph-name="uni0469" unicode="ѩ" horiz-adv-x="1431" d="M394 456h186l194 626h292l334 -1082h-288l-69 268h-38v-268h-182v268h-28l-68 -268h-288l83 269h-128v-269h-283v1082h283v-626zM844 457h150l-54 208l-21 106l-22 -106z"/>
    <glyph glyph-name="uni046A" unicode="Ѫ" horiz-adv-x="1571" d="M1050 798q211 -13 313.5 -123t105.5 -326v-349h-293v337q0 114 -41 164.5t-136 51.5h-53v-553h-294v553h-74q-98 0 -139.5 -48.5t-43.5 -158.5v-346h-293v349q3 225 115 336t339 115l-313 656h1121zM804 890l134 318h-268z"/>
    <glyph glyph-name="uni046B" unicode="ѫ" horiz-adv-x="1319" d="M103 0v192q2 193 83 295.5t248 121.5l-228 473h922l-229 -474q160 -23 236 -125.5t80 -281.5v-201h-282v192q-1 106 -31 152.5t-97 46.5v-391h-283v391h-5q-72 0 -101 -45t-31 -148v-198h-282zM667 671l82 219h-165z"/>
    <glyph glyph-name="uni046C" unicode="Ѭ" horiz-adv-x="2083" d="M615 0v343q1 128 37 222h-227v-565h-295v1456h295v-653h643l-311 653h1121l-314 -658q214 -13 316 -126.5t103 -330.5v-341h-294v337q0 114 -41 165t-140 51h-48v-553h-294v553h-75q-98 0 -139 -48.5t-43 -157.5v-347h-294zM1318 891l134 317h-268z"/>
    <glyph glyph-name="uni046D" unicode="ѭ" horiz-adv-x="1814" d="M597 0v182q0 130 34 217h-224v-399h-283v1082h283v-468h519l-226 468h922l-228 -475q159 -23 236.5 -125t80.5 -285v-197h-284v192q-1 106 -31 152.5t-97 46.5v-391h-282v391h-6q-71 0 -100 -45t-31 -148v-198h-283zM1161 671l83 219h-166z"/>
    <glyph glyph-name="uni046E" unicode="Ѯ" horiz-adv-x="924" d="M480 1048q0 165 -164 165h-203v243h203q218 0 333 -98t115 -282q0 -238 -193 -329q113 -43 173.5 -128.5t60.5 -210.5q0 -198 -109.5 -312t-302.5 -117h-57q-78 -2 -78 -94q0 -98 115 -155l-79 -178q-142 34 -216.5 128.5t-76.5 246.5q0 139 82 217t238 78h46 q72 0 113.5 49t41.5 133q0 219 -205 219h-119v244h124q158 0 158 181zM414 1786l116 142h240v-11l-268 -281h-175l-268 283v9h240z"/>
    <glyph glyph-name="uni046F" unicode="ѯ" horiz-adv-x="914" d="M478 757q0 113 -152 113h-209v212h223q206 -2 313.5 -79t107.5 -218q0 -170 -152 -244q193 -68 193 -237q0 -152 -105 -238.5t-289 -86.5h-42q-93 -2 -93 -94q0 -98 99 -155l-80 -162q-119 42 -190 137t-73 222q0 124 73.5 192.5t208.5 70.5h55q75 0 114 35.5t39 89.5 q0 132 -173 132h-135v180h145q122 0 122 130zM422 1398l116 142h240v-11l-268 -281h-176l-267 282v10h239z"/>
    <glyph glyph-name="afii10147" unicode="Ѳ" horiz-adv-x="1231" d="M1155 695q0 -214 -65.5 -376t-187.5 -250.5t-279 -88.5q-155 0 -277 87t-189 248t-68 371v73q0 215 66.5 378.5t188 251t277.5 87.5t277.5 -87t189 -251t67.5 -377v-66zM856 640h-469q8 -201 69 -306.5t167 -105.5t165.5 105.5t67.5 306.5zM621 1226q-106 0 -166 -102.5 t-68 -300.5h468q-8 198 -68.5 300.5t-165.5 102.5z"/>
    <glyph glyph-name="afii10195" unicode="ѳ" horiz-adv-x="1012" d="M70 551q0 252 119 401.5t317 149.5q199 0 319 -149t120 -410v-13q0 -251 -118 -400.5t-319 -149.5q-192 0 -309 136.5t-128 370.5zM506 867q-132 0 -151 -238h303q-19 238 -152 238zM508 215q132 0 150 231h-303q18 -231 153 -231z"/>
    <glyph glyph-name="afii10148" unicode="Ѵ" horiz-adv-x="1160" d="M573 395l14 -72l163 797q52 190 129 272t197 82l39 -1l-3 -254h-31q-61 -4 -75 -114l-267 -1105h-304l-410 1456h311z"/>
    <glyph glyph-name="afii10196" unicode="ѵ" horiz-adv-x="927" d="M450 342l65 424q43 162 118.5 249t195.5 87q56 0 90 -18l-22 -231q-6 4 -39 4t-57.5 -30.5t-30.5 -74.5l-183 -752h-271l-287 1082h296l113 -661z"/>
    <glyph glyph-name="uni047A" unicode="Ѻ" horiz-adv-x="1231" d="M1155 695q0 -294 -120.5 -483t-323.5 -224v-123h-188v125q-198 39 -315.5 227t-118.5 475v67q0 288 116.5 477t315.5 230v109h188v-107q207 -38 326 -228t120 -478v-67zM857 761q0 179 -38 290t-110 152v-92h-188v85q-131 -90 -135 -417v-84q0 -171 35.5 -281.5 t101.5 -155.5v80h188v-87q133 79 145 386z"/>
    <glyph glyph-name="uni047B" unicode="ѻ" horiz-adv-x="1017" d="M71 551q0 226 97.5 372t264.5 173v107h156v-108q166 -31 261.5 -175.5t95.5 -389.5q0 -225 -97 -371t-265 -173v-109h-157v110q-166 29 -261 174.5t-95 373.5v16zM584 240q77 63 79 279v32q0 215 -74 285v-84h-156v89q-76 -66 -79 -275v-36q0 -219 73 -285v97h157v-102z "/>
    <glyph glyph-name="uni047C" unicode="Ѽ" horiz-adv-x="1690" d="M1118 1456q195 0 313.5 -128t123.5 -350v-505q0 -231 -119.5 -362.5t-317.5 -131.5q-183 0 -286 137q-103 -137 -286 -137q-195 0 -314 127t-124 349v505q0 230 119 363t319 133v-245q-142 0 -142 -255v-483q0 -250 142 -250q141 0 147 224v368h278v-368q6 -224 147 -224 q64 0 103 59.5t39 190.5v487q0 131 -38.5 191t-103.5 60v245zM1210 1708v-134h-18q-74 0 -144.5 22t-194.5 78q-44 20 -76 20q-31 0 -52.5 -24t-21.5 -96h-123v34q0 220 193 220q47 0 94.5 -19t99 -42t107.5 -41t136 -18zM713 1335q55 82 57 143v103h160v-102 q0 -52 -43.5 -111.5t-94.5 -89.5z"/>
    <glyph glyph-name="uni047D" unicode="ѽ" horiz-adv-x="1425" d="M915 1099q185 0 295 -124.5t110 -342.5v-189q0 -214 -101 -339t-274 -125q-150 0 -234 134q-84 -134 -233 -134q-171 0 -272 121.5t-103 334.5v199q0 216 110 340.5t295 124.5v-235q-122 0 -122 -236v-185q0 -120 25 -174.5t67 -54.5q96 0 99 221v172h269v-182 q5 -211 99 -211q92 0 92 236v184q0 120 -33.5 175t-88.5 55v235zM1099 1370v-134h-20q-74 0 -141 20.5t-193 77.5q-49 22 -81 22q-30 0 -51.5 -23.5t-21.5 -96.5h-124v33q0 221 195 221q47 0 93.5 -19l96.5 -41.5t106 -41t141 -18.5zM611 1004q55 82 57 143v103h160v-102 q0 -52 -43.5 -111.5t-94.5 -89.5z"/>
    <glyph glyph-name="uni047E" unicode="Ѿ" horiz-adv-x="1689" d="M1572 1456v-991q0 -149 -54.5 -260t-154 -168.5t-228.5 -57.5q-192 0 -295 149q-105 -149 -294 -149q-197 0 -316 127.5t-122 349.5v1000h296v-986q0 -247 142 -247q143 0 147 230v1003h296v-989q0 -128 39.5 -186t106.5 -58q139 0 143 230v1003h294zM456 1687v134h773 l1 -134h-308v-127h-173v127h-293z"/>
    <glyph glyph-name="uni047F" unicode="ѿ" horiz-adv-x="1437" d="M1374 1082v-645q-3 -215 -105 -336.5t-280 -121.5q-166 0 -255 131q-95 -131 -262 -131q-176 0 -278 123t-105 334v646h285v-658q4 -210 98 -210q118 0 122 215v653h284v-634q0 -123 26.5 -178.5t84.5 -55.5q98 0 102 211v657h283zM378 1322v135h712l6 -135h-284v-127 h-171v127h-263z"/>
    <glyph glyph-name="uni0480" unicode="Ҁ" horiz-adv-x="1108" d="M753 -360h-294v351q-173 38 -273.5 197t-100.5 393v295q0 175 59 312.5t167.5 213t247.5 75.5q226 0 347.5 -129.5t119.5 -377.5h-294q4 137 -35.5 199.5t-137.5 62.5q-85 0 -132.5 -92t-47.5 -264v-298q0 -165 47 -259.5t135 -95.5h192v-583z"/>
    <glyph glyph-name="uni0481" unicode="ҁ" horiz-adv-x="967" d="M697 -364h-284v355q-153 36 -240 178.5t-87 361.5v23q0 248 114.5 398t312.5 150q173 0 277 -114.5t104 -309.5h-265q0 90 -30.5 139.5t-85.5 49.5q-132 0 -143 -261l-1 -80q0 -164 36.5 -238t108.5 -74h183v-578z"/>
    <glyph glyph-name="uni0482" unicode="҂" horiz-adv-x="1120" d="M532 449l243 -172l-66 -128l-244 170l-151 -319h-158l189 398l-243 171l65 128l246 -171l164 360l-243 171l66 130l245 -171l150 326h156l-188 -405l246 -171l-69 -127l-242 170z"/>
    <glyph glyph-name="uni0483" unicode="҃" horiz-adv-x="0" d="M-592 1312v-126l-168 1l1 238h469l-1 108l169 -1v-220h-470z"/>
    <glyph glyph-name="uni0484" unicode="҄" horiz-adv-x="0" d="M-292 1557q201 0 201 -221v-33h-128q0 73 -22 96.5t-54 23.5q-33 0 -76.5 -19l-99.5 -42.5t-115.5 -40.5t-126.5 -18h-29v134q76 0 125.5 13t140 52t121.5 47t63 8z"/>
    <glyph glyph-name="uni0485" unicode="҅" horiz-adv-x="0" d="M-495 1500v144h175l-1 -162l47 -108l-75 -68z"/>
    <glyph glyph-name="uni0486" unicode="҆" horiz-adv-x="0" d="M-409 1306l-76 68l48 108l-1 162h174v-144z"/>
    <glyph glyph-name="uni0488" unicode="҈" horiz-adv-x="0" d="M-738 1267q0 84 57.5 136t152.5 52t153 -52t58 -136h-112q0 46 -25.5 73.5t-73.5 27.5q-46 0 -71.5 -26.5t-25.5 -74.5h-113zM-147 990q0 84 58 136t151 52q95 0 153.5 -51.5t58.5 -136.5h-113q0 49 -26.5 75t-72.5 26q-44 0 -69.5 -26.5t-25.5 -74.5h-114zM39 487 q0 85 58.5 136.5t151.5 51.5q95 0 153 -52t58 -136h-112q0 49 -26.5 75t-72.5 26t-71.5 -27.5t-25.5 -73.5h-113zM-157 -32q0 84 58 136t151 52q95 0 153 -52t58 -136h-112q0 49 -26.5 75t-72.5 26q-45 0 -70.5 -27.5t-25.5 -73.5h-113zM-733 -316q0 84 57.5 136t152.5 52 t153 -52t58 -136h-112q0 46 -25.5 73.5t-73.5 27.5q-46 0 -71.5 -27.5t-25.5 -73.5h-113zM-1311 990q0 84 58 136t153 52t153 -52t58 -136h-112q0 46 -25.5 73.5t-73.5 27.5q-46 0 -71.5 -26.5t-25.5 -74.5h-114zM-1487 487q0 85 58.5 136.5t151.5 51.5q95 0 153 -52 t58 -136h-112q0 49 -26.5 75t-72.5 26t-71.5 -27.5t-25.5 -73.5h-113zM-1321 -32q0 85 58.5 136.5t151.5 51.5q95 0 153.5 -51.5t58.5 -136.5h-113q0 49 -26.5 75t-72.5 26q-45 0 -70.5 -26.5t-25.5 -74.5h-114z"/>
    <glyph glyph-name="uni0489" unicode="҉" horiz-adv-x="0" d="M-396 -60l11 -14l-122 -339h-96l70 353h137zM-591 1126l-12 14l122 338h96l-70 -352h-136zM87 631l13 12l333 -124v-98l-346 71v139zM-1077 433l-13 -12l-333 124v98l346 -71v-139zM-153 1002l2 16l321 153l68 -68l-294 -200zM-837 21l-2 -17l-320 -153l-69 69l294 200z M-977 860l-17 2l-148 326l65 69l198 -299zM-15 161l17 -2l149 -325l-66 -71l-197 299z"/>
    <glyph glyph-name="uni048D" unicode="ҍ" horiz-adv-x="1010" d="M607 1272h-203v-480h144q191 0 300.5 -108t109.5 -287q0 -180 -110 -288.5t-301 -108.5h-427v1272h-122v184h122v158h284v-158h203v-184zM404 557v-324h148q59 0 91.5 43.5t32.5 120.5q0 73 -32 116t-89 44h-151z"/>
    <glyph glyph-name="uni048E" unicode="Ҏ" horiz-adv-x="1123" d="M412 512v-512h-294v1456h496q216 0 344.5 -134t128.5 -348q0 -209 -121 -332l104 -132l-94 -90l-115 145q-104 -53 -247 -53h-202zM778 879q12 40 12 93q0 109 -47 173.5t-126 65.5h-205v-454h202q49 0 81 16l-109 139l95 90z"/>
    <glyph glyph-name="uni048F" unicode="ҏ" horiz-adv-x="1010" d="M946 532q0 -261 -102 -411l89 -118l-98 -88l-83 112q-72 -47 -161 -47q-126 0 -205 93v-489h-283v1498h262l8 -85q82 105 216 105q168 0 262.5 -145.5t94.5 -424.5zM664 553q0 154 -38.5 233t-112.5 79q-88 0 -127 -84v-485q38 -81 129 -81q44 0 75 29l-99 135l96 88 l65 -87q12 67 12 173z"/>
    <glyph glyph-name="afii10050" unicode="Ґ" horiz-adv-x="997" d="M945 1221h-13v-10h-522v-1211h-295v1456h548v374h282v-609z"/>
    <glyph glyph-name="afii10098" unicode="ґ" horiz-adv-x="845" d="M775 846h-392v-846h-284v1082h393v315h283v-551z"/>
    <glyph glyph-name="uni0494" unicode="Ҕ" horiz-adv-x="1010" d="M937 1211h-523v-374h126q249 0 383 -153t134 -435q0 -179 -57.5 -315t-163.5 -206t-253 -70v223q176 0 190 268l2 85q0 186 -56.5 275.5t-174.5 89.5h-130v-599h-294v1456h817v-245z"/>
    <glyph glyph-name="uni0495" unicode="ҕ" horiz-adv-x="963" d="M734 846h-351v-180h15q237 0 363 -129.5t126 -358.5q2 -143 -85 -274t-228 -190l-119 194q66 44 107.5 108t42.5 162q-4 250 -202 250h-20v-428h-284v1082h635v-236z"/>
    <glyph glyph-name="uni049C" unicode="Ҝ" horiz-adv-x="1201" d="M1187 1456l-311 -647l338 -809h-375l-187 589h-30v-227h-160v227h-51v-589h-295v1456h295v-587h51v257h160v-257h17l183 587h365z"/>
    <glyph glyph-name="uni049D" unicode="ҝ" horiz-adv-x="1105" d="M1085 1082l-241 -500l247 -582h-360l-107 397h-25v-169h-143v169h-51v-397h-283v1082h283v-406h51v190h143v-190h27l103 406h356z"/>
    <glyph glyph-name="uni04A0" unicode="Ҡ" horiz-adv-x="1470" d="M858 594h-128v-594h-294v1220h-395v236h689v-582h99l253 582h358l-357 -678l396 -778h-349z"/>
    <glyph glyph-name="uni04A1" unicode="ҡ" horiz-adv-x="1299" d="M762 397h-74v-397h-284v846h-332v236h616v-406h68l165 406h355l-286 -500l309 -582h-376z"/>
    <glyph glyph-name="uni04A4" unicode="Ҥ" horiz-adv-x="1718" d="M412 867h433v589h786v-235h-492v-1221h-294v623h-433v-623h-294v1456h294v-589z"/>
    <glyph glyph-name="uni04A5" unicode="ҥ" horiz-adv-x="1245" d="M383 649h249v433h544v-236h-261v-846h-283v415h-249v-415h-284v1082h284v-433z"/>
    <glyph glyph-name="uni04A6" unicode="Ҧ" horiz-adv-x="1848" d="M1142 834h111q249 0 383 -153t134 -435q0 -182 -59.5 -319.5t-165.5 -204.5t-249 -67v223q176 0 190 268l2 85q0 186 -56.5 275.5t-174.5 89.5h-115v-596h-294v1211h-432v-1211h-294v1456h1020v-622z"/>
    <glyph glyph-name="uni04A7" unicode="ҧ" horiz-adv-x="1540" d="M917 673h59q243 0 375 -128.5t132 -358.5q2 -144 -86.5 -276t-226.5 -188l-119 194q149 99 149 270q-2 250 -223 250h-60v-436h-283v846h-251v-846h-284v1082h818v-409z"/>
    <glyph glyph-name="uni04A8" unicode="Ҩ" horiz-adv-x="1444" d="M1345 -13q-195 0 -350 67q-137 -75 -299 -75q-171 0 -309.5 88t-216 244.5t-77.5 347.5v213q0 170 57.5 309.5t161 217.5t232.5 78l-1 -255q-60 0 -98 -90t-40 -244v-229q0 -192 79.5 -309t211.5 -117l47 3q-171 196 -175 486v206q0 154 46.5 280t131 197t190.5 71 q176 0 288.5 -166.5t112.5 -442.5v-156q0 -274 -140 -473q67 -18 148 -18v-233zM845 732q0 -210 114 -346q80 127 83 313v213q0 162 -24.5 236t-81.5 74q-87 0 -91 -262v-228z"/>
    <glyph glyph-name="uni04A9" unicode="ҩ" horiz-adv-x="1172" d="M1108 -27q-172 0 -303 52q-107 -46 -227 -46q-215 0 -354.5 154t-139.5 405v89q0 206 105 340.5t272 134.5v-243q-78 -16 -78 -236v-95q0 -126 48 -211t133 -93q-79 130 -79 308v154q0 182 83.5 298.5t213.5 116.5q137 0 224 -129.5t87 -339.5v-141q0 -199 -117 -337 q60 -15 132 -15v-166zM692 516q0 -119 58 -209q59 78 61 194v157q0 86 -16 143.5t-44 57.5q-26 0 -42.5 -54t-16.5 -132v-157z"/>
    <glyph glyph-name="uni04B4" unicode="Ҵ" horiz-adv-x="1597" d="M315 1220h-264v236h810v-236h-252v-976h431v1212h296v-1213h178l-20 -594h-274v351h-905v1220z"/>
    <glyph glyph-name="uni04B5" unicode="ҵ" horiz-adv-x="1238" d="M228 846h-167v236h594v-236h-144v-611h251v847h283v-849h148l-20 -554h-262v321h-683v846z"/>
    <glyph glyph-name="uni04B8" unicode="Ҹ" horiz-adv-x="1221" d="M392 1456v-450q0 -111 31.5 -165t100.5 -68v286h158v-287q85 11 128 21v663h294v-1456h-294v549q-43 -10 -128 -21v-233h-158v230q-206 17 -314.5 136.5t-111.5 333.5v461h294z"/>
    <glyph glyph-name="uni04B9" unicode="ҹ" horiz-adv-x="1007" d="M909 0h-283v334l-50 -7v-150h-158v155q-323 52 -323 415v335h284v-342q0 -109 39 -148v237h158v-268l50 10v511h283v-1082z"/>
    <glyph glyph-name="uni04BA" unicode="Һ" horiz-adv-x="1261" d="M84 0v1456h294v-550q117 27 220 27q238 0 363 -120t130 -346v-467h-295v451q0 128 -43.5 183t-154.5 55q-107 0 -220 -26v-663h-294z"/>
    <glyph glyph-name="uni04BC" unicode="Ҽ" horiz-adv-x="1348" d="M836 -23q-270 0 -422 168t-152 470v36q-132 26 -203 140t-71 291h193q0 -157 81 -205q3 169 69.5 306.5t184 215t258.5 76.5q229 0 355 -179t126 -512v-158h-700v-19q0 -182 71.5 -274t209.5 -92q165 0 297 63l45 -250q-43 -31 -141 -54t-201 -23zM774 1209 q-103 0 -161 -94.5t-58 -243.5h406v31q0 307 -187 307z"/>
    <glyph glyph-name="uni04BD" unicode="ҽ" horiz-adv-x="1072" d="M667 -20q-199 0 -324.5 133.5t-136.5 351.5q-126 30 -191.5 133t-65.5 264h173q0 -150 91 -199q27 203 140.5 321t284.5 118q197 0 304.5 -141t107.5 -395v-120h-560q13 -112 64.5 -171.5t131.5 -59.5q134 0 209 120l136 -160q-51 -90 -148.5 -142.5t-215.5 -52.5z M637 867q-127 0 -145 -223h280v23q-5 200 -135 200z"/>
    <glyph glyph-name="uni04C3" unicode="Ӄ" horiz-adv-x="1175" d="M739 822q190 -36 290 -185t100 -392q0 -179 -60 -317.5t-168 -208t-255 -69.5l-1 231q181 0 188 280l1 67q1 184 -54 272t-166 88h-203v-588h-295v1456h295v-584h65l261 584h364z"/>
    <glyph glyph-name="uni04C4" unicode="ӄ" horiz-adv-x="1043" d="M710 597q134 -51 203.5 -163.5t69.5 -278.5q2 -140 -85 -270.5t-228 -187.5l-120 194q150 95 150 264q-2 228 -195 242h-100v-397h-283v1082h283v-406h58l175 406h356z"/>
    <glyph glyph-name="uni04C7" unicode="Ӈ" horiz-adv-x="1260" d="M414 1456v-618h430v618h296v-1479q0 -200 -91 -307t-253 -107q-70 0 -130 17l12 240q42 -12 83 -12q83 0 83 171v615h-430v-594h-294v1456h294z"/>
    <glyph glyph-name="uni04C8" unicode="ӈ" horiz-adv-x="1017" d="M383 1082v-433h249v433h283v-1122q-2 -191 -90.5 -294t-245.5 -103q-70 0 -126 17l12 231q43 -13 83 -13q84 0 84 178v439h-249v-415h-284v1082h284z"/>
    <glyph glyph-name="uni04D8" unicode="Ә" horiz-adv-x="1231" d="M523 1476q286 0 449 -179.5t163 -505.5v-141q0 -193 -70.5 -347t-195 -239.5t-268.5 -83.5q-253 0 -391 177t-140 500v171h769q-5 189 -85.5 286t-230.5 97q-170 0 -315 -63l-44 250q44 32 146 55t213 23zM601 244q99 0 162 90.5t74 247.5h-474v-31q0 -307 238 -307z"/>
    <glyph glyph-name="uni04E0" unicode="Ӡ" horiz-adv-x="1037" d="M619 1211h-479v245h816l1 -201l-298 -387q155 -35 240.5 -151.5t85.5 -308.5q0 -197 -127.5 -313t-339.5 -116q-89 0 -172 28.5t-144 87.5q-123 115 -123 309h295q0 -79 40 -130t104 -51q78 0 126 52t48 138q0 144 -55 206.5t-160 62.5h-117v188z"/>
    <glyph glyph-name="uni04E1" unicode="ӡ" horiz-adv-x="1039" d="M948 1082l1 -193l-299 -397q158 -33 244 -149.5t86 -309.5q0 -195 -126 -311.5t-337 -116.5q-123 0 -223.5 51.5t-156 147t-55.5 225.5h284q0 -83 42.5 -136t108.5 -53q80 0 130 54.5t50 143.5q0 145 -53.5 208t-160.5 63h-124v184l258 353h-483v236h814z"/>
    <glyph glyph-name="uni04FA" unicode="Ӻ" horiz-adv-x="1091" d="M1026 1211h-523v-1211h-294v1456h817v-245zM665 665h-607v183h607v-183zM764 261v-305q-3 -189 -91.5 -291t-245.5 -102q-69 0 -125 17l12 233q39 -12 82 -12q81 0 83 158v302h285z"/>
    <glyph glyph-name="uni04FB" unicode="ӻ" horiz-adv-x="769" d="M817 846h-351v-846h-283v1082h634v-236zM648 489h-607v183h607v-183zM695 254v-305q-3 -189 -91.5 -291t-245.5 -102q-69 0 -125 17l12 233q39 -12 82 -12q81 0 83 158v302h285z"/>
    <glyph glyph-name="uni0500" unicode="Ԁ" horiz-adv-x="1149" d="M739 962v494h296v-1456h-473q-215 0 -347 134t-132 348q0 210 129 343t338 137h189zM739 244v473h-177q-80 0 -132 -64t-52 -169q0 -107 51.5 -173.5t132.5 -66.5h177z"/>
    <glyph glyph-name="uni0502" unicode="Ԃ" horiz-adv-x="1660" d="M605 0q-140 0 -249 60t-169 171t-60 251q0 210 128.5 343t337.5 137h189v494h295v-1212h42q133 3 145 265q0 105 -14 221t-37 191h288q21 -74 40 -202.5t17 -209.5q-5 -244 -119.5 -376t-315.5 -133h-518zM782 244v473h-177q-82 0 -133 -64.5t-51 -168.5q0 -105 50 -172 t132 -68h179z"/>
    <glyph glyph-name="uni0503" unicode="ԃ" horiz-adv-x="1507" d="M90 534q0 263 96 415.5t262 152.5q109 0 186 -92v550h283v-1182q0 -75 22.5 -118t60.5 -43q73 2 112 85t41 227q4 199 -49 403h276q23 -98 40.5 -199t15.5 -204q-2 -168 -57 -291.5t-154.5 -191t-224.5 -67.5q-228 -4 -314 168q-88 -168 -239 -168q-165 0 -261 143 t-96 412zM634 802q-46 63 -112 63q-73 0 -110.5 -83.5t-37.5 -268.5q0 -152 36.5 -225t110.5 -73q79 0 122 68q-9 47 -9 103v416z"/>
    <glyph glyph-name="uni0504" unicode="Ԅ" horiz-adv-x="1395" d="M181 593v248h156q105 0 151 48t46 153q0 163 -164 166h-292v248h290q224 -1 341.5 -106.5t117.5 -309.5q0 -235 -242 -333q245 -59 252 -304v-83q-1 -40 10 -67t30 -27q64 2 97.5 82.5t36.5 220.5q4 192 -49 403h288q34 -160 45.5 -241t10.5 -162q-2 -169 -59.5 -293.5 t-158.5 -190.5t-228 -66q-149 -4 -229 80.5t-88 260.5v73q-2 88 -41.5 143t-103.5 57h-217z"/>
    <glyph glyph-name="uni0505" unicode="ԅ" horiz-adv-x="1146" d="M702 260q-2 -96 38 -96q45 2 70.5 69t28.5 186q2 153 -49 319h275q34 -122 46.5 -188t10.5 -131q-4 -207 -105 -326.5t-262 -119.5q-165 -4 -245.5 54t-90.5 187v73q0 101 -66 101h-222l-2 222h157q98 4 98 110q0 124 -97 126h-224l-5 236h230q183 -1 281.5 -85.5 t98.5 -237.5q0 -152 -135 -226q168 -46 169 -225v-48z"/>
    <glyph glyph-name="uni0506" unicode="Ԇ" horiz-adv-x="1068" d="M113 575l-1 235h213q177 0 177 199q0 100 -44.5 156t-125.5 56h-259l-6 235h261q216 0 336 -114t120 -318q0 -223 -195 -326q201 -70 205 -335v-111h220l-1 -201q-1 -110 -51 -224t-129 -189l-146 79l36 81q47 107 53 202h-213q-50 47 -52 220v123q0 232 -168 232h-230z "/>
    <glyph glyph-name="uni0507" unicode="ԇ" horiz-adv-x="1025" d="M150 383v203h215q59 0 91 33.5t32 90.5q0 59 -33.5 99t-90.5 40h-244l-8 233h254q122 0 215.5 -43.5t142.5 -122.5t49 -183q0 -157 -137 -243q146 -61 151 -251h205l-1 -202q-1 -108 -50.5 -222.5t-130.5 -189.5l-145 79l45 103q40 98 44 193h-225q-24 26 -25 150v82 q-2 150 -135 151h-219z"/>
    <glyph glyph-name="uni0508" unicode="Ԉ" horiz-adv-x="1700" d="M842 1208h-250l-20 -513q-12 -255 -57.5 -404.5t-133 -219.5t-235.5 -71h-72v244l34 3q91 11 130.5 115t50.5 350l20 744h828v-1059q0 -171 78 -171q68 1 104.5 82t38.5 221q4 196 -50 403h288q23 -103 40.5 -202.5t15.5 -200.5q-2 -167 -57.5 -291t-155 -191.5 t-224.5 -67.5q-185 0 -279 102t-94 298v829z"/>
    <glyph glyph-name="uni0509" unicode="ԉ" horiz-adv-x="1514" d="M649 843h-138l-15 -331q-15 -260 -93 -384.5t-232 -127.5h-91l-3 236l31 4q57 7 84 83.5t35 247.5l19 511h686v-704q0 -72 27 -116.5t75 -44.5q51 1 79 73t30 198q4 189 -49 381h276q23 -93 41 -188.5t17 -192.5q-2 -155 -52.5 -269.5t-140.5 -177t-201 -62.5 q-191 0 -288 100.5t-97 294.5v469z"/>
    <glyph glyph-name="uni050A" unicode="Ԋ" horiz-adv-x="1764" d="M1151 1456v-1082q0 -66 21 -107t56 -41q69 2 105.5 82.5t39.5 220.5q4 196 -50 403h288q38 -167 48 -249t9 -154q-2 -167 -57.5 -290.5t-156.5 -191.5t-226 -68q-174 -4 -268 96.5t-103 304.5v214h-447v-594h-295v1456h295v-618h447v618h294z"/>
    <glyph glyph-name="uni050B" unicode="ԋ" horiz-adv-x="1460" d="M633 425h-263v-425h-283v1082h283v-420h263v420h283v-706q-2 -72 26 -115.5t75 -43.5q52 2 80.5 73.5t30.5 197.5q4 182 -49 381h275q25 -105 41.5 -197t15.5 -184q-2 -155 -52.5 -270t-140 -177t-201.5 -62q-365 -8 -384 397v49z"/>
    <glyph glyph-name="uni050C" unicode="Ԍ" horiz-adv-x="1136" d="M610 -21q-156 0 -281 79t-194 218t-71 311v272q0 176 69.5 318t195 221t281.5 79q192 0 309 -89l-60 -227q-111 68 -249 68q-113 0 -181.5 -105t-68.5 -269v-258q0 -161 68.5 -266t181.5 -105q81 2 123 58.5t45 157.5q2 148 -42 344h286l35 -173q17 -84 15 -171 q-2 -143 -61.5 -248.5t-164 -160t-236.5 -54.5z"/>
    <glyph glyph-name="uni050D" unicode="ԍ" horiz-adv-x="958" d="M538 217q44 1 59 31t17 83q0 112 -15 206h276q23 -145 22 -206q-4 -169 -100 -260.5t-259 -91.5q-210 0 -339.5 153t-129.5 400v30q0 151 56.5 276t159.5 194.5t235 69.5q159 0 242 -66l-43 -230q-82 58 -199 58q-76 0 -122 -85t-46 -225v-34q0 -135 49.5 -219t136.5 -84 z"/>
    <glyph glyph-name="uni050E" unicode="Ԏ" horiz-adv-x="1253" d="M387 1208h-341v248h968v-248h-334v-828q-1 -68 20 -111t58 -43q68 2 105 82.5t39 220.5q4 192 -49 403h287q23 -98 40.5 -199t15.5 -204q-2 -168 -58.5 -293t-156 -191t-223.5 -66q-176 -4 -270 97.5t-101 303.5v828z"/>
    <glyph glyph-name="uni050F" unicode="ԏ" horiz-adv-x="1137" d="M303 846h-227v236h761v-236h-251v-470q0 -73 27 -116t71 -43q52 2 80.5 56t30.5 152q4 147 -49 288h276l26 -84q34 -118 32 -204q-4 -203 -113.5 -324.5t-282.5 -121.5q-362 -8 -381 397v470z"/>
    <glyph glyph-name="uni0510" unicode="Ԑ" horiz-adv-x="1169" d="M102 408q0 126 58 212t165 128q-98 49 -151.5 132t-53.5 181q0 196 132 306t363 110q200 0 332.5 -117t132.5 -299h-295q0 76 -48.5 123.5t-121.5 47.5q-91 0 -144.5 -48t-53.5 -129q0 -189 171 -194h179v-237h-170q-98 0 -149 -49t-51 -162q0 -85 59.5 -137.5 t158.5 -52.5q82 0 134.5 52.5t52.5 128.5h295q0 -130 -61.5 -225.5t-173.5 -147.5t-247 -52q-233 0 -373 116t-140 313z"/>
    <glyph glyph-name="glyph346" horiz-adv-x="744" d="M364 1179l88 316h202v-21l-205 -319h-85v24zM98 1495h163v-105q3 -115 60 -168l-79 -87q-63 35 -103.5 103.5t-40.5 161.5v95z"/>
    <glyph glyph-name="uni2000" unicode=" " horiz-adv-x="917"/>
    <glyph glyph-name="uni2001" unicode=" " horiz-adv-x="1795"/>
    <glyph glyph-name="uni2002" unicode=" " horiz-adv-x="917"/>
    <glyph glyph-name="uni2003" unicode=" " horiz-adv-x="1795"/>
    <glyph glyph-name="uni2004" unicode=" " horiz-adv-x="625"/>
    <glyph glyph-name="uni2005" unicode=" " horiz-adv-x="478"/>
    <glyph glyph-name="uni2006" unicode=" " horiz-adv-x="332"/>
    <glyph glyph-name="uni2007" unicode=" " horiz-adv-x="1007"/>
    <glyph glyph-name="uni2008" unicode=" " horiz-adv-x="510"/>
    <glyph glyph-name="uni2009" unicode=" " horiz-adv-x="391"/>
    <glyph glyph-name="uni200A" unicode=" " horiz-adv-x="216"/>
    <glyph glyph-name="uni200B" unicode="​" horiz-adv-x="0"/>
    <glyph glyph-name="uni2010" unicode="‐" horiz-adv-x="746" d="M612 506h-489v236h489v-236z"/>
    <glyph glyph-name="uni2011" unicode="‑" horiz-adv-x="746" d="M612 506h-489v236h489v-236z"/>
    <glyph glyph-name="endash" unicode="–" horiz-adv-x="1121" d="M1027.01 594h-876.009v238h876.009v-238z"/>
    <glyph glyph-name="emdash" unicode="—" horiz-adv-x="1352" d="M1289.98 594h-1167.98v238h1167.98v-238z"/>
    <glyph glyph-name="underscoredbl" unicode="‗" horiz-adv-x="805" d="M785 -491h-775v228h775v-228zM785 -228h-775v228h775v-228z"/>
    <glyph glyph-name="quoteleft" unicode="‘" horiz-adv-x="469" d="M274 1571l130 -79q-72 -143 -75 -274v-171h-221v155q1 88 43 187q46 107 123 182z"/>
    <glyph glyph-name="quoteright" unicode="’" horiz-adv-x="460" d="M197 1009l-130 79q71 141 74 274v174h222v-158q-1 -91 -47.5 -196.5t-118.5 -172.5z"/>
    <glyph glyph-name="quotesinglbase" unicode="‚" horiz-adv-x="502" d="M210 -305l-131 79q64 127 67 270v187h231l-1 -167q0 -87 -46 -192t-120 -177z"/>
    <glyph glyph-name="quotereversed" unicode="‛" horiz-adv-x="418" d="M297 1536v-159q0 -121 48 -231l26 -58l-130 -79q-71 67 -118.5 173.5t-47.5 198.5v155h222z"/>
    <glyph glyph-name="quotedblleft" unicode="“" horiz-adv-x="793" d="M283 1571l130 -79q-72 -143 -75 -274v-171h-221v155q1 88 43 187q46 107 123 182zM597 1571l130 -79q-72 -143 -75 -274v-171h-221v155q1 88 43 187q46 107 123 182z"/>
    <glyph glyph-name="quotedblright" unicode="”" horiz-adv-x="800" d="M211 1009l-130 79q71 141 74 274v174h222v-158q-1 -91 -47.5 -196.5t-118.5 -172.5zM530 1009l-130 79q71 141 74 274v174h222v-158q-1 -91 -47.5 -196.5t-118.5 -172.5z"/>
    <glyph glyph-name="quotedblbase" unicode="„" horiz-adv-x="790" d="M218 -325l-139 79q64 134 67 289v220h231l-1 -201q-1 -102 -46 -210t-112 -177zM527 -325l-138 79q71 148 74 291v218h230l-1 -200q-1 -110 -58 -231q-46 -96 -107 -157z"/>
    <glyph glyph-name="dagger" unicode="†" horiz-adv-x="962" d="M897 839h-277v-839h-283v839h-270v243h270v374h283v-374h277v-243z"/>
    <glyph glyph-name="daggerdbl" unicode="‡" horiz-adv-x="1043" d="M936 0h-274v-416h-285v416h-272v235h272v611h-272v236h272v374h285v-374h274v-236h-274v-611h274v-235z"/>
    <glyph glyph-name="bullet" unicode="•" horiz-adv-x="737" d="M135 766q0 100 64 165.5t173 65.5q108 0 173 -62.5t67 -163.5v-43q0 -102 -64.5 -165.5t-173.5 -63.5q-106 0 -171.5 62.5t-67.5 161.5v43z"/>
    <glyph glyph-name="twodotenleader" unicode="‥" horiz-adv-x="967" d="M128 144q0 68 45.5 112t118.5 44q71 0 118 -43.5t47 -112.5q0 -70 -47.5 -112.5t-117.5 -42.5q-71 0 -117.5 43t-46.5 112zM539 144q0 68 45.5 112t118.5 44q71 0 118 -43.5t47 -112.5q0 -70 -47.5 -112.5t-117.5 -42.5q-71 0 -117.5 43t-46.5 112z"/>
    <glyph glyph-name="ellipsis" unicode="…" horiz-adv-x="1358" d="M128 144q0 68 45.5 112t118.5 44q71 0 118 -43.5t47 -112.5q0 -70 -47.5 -112.5t-117.5 -42.5q-71 0 -117.5 43t-46.5 112zM539 144q0 68 45.5 112t118.5 44q71 0 118 -43.5t47 -112.5q0 -70 -47.5 -112.5t-117.5 -42.5q-71 0 -117.5 43t-46.5 112zM945 144 q0 68 45.5 112t118.5 44q71 0 118 -43.5t47 -112.5q0 -70 -47.5 -112.5t-117.5 -42.5q-71 0 -117.5 43t-46.5 112z"/>
    <glyph glyph-name="uni2027" unicode="‧" horiz-adv-x="500" d="M371 506h-249v236h249v-236z"/>
    <glyph glyph-name="perthousand" unicode="‰" horiz-adv-x="1681" d="M693 357q0 133 77 216.5t196 83.5q120 0 188 -96q68 96 187 96q120 0 196.5 -82.5t76.5 -224.5v-71q0 -132 -75 -215.5t-196 -83.5q-120 0 -189 95q-69 -95 -187 -95q-122 0 -198 84.5t-76 217.5v75zM90 1175q0 131 71.5 216t185.5 85q122 0 198 -84.5t76 -222.5v-70 q0 -131 -75.5 -215t-196.5 -84q-113 0 -186 83.5t-73 221.5v70zM424 109l-135 76l598 1138l134 -76zM878 279q0 -56 26.5 -94t62.5 -38q84 0 88 119v91q0 61 -25.5 96.5t-63.5 35.5q-88 0 -88 -153v-57zM1255 279q0 -56 26.5 -94t62.5 -38q84 0 88 119v91q0 61 -25.5 96.5 t-63.5 35.5q-39 0 -63.5 -36.5t-24.5 -98.5v-75zM260 1099q0 -58 24.5 -94.5t64.5 -36.5t63.5 37t23.5 97v73q0 59 -25 96t-64 37t-62.5 -35t-24.5 -95v-79z"/>
    <glyph glyph-name="guilsinglleft" unicode="‹" horiz-adv-x="582" d="M327 523l192 -399h-175l-233 390v19l233 390h175z"/>
    <glyph glyph-name="guilsinglright" unicode="›" horiz-adv-x="562" d="M260 923l233 -390v-19l-233 -390h-177l193 399l-193 400h177z"/>
    <glyph glyph-name="fraction" unicode="⁄" horiz-adv-x="808" d="M173 109l-134 76l597 1138l135 -76z"/>
    <glyph glyph-name="uni2074" unicode="⁴" horiz-adv-x="687" d="M550 991h64v-168h-64v-159h-197v159h-278l-12 136l290 494h197v-462zM248 991h105v201l-8 -13z"/>
    <glyph glyph-name="uni207F" unicode="ⁿ" horiz-adv-x="758" d="M248 1454l30 -119q61 131 180 131q211 0 217 -288v-524h-205v439q0 105 -22.5 147t-66.5 42q-62 0 -90 -65v-563h-205v800h162z"/>
    <glyph glyph-name="lira" unicode="₤" horiz-adv-x="1074" d="M746 468h-213l1 -30q-2 -123 -56 -194h534v-244h-906v244h74q49 15 54 125l1 52l-1 47h-128v160h123l-3 109h-120v160h116l-3 142q0 202 108 319t287 117q184 0 289.5 -112t105.5 -306h-279q0 84 -30.5 129t-86.5 45q-42 0 -71 -48t-29 -144l5 -142h228v-160h-223l4 -109 h219v-160z"/>
    <glyph glyph-name="uni20A6" unicode="₦" horiz-adv-x="1463" d="M1239 988h173v-160h-173v-162h173v-160h-173v-506h-295l-227 506h-202v-506h-294v506h-170v160h170v162h-170v160h170v468h294l210 -468h220v468h294v-468zM870 666h75v162h-148zM515 666h130l-73 162h-57v-162zM945 500v6h-3z"/>
    <glyph glyph-name="peseta" unicode="₧" horiz-adv-x="1536" d="M1425 869h-144v-537q0 -64 17.5 -88t67.5 -24q40 0 66 7l-1 -220q-72 -27 -157 -27q-274 0 -277 314v575h-68q-33 -172 -149.5 -263.5t-293.5 -91.5h-60v-514h-297v1456h357q187 0 305 -97.5t144 -276.5h62v266h284v-266h144v-213zM426 768h60q157 0 157 223 q0 211 -161 211h-56v-434z"/>
    <glyph glyph-name="uni20A8" unicode="₨" horiz-adv-x="1925" d="M558 532h-146v-532h-294v1456h469q221 0 341.5 -114.5t120.5 -325.5q0 -290 -211 -406l255 -596v-14h-316zM412 777h167q88 0 132 58.5t44 156.5q0 219 -171 219h-172v-434zM1576 290q0 36 -34.5 66.5t-153.5 82.5q-175 71 -240.5 147t-65.5 189q0 142 102.5 234.5 t271.5 92.5q178 0 285 -92t107 -247h-283q0 132 -110 132q-45 0 -74 -28t-29 -78q0 -36 32 -63.5t151 -78.5q173 -64 244.5 -142.5t71.5 -203.5q0 -145 -109 -233t-286 -88q-119 0 -210 46.5t-142.5 129.5t-51.5 179h269q2 -74 34.5 -111t106.5 -37q114 0 114 103z"/>
    <glyph glyph-name="uni20A9" unicode="₩" horiz-adv-x="1707" d="M1042 1088h184l56 368h292l-66 -368h141v-160h-170l-23 -130h193v-160h-221l-114 -638h-295l-126 638h-87l-125 -638h-295l-114 638h-213v160h184l-23 130h-161v160h132l-65 368h292l56 -368h184l69 368h246zM517 798h87l24 130h-130zM1096 798h87l19 130h-130zM1126 638 l18 -97l15 97h-33zM542 638l14 -96l18 96h-32zM850 859l-12 -61h24z"/>
    <glyph glyph-name="afii57636" unicode="₪" horiz-adv-x="1577" d="M785 1082q171 0 247 -89t78 -307v-321h-284v316q-1 88 -29 126.5t-105 38.5h-306v-846h-283v1082h682zM466 0v718h282v-483h305q78 0 106.5 37t30.5 123v687h283v-666q0 -192 -149.5 -304t-387.5 -112h-470z"/>
    <glyph glyph-name="Euro" unicode="€" horiz-adv-x="1036" d="M789 515h-260q4 -148 59.5 -220t168.5 -72q87 0 155 31l36 -244q-108 -29 -221 -29q-224 0 -355.5 141.5t-137.5 392.5h-137v153h137v124h-137v152h138q15 252 151.5 391.5t360.5 139.5q90 0 201 -31l-36 -245q-73 32 -149 32q-103 0 -163 -67.5t-69 -219.5h258v-152 h-260v-124h260v-153z"/>
    <glyph glyph-name="uni20B1" unicode="₱" horiz-adv-x="1364" d="M482 512v-512h-294v784h-137v160h137v62h-137v160h137v290h496q161 0 276 -77.5t164 -212.5h187v-160h-155l1 -32l-1 -30h155v-160h-186q-48 -129 -161 -200.5t-280 -71.5h-202zM859 972l-2 34h-375v-62h376zM482 1166h314q-43 45 -112 45h-202v-45zM783 784h-301v-27 h202q60 0 99 27z"/>
    <glyph glyph-name="uni20B9" unicode="₹" horiz-adv-x="970" d="M870 1256h-172q38 -70 50 -166h171l-50 -199h-122q-18 -144 -94 -234t-230 -126l357 -517v-14h-324l-402 566l-1 177h225q138 0 174 148h-402l50 199h349q-31 117 -149 121h-254l56 245h818z"/>
    <glyph glyph-name="uni20BA" unicode="₺" horiz-adv-x="1103" d="M1027 763v-70q0 -212 -66 -373.5t-189.5 -250.5t-279.5 -89q-143 0 -288 20v624l-156 -57v213l156 57v119l-156 -57v214l156 57v286h293v-179l157 57v-213l-157 -58v-119l157 58v-214l-157 -57v-503q114 2 173.5 117.5t60.5 340.5v77h296z"/>
    <glyph glyph-name="uni20BC" unicode="₼" horiz-adv-x="1225" d="M754 860q184 -54 292 -237.5t110 -447.5v-175h-282v162q0 305 -120 421v-583h-283v584q-120 -118 -120 -421v-163h-283v175q2 266 111 449.5t292 236.5v221h283v-222z"/>
    <glyph glyph-name="uni20BD" unicode="₽" horiz-adv-x="1284" d="M783 193h-253v-193h-294v193h-170v244h170v75h-170v245h170v699h494q216 0 345.5 -133t129.5 -345q0 -214 -127 -340t-354 -126h-194v-75h253v-244zM530 757h193q184 0 184 219q0 103 -47 168.5t-129 65.5h-201v-453z"/>
    <glyph glyph-name="afii61248" unicode="℅" horiz-adv-x="1304" d="M610 1065q0 -115 -68 -190t-186 -75q-116 0 -185 81t-69 223v72q0 137 68.5 219t183.5 82q118 0 187 -75t69 -193h-184q0 41 -19.5 70.5t-52.5 29.5q-68 0 -68 -146v-64q0 -61 19 -96t51 -35q30 0 50 27.5t20 69.5h184zM671 357q0 135 75 217.5t198 82.5q124 0 199 -81.5 t75 -223.5v-73q0 -134 -73 -216.5t-199 -82.5q-127 0 -201 83t-74 220v74zM856 279q0 -56 26.5 -94t63.5 -38q83 0 87 119v91q0 59 -24.5 95.5t-64.5 36.5q-88 0 -88 -153v-57zM408 109l-134 76l597 1138l134 -76z"/>
    <glyph glyph-name="afii61289" unicode="ℓ" horiz-adv-x="903" d="M655 -21q-226 0 -346.5 117t-120.5 347q-66 -10 -139 -10v187q77 0 139 13v408q0 141 42 245t118.5 157.5t181.5 53.5q136 0 222.5 -94.5t86.5 -256.5v-39q0 -149 -95 -303t-257 -253v-58q0 -128 40.5 -183.5t127.5 -55.5v-275zM487 815q99 128 99 300v34 q0 46 -14.5 74.5t-33.5 28.5q-51 0 -51 -175v-262z"/>
    <glyph glyph-name="afii61352" unicode="№" horiz-adv-x="1786" d="M1635 417h-504v148h504v-148zM1091 1112q0 158 82.5 259t214.5 101q133 0 215.5 -99.5t82.5 -266.5v-61q0 -159 -81.5 -259t-214.5 -100q-135 0 -217 100.5t-82 263.5v62zM1257 1045q0 -95 35.5 -154t97.5 -59q60 0 95 58t35 156v66q0 98 -36 155t-96 57q-59 0 -95 -57 t-36 -159v-63zM1005 0h-312l-292 943v-943h-285v1456h312l293 -944v944h284v-1456z"/>
    <glyph glyph-name="trademark" unicode="™" horiz-adv-x="1134" d="M873 1265l-84 -351h-65l-84 352v-352h-120v542h148l89 -367l97 367h139v-542h-120v351zM463 1348h-101v-431h-135v431h-108v108h344v-108z"/>
    <glyph glyph-name="estimated" unicode="℮" horiz-adv-x="1296" d="M1042 94q-183 -114 -370 -114q-145 0 -267 78.5t-189.5 207t-67.5 275.5q0 143 72 272.5t196 209t256 79.5q133 0 246.5 -69.5t179.5 -191t69 -265.5v-62h-768v-328q119 -110 273 -110q196 0 368 122zM672 1008q-151 0 -273 -122v-277h540v286q-115 113 -267 113z"/>
    <glyph glyph-name="oneeighth" unicode="⅛" horiz-adv-x="1396" d="M445 646h-197v547l-148 -41v159l327 121h18v-786zM410 109l-134 76l597 1138l135 -76zM1283 576q0 -115 -96 -170q110 -60 110 -188q0 -109 -70 -169t-193 -60q-122 0 -194 60t-72 169q0 127 111 188q-97 55 -97 170q0 106 68.5 165t181.5 59q116 0 183.5 -59.5 t67.5 -164.5zM1100 239q0 80 -68 80q-65 0 -65 -80q0 -40 18 -62.5t49 -22.5q66 0 66 85zM1085 562q0 73 -53 73q-51 0 -51 -73q0 -77 53 -77q51 0 51 77z"/>
    <glyph glyph-name="threeeighths" unicode="⅜" horiz-adv-x="1522" d="M262 1131h75q78 0 78 87q0 36 -19.5 56.5t-53.5 20.5q-27 0 -47 -15.5t-20 -44.5h-197q0 101 72.5 163t185.5 62q129 0 202.5 -60t73.5 -166q0 -119 -116 -169q128 -41 128 -184q0 -106 -80 -169t-209 -63q-121 0 -194.5 66.5t-73.5 180.5h199q0 -32 21.5 -57t60.5 -25 q43 0 60.5 26.5t17.5 61.5q0 90 -82 92h-82v137zM533 109l-134 76l597 1138l135 -76zM1411 576q0 -115 -96 -170q110 -60 110 -188q0 -109 -70 -169t-193 -60q-122 0 -194 60t-72 169q0 127 111 188q-97 55 -97 170q0 106 68.5 165t181.5 59q116 0 183.5 -59.5t67.5 -164.5z M1228 239q0 80 -68 80q-65 0 -65 -80q0 -40 18 -62.5t49 -22.5q66 0 66 85zM1213 562q0 73 -53 73q-51 0 -51 -73q0 -77 53 -77q51 0 51 77z"/>
    <glyph glyph-name="fiveeighths" unicode="⅝" horiz-adv-x="1510" d="M99 1045l46 408h432v-162h-272l-14 -134q57 26 102 26q114 0 170.5 -66t56.5 -188q0 -120 -73 -198t-193 -78q-114 0 -192 66.5t-78 167.5h197q2 -69 73 -69q69 0 69 112t-84 112q-54 0 -84 -37zM518 109l-134 76l597 1138l135 -76zM1398 576q0 -115 -96 -170 q110 -60 110 -188q0 -109 -70 -169t-193 -60q-122 0 -194 60t-72 169q0 127 111 188q-97 55 -97 170q0 106 68.5 165t181.5 59q116 0 183.5 -59.5t67.5 -164.5zM1215 239q0 80 -68 80q-65 0 -65 -80q0 -40 18 -62.5t49 -22.5q66 0 66 85zM1200 562q0 73 -53 73 q-51 0 -51 -73q0 -77 53 -77q51 0 51 77z"/>
    <glyph glyph-name="seveneighths" unicode="⅞" horiz-adv-x="1540" d="M640 1327l-269 -673h-208l270 623h-341v166h548v-116zM456 109l-134 76l597 1138l135 -76zM1357 576q0 -115 -96 -170q110 -60 110 -188q0 -109 -70 -169t-193 -60q-122 0 -194 60t-72 169q0 127 111 188q-97 55 -97 170q0 106 68.5 165t181.5 59q116 0 183.5 -59.5 t67.5 -164.5zM1174 239q0 80 -68 80q-65 0 -65 -80q0 -40 18 -62.5t49 -22.5q66 0 66 85zM1159 562q0 73 -53 73q-51 0 -51 -73q0 -77 53 -77q51 0 51 77z"/>
    <glyph glyph-name="partialdiff" unicode="∂" horiz-adv-x="1024" d="M492 1037q114 0 210 -115q-28 176 -97 279t-164 103q-80 0 -139 -26l-54 -25l-42 208l58 30q94 47 200 47q235 0 362.5 -211t131.5 -605v-70q0 -197 -52.5 -351.5t-151 -238t-228.5 -83.5q-200 0 -317 143.5t-117 408.5q0 231 108 368.5t292 137.5zM528 802 q-150 0 -153 -274v-33q0 -281 151 -281q73 0 110.5 79.5t38.5 250.5v126q-52 132 -147 132z"/>
    <glyph glyph-name="product" unicode="∏" horiz-adv-x="1256" d="M1109 -254h-285v1481h-384v-1481h-285v1710h954v-1710z"/>
    <glyph glyph-name="summation" unicode="∑" horiz-adv-x="1139" d="M837 582l-401 -616h636v-235h-1004v151l474 717l-474 706v151h979v-235h-609l399 -605v-34z"/>
    <glyph glyph-name="minus" unicode="−" horiz-adv-x="990" d="M870 594h-730v238h730v-238z"/>
    <glyph glyph-name="radical" unicode="√" horiz-adv-x="1032" d="M530 346l251 1110h222l-345 -1456h-240l-157 520h-196v238h364z"/>
    <glyph glyph-name="infinity" unicode="∞" horiz-adv-x="1828" d="M1736 531q0 -156 -56 -283.5t-157 -197.5t-230 -70q-116 0 -212 73t-168 219q-143 -292 -379 -292q-196 0 -319 155.5t-123 414.5q0 155 55.5 282.5t156 198.5t228.5 71q116 0 213.5 -71.5t167.5 -211.5q68 136 166 209.5t216 73.5q194 0 317.5 -155.5t123.5 -415.5z M1460 550q0 136 -49 222.5t-131 86.5q-74 0 -135 -83.5t-91 -213.5v-28q8 -55 46 -141.5t83.5 -128.5t94.5 -42q84 0 133 86.5t49 241.5zM367 531q0 -138 49 -223.5t133 -85.5q104 0 180 176q35 81 43 136v28q-31 134 -91.5 215.5t-133.5 81.5q-82 0 -131 -86.5t-49 -241.5z "/>
    <glyph glyph-name="integral" unicode="∫" horiz-adv-x="551" d="M416 -46q0 -190 -86.5 -290.5t-248.5 -100.5q-67 0 -128 18l14 230q47 -13 71 -13q95 0 96 151v1227q0 184 92.5 282.5t261.5 98.5q56 0 140 -21l-24 -224q-34 10 -78 10q-110 0 -110 -151v-1217z"/>
    <glyph glyph-name="approxequal" unicode="≈" horiz-adv-x="1036" d="M103 914q40 50 96.5 78t111.5 28q82 2 161 -43l102 -60q71 -39 147 -39q106 0 190 126l-1 -237q-85 -106 -183 -106q-76 0 -147 39l-102 60q-79 45 -160 43q-59 0 -119.5 -36t-96.5 -90zM105 494q85 106 200 106q78 2 157 -41l108 -63q70 -38 144 -38q55 0 107 33t92 93 l-1 -237q-85 -106 -190 -106q-76 0 -147 39l-102 60q-79 45 -160 43q-55 0 -112 -33t-97 -93z"/>
    <glyph glyph-name="notequal" unicode="≠" horiz-adv-x="1030" d="M895 311h-464l-97 -215l-111 62l68 153h-159v237h266l88 196h-354v238h461l95 212l112 -63l-67 -149h162v-238h-269l-89 -196h358v-237z"/>
    <glyph glyph-name="lessequal" unicode="≤" horiz-adv-x="915" d="M336 740.315l453 -179.105v-253.807l-728 327.608v214.206l728 328.509v-253.807zM798 40h-730v238h730v-238z"/>
    <glyph glyph-name="greaterequal" unicode="≥" horiz-adv-x="930" d="M583 743.915l-462 180.905v252.007l738 -327.609v-214.206l-738 -328.509v252.007zM853 40h-730v238h730v-238z"/>
    <glyph glyph-name="lozenge" unicode="◊" horiz-adv-x="916" d="M340 1456h241l301 -729l-300 -727h-241l-301 727zM461 1127l-143 -400l144 -397l140 397z"/>
    <glyph glyph-name="uniEE01" unicode="" horiz-adv-x="570" d="M136 331q0 68 45.5 112t118.5 44q71 0 118 -43.5t47 -112.5q0 -70 -47.5 -112.5t-117.5 -42.5q-71 0 -117.5 43t-46.5 112zM135 1148q0 68 45.5 112t118.5 44q71 0 118 -43.5t47 -112.5q0 -70 -47.5 -112.5t-117.5 -42.5q-71 0 -117.5 43t-46.5 112z"/>
    <glyph glyph-name="uniEE02" unicode="" horiz-adv-x="613" d="M244 654h-155v427h155v-427zM521 654h-155v427h155v-427z"/>
    <glyph glyph-name="uniF6C3" unicode="" horiz-adv-x="435" d="M185 -149l-138 79q62 119 65 240v106h204v-76q-1 -91 -37.5 -188.5t-93.5 -160.5z"/>
    <glyph glyph-name="f_f.dlig" horiz-adv-x="1193" d="M168 0v869h-131v213h131v97q1 179 94.5 278.5t258.5 99.5q50 0 128 -20l-2 -226q-29 9 -69 9q-126 0 -126 -150v-88h169v-213h-169v-869h-284zM689 0v869h-131v213h131v97q1 179 94.5 278.5t258.5 99.5q50 0 128 -20l-2 -226q-29 9 -69 9q-126 0 -126 -150v-88h169v-213 h-169v-869h-284z"/>
    <glyph glyph-name="uniFB03" unicode="ﬃ" horiz-adv-x="1682" d="M168 0v869h-131v213h131v97q1 179 94.5 278.5t258.5 99.5q50 0 128 -20l-2 -226q-29 9 -69 9q-126 0 -126 -150v-88h272v49q2 204 111.5 315t312.5 111q117 0 287 -59l-41 -241q-48 18 -101.5 32t-126.5 14q-155 0 -158 -170v-51h167v-213h-167v-869h-284v869h-272v-869 h-284zM1564 0h-284v1082h284v-1082z"/>
    <glyph glyph-name="uniFB04" unicode="ﬄ" horiz-adv-x="1682" d="M168 0v869h-131v213h131v97q1 179 94.5 278.5t258.5 99.5q50 0 128 -20l-2 -226q-29 9 -69 9q-126 0 -126 -150v-88h272v75q0 195 105 297.5t298 102.5q146 0 437 -31v-1526h-284v1313q-70 7 -113 7q-159 0 -159 -165v-73h169v-213h-169v-869h-284v869h-272v-869h-284z "/>
    <glyph glyph-name="f_t.dlig" horiz-adv-x="1179" d="M1124 869h-145v-537q0 -64 17.5 -88t67.5 -24q41 0 67 7l-2 -220q-74 -27 -156 -27q-272 0 -277 309v580h-125v213h125v212q-42 28 -135 28q-110 0 -110 -153v-1169h-283v869h-131v213h131v100q2 180 95 277.5t260 97.5q170 0 381 -78l75 -29v-368h145v-213z"/>
    <glyph glyph-name="s_t.dlig" horiz-adv-x="1520" d="M1040 1171q0 80 -36 128t-95 48t-90.5 -40t-31.5 -111q0 -77 32.5 -201.5t32.5 -231.5h-282q0 132 -110 132q-46 0 -74.5 -28t-28.5 -78q0 -36 32 -63.5t151 -78.5q176 -65 245.5 -144t69.5 -202q0 -147 -109.5 -234t-284.5 -87q-119 0 -209.5 46.5t-142 129.5t-51.5 179 h267q2 -74 34.5 -111t107.5 -37q114 0 114 103q0 36 -34.5 66.5t-153.5 82.5q-176 71 -241.5 148t-65.5 188q0 142 102.5 234.5t271.5 92.5q69 0 121 -13q-41 97 -41 175q0 135 102 215.5t273 80.5q195 0 301 -101t106 -293v-84h146v-213h-146v-537q0 -60 16.5 -86t68.5 -26 q42 0 68 7l-1 -220q-76 -27 -158 -27q-271 0 -276 309v580h-125v213h125v89z"/>
    <glyph glyph-name="uniFEFF" unicode="﻿" horiz-adv-x="0"/>
    <glyph glyph-name="uniFFFC" unicode="￼" horiz-adv-x="2092" d="M821 468q0 -98 -64.5 -158.5t-164.5 -60.5q-102 0 -166 60t-66 154v117q0 95 63 157t167 62q101 0 165 -60t66 -154v-117zM888 252v549h188q98 0 155 -36.5t57 -113.5q0 -84 -84 -116q50 -13 76 -48t26 -80q0 -155 -208 -155h-210zM729 580q0 69 -37 108t-102 39 q-64 0 -101 -39t-37 -108v-112q0 -69 37 -108t103 -39q64 0 100.5 39t36.5 108v112zM1683 803h92v-378q0 -78 -52.5 -124.5t-134.5 -46.5q-88 0 -142.5 40.5t-54.5 123.5h93q0 -91 104 -91q41 0 68 27t27 71v378zM87 -398v315h113v-202h196v-113h-309zM1716 -398v113h199 v202h111v-315h-310zM87 1169v285h309v-116h-196v-169h-113zM1716 1338v116h310v-285h-111v169h-199zM983 496v-169h126q103 0 103 83q0 82 -98 86h-131zM1317 1338v116h278v-116h-278zM918 1338v116h277v-116h-277zM519 1338v116h276v-116h-276zM1317 -398v113h278v-113 h-278zM918 -398v113h277v-113h-277zM519 -398v113h276v-113h-276zM983 566h93q118 0 118 80q0 41 -29 56t-89 15h-93v-151zM200 416h-113v252h113v-252zM200 794h-113v250h113v-250zM200 41h-113v249h113v-249zM2026 416h-111v252h111v-252zM2026 794h-111v250h111v-250z M2026 41h-111v249h111v-249z"/>
    <glyph glyph-name="uniFFFD" unicode="�" horiz-adv-x="2101" d="M1048 1618l959 -975l-959 -975l-956 975zM1131 402q0 58 15 87t51 53q74 39 120 106.5t46 141.5q0 128 -83.5 203.5t-232.5 75.5q-144 0 -224 -69.5t-82 -196.5h203q2 51 31 77t72 26q57 0 85 -32t28 -84q0 -95 -93 -155q-91 -65 -114.5 -111t-23.5 -122h202zM1131 311 h-202v-170h202v170zM1056 -551h4v-4h-4v4zM1054 2163h4v-4h-4v4z"/>
    <glyph glyph-name="k.ss04" horiz-adv-x="982" d="M449 446h-61v-446h-284v1536h284v-858h59l166 404h325l-268 -490l301 -592h-324z"/>
    <glyph glyph-name="K.ss04" horiz-adv-x="1155" d="M541 594h-128v-594h-294v1456h294v-582h99l253 582h358l-356 -678l396 -778h-350z"/>
    <glyph glyph-name="R.ss03" horiz-adv-x="1163" d="M414 568v-568h-294v1456h503q212 0 322 -111.5t110 -316.5q0 -229 -222 -329q104 -35 155 -118t53 -222v-79q0 -195 63 -252v-28h-303q-49 44 -53 233v111q0 223 -152 224h-182zM414 812h180q82 0 124.5 49.5t42.5 142.5q0 207 -160 207h-187v-399z"/>
    <glyph glyph-name="alpha.ss02" horiz-adv-x="1049" d="M706 134q-91 -155 -261 -155q-173 0 -272.5 143.5t-99.5 411.5q0 262 100 415t273 153q163 0 255 -154l16 134h248l-94 -542l99 -540h-247zM357 513q0 -153 36.5 -226t110.5 -73q139 0 149 279v67q-2 145 -42 226t-106 81q-73 0 -110.5 -84t-37.5 -270z"/>
    <glyph glyph-name="g.ss01" horiz-adv-x="951" d="M918 928h-105q52 -84 52 -194v-22q0 -160 -114 -264t-294 -104q-64 0 -116 13q-17 -23 -17 -57q0 -38 24.5 -55t81.5 -17h158q156 -1 240 -79.5t84 -222.5q0 -92 -63 -178t-172 -136t-242 -50q-195 0 -315 78t-120 198q0 81 43.5 145.5t118.5 103.5q-40 48 -40 123 q0 117 104 191q-181 103 -181 324v9q0 166 114 267t296 101q79 0 147 -20h315zM299 14q-33 -35 -33 -106q0 -60 47 -93.5t122 -33.5q88 0 141.5 36t53.5 94q0 94 -83 97h-188zM327 712q0 -63 35.5 -105.5t94.5 -42.5q56 0 91 42t35 128q0 66 -35.5 107t-92.5 41t-92.5 -41 t-35.5 -109v-20z"/>
    <glyph glyph-name="glyph434" horiz-adv-x="616" d="M406 1731h250l-241 -208h-170zM133 1297q0 80 53 133.5t128 53.5q73 0 125 -53t52 -134q0 -80 -50.5 -132t-126.5 -52q-78 0 -129.5 52.5t-51.5 131.5zM238 1297q0 -39 21.5 -64t54.5 -25q32 0 52 25t20 64q0 40 -20 65.5t-52 25.5q-33 0 -54.5 -25.5t-21.5 -65.5z"/>
    <glyph glyph-name="glyph435" horiz-adv-x="889" d="M751 649h-607v183h607v-183z"/>
    <glyph glyph-name="nine.dnom" horiz-adv-x="687" d="M406 294q-52 -43 -110 -43q-102 0 -161.5 65.5t-59.5 196.5q0 120 76.5 203.5t189.5 83.5q122 0 193.5 -82.5t73.5 -232.5v-64q0 -215 -97.5 -324t-306.5 -109v163q109 0 150 34.5t52 108.5zM351 404q38 0 59 31v83q0 116 -69 116q-33 0 -50.5 -36.5t-17.5 -87.5 q0 -106 78 -106z"/>
    <glyph glyph-name="eight.dnom" horiz-adv-x="687" d="M593 576q0 -115 -96 -170q110 -60 110 -188q0 -109 -70 -169t-193 -60q-122 0 -194 60t-72 169q0 127 111 188q-97 55 -97 170q0 106 68.5 165t181.5 59q116 0 183.5 -59.5t67.5 -164.5zM410 239q0 80 -68 80q-65 0 -65 -80q0 -40 18 -62.5t49 -22.5q66 0 66 85zM395 562 q0 73 -53 73q-51 0 -51 -73q0 -77 53 -77q51 0 51 77z"/>
    <glyph glyph-name="seven.dnom" horiz-adv-x="687" d="M608 673l-269 -673h-208l270 623h-341v166h548v-116z"/>
    <glyph glyph-name="six.dnom" horiz-adv-x="687" d="M505 805v-168q-115 0 -165 -40.5t-65 -126.5q57 57 139 57q98 0 154.5 -70t56.5 -194q0 -118 -76 -196t-193 -78q-131 0 -206 81.5t-77 232.5v59q0 208 106.5 325.5t302.5 117.5h23zM350 363q-55 0 -80 -43v-44q0 -64 19 -93t61 -29q33 0 55.5 32t22.5 79q0 98 -78 98z "/>
    <glyph glyph-name="five.dnom" horiz-adv-x="687" d="M84 381l46 408h432v-162h-272l-14 -134q57 26 102 26q114 0 170.5 -66t56.5 -188q0 -120 -73 -198t-193 -78q-114 0 -192 66.5t-78 167.5h197q2 -69 73 -69q69 0 69 112t-84 112q-54 0 -84 -37z"/>
    <glyph glyph-name="four.dnom" horiz-adv-x="687" d="M550 327h64v-168h-64v-159h-197v159h-278l-12 136l290 494h197v-462zM248 327h105v201l-8 -13z"/>
    <glyph glyph-name="three.dnom" horiz-adv-x="687" d="M250 471h75q78 0 78 87q0 36 -19.5 56.5t-53.5 20.5q-27 0 -47 -15.5t-20 -44.5h-197q0 101 72.5 163t185.5 62q129 0 202.5 -60t73.5 -166q0 -119 -116 -169q128 -41 128 -184q0 -106 -80 -169t-209 -63q-121 0 -194.5 66.5t-73.5 180.5h199q0 -32 21.5 -57t60.5 -25 q43 0 60.5 26.5t17.5 61.5q0 90 -82 92h-82v137z"/>
    <glyph glyph-name="two.dnom" horiz-adv-x="687" d="M609 0h-533v138l240 257q43 49 62 91t19 65q0 84 -64 84q-34 0 -53.5 -30.5t-19.5 -79.5h-199q0 118 74 196.5t189 78.5q131 0 200.5 -64.5t69.5 -183.5q0 -77 -35.5 -137.5t-153.5 -164.5l-69 -85h273v-165z"/>
    <glyph glyph-name="one.dnom" horiz-adv-x="687" d="M480 0h-197v547l-148 -41v159l327 121h18v-786z"/>
    <glyph glyph-name="zero.dnom" horiz-adv-x="687" d="M610 310q0 -152 -70 -236.5t-196 -84.5q-128 0 -197.5 84t-70.5 232v171q0 150 70 237t196 87q122 0 194 -83t74 -233v-174zM412 484q0 150 -70 150q-66 0 -68 -140v-192q0 -148 70 -148q67 0 68 141v189z"/>
    <glyph glyph-name="Z.c2sc" horiz-adv-x="945" d="M413 234h480v-234h-828v153l483 776h-491v236h833v-150z"/>
    <glyph glyph-name="Y.c2sc" horiz-adv-x="974" d="M487 718l168 447h306l-336 -755v-410h-284v426l-329 739h307z"/>
    <glyph glyph-name="X.c2sc" horiz-adv-x="995" d="M484 791l140 374h325l-287 -578l314 -587h-335l-153 380l-147 -380h-326l296 587l-289 578h323z"/>
    <glyph glyph-name="W.c2sc" horiz-adv-x="1317" d="M903 496l99 669h270l-214 -1165h-282l-120 622l-116 -622h-282l-215 1165h271l98 -673l121 673h248z"/>
    <glyph glyph-name="V.c2sc" horiz-adv-x="1032" d="M508 321l6 -35l6 31l201 848h297l-350 -1165h-307l-348 1165h297z"/>
    <glyph glyph-name="U.c2sc" horiz-adv-x="1020" d="M931 1165v-756q0 -133 -51 -229.5t-146 -146t-224 -49.5q-197 0 -309.5 113t-112.5 316v752h283v-755q0 -102 34.5 -147t104.5 -45t103.5 45t33.5 147v755h284z"/>
    <glyph glyph-name="T.c2sc" horiz-adv-x="978" d="M932 929h-305v-929h-285v929h-297v236h887v-236z"/>
    <glyph glyph-name="S.c2sc" horiz-adv-x="971" d="M620 313q0 57 -33.5 92t-125.5 64q-205 56 -284 137.5t-79 230.5q0 150 106 247t275 97q189 0 301.5 -98.5t112.5 -265.5h-282q0 66 -35.5 107t-95.5 41q-53 0 -83 -33t-30 -84q0 -48 33.5 -79t120.5 -62q196 -50 282 -139t86 -246t-104 -247.5t-288 -90.5 q-88 0 -170.5 26t-141.5 78q-120 104 -120 284h284q0 -97 36 -135.5t127 -38.5q108 0 108 115z"/>
    <glyph glyph-name="R.c2sc" horiz-adv-x="1000" d="M477 401h-101v-401h-284v1165h422q193 0 299.5 -91t106.5 -259q0 -122 -41 -202.5t-136 -132.5l213 -468v-12h-305zM376 636h133q128 0 128 147q0 145 -122 146h-139v-293z"/>
    <glyph glyph-name="Q.c2sc" horiz-adv-x="1068" d="M1002 559q0 -158 -47.5 -277t-131.5 -193l172 -147l-176 -158l-232 203l-52 -3q-201 0 -328.5 145t-138.5 387l-1 88q0 172 59 304.5t165.5 202.5t242.5 70t242.5 -70.5t166 -203t59.5 -301.5v-47zM720 605q0 165 -49 253.5t-137 88.5q-91 0 -138 -88.5t-47 -253.5v-46 q0 -166 49.5 -254.5t136.5 -88.5q84 0 133.5 87t51.5 244v58z"/>
    <glyph glyph-name="P.c2sc" horiz-adv-x="1014" d="M375 382v-382h-283v1165h433q187 0 302 -112.5t115 -292.5q0 -171 -113 -274t-301 -104h-153zM375 617h150q69 0 102 40t33 101q0 78 -37 124.5t-98 46.5h-150v-312z"/>
    <glyph glyph-name="O.c2sc" horiz-adv-x="1068" d="M1001 559q0 -171 -58 -301.5t-165 -202t-243 -71.5t-243.5 70t-167 202t-59.5 303v45q0 172 58.5 303.5t165.5 202.5t244 71q200 0 328 -145.5t139 -388.5zM718 605q0 165 -48.5 253.5t-136.5 88.5q-91 0 -138 -88.5t-47 -253.5v-46q0 -166 49.5 -254.5t137.5 -88.5 q85 0 133.5 89.5t49.5 248.5v51z"/>
    <glyph glyph-name="N.c2sc" horiz-adv-x="1078" d="M986 0h-283l-328 723v-723h-283v1165h283l328 -724v724h283v-1165z"/>
    <glyph glyph-name="M.c2sc" horiz-adv-x="1342" d="M464 1165l206 -782l206 782h373v-1165h-284v232l27 542l-229 -774h-187l-228 770l27 -538v-232h-283v1165h372z"/>
    <glyph glyph-name="L.c2sc" horiz-adv-x="848" d="M375 234h428v-234h-711v1165h283v-931z"/>
    <glyph glyph-name="K.c2sc" horiz-adv-x="985" d="M466 412l-91 -104v-308h-283v1165h283v-461l65 108l197 353h352l-335 -517l338 -648h-333z"/>
    <glyph glyph-name="J.c2sc" horiz-adv-x="873" d="M498 1165h284v-769q0 -182 -101.5 -297t-262.5 -115q-184 0 -281 102t-97 288h284q0 -156 94 -156q43 0 61.5 42.5t18.5 135.5v769z"/>
    <glyph glyph-name="I.c2sc" horiz-adv-x="494" d="M388 0h-282v1165h282v-1165z"/>
    <glyph glyph-name="H.c2sc" horiz-adv-x="1080" d="M988 0h-281v453h-332v-453h-283v1165h283v-477h332v477h281v-1165z"/>
    <glyph glyph-name="G.c2sc" horiz-adv-x="1033" d="M967 141q-60 -72 -172.5 -114.5t-252.5 -42.5q-219 0 -345 150.5t-127 413.5v64q0 262 124 415.5t333 153.5q197 0 308 -98.5t132 -306.5h-273q-11 85 -46 127.5t-111 42.5q-83 0 -133 -80.5t-50 -251.5v-63q0 -170 49.5 -251.5t158.5 -81.5q80 0 121 41v165h-164v206 h448v-489z"/>
    <glyph glyph-name="F.c2sc" horiz-adv-x="842" d="M762 453h-387v-453h-283v1165h709v-236h-426v-241h387v-235z"/>
    <glyph glyph-name="E.c2sc" horiz-adv-x="866" d="M755 484h-380v-250h452v-234h-735v1165h736v-236h-453v-210h380v-235z"/>
    <glyph glyph-name="D.c2sc" horiz-adv-x="996" d="M92 0v1165h342q143 0 256 -71t176.5 -199.5t63.5 -289.5v-46q0 -242 -136.5 -400.5t-363.5 -158.5h-338zM375 929v-695h62q111 0 159.5 70t50.5 238v64q0 176 -48.5 249t-159.5 74h-64z"/>
    <glyph glyph-name="C.c2sc" horiz-adv-x="1012" d="M961 400q-8 -193 -127.5 -304.5t-315.5 -111.5q-212 0 -333.5 150.5t-121.5 424.5v49q0 264 123 418.5t329 154.5q196 0 313 -112t135 -313h-284q0 190 -164 190q-86 0 -126.5 -80t-41.5 -248v-63q0 -185 39.5 -261t131.5 -76q81 0 120 43.5t40 138.5h283z"/>
    <glyph glyph-name="B.c2sc" horiz-adv-x="1003" d="M92 0v1165h396q204 0 311.5 -82.5t107.5 -239.5q0 -89 -39 -155t-115 -97q82 -24 127 -91.5t45 -165.5q0 -174 -101 -254t-304 -80h-428zM375 484v-250h145q59 0 90.5 32t31.5 88q0 126 -102 130h-165zM375 681h136q113 3 113 120q0 69 -28 98.5t-86 29.5h-135v-248z"/>
    <glyph glyph-name="A.c2sc" horiz-adv-x="1068" d="M704 221h-344l-63 -221h-283l385 1165h265l389 -1165h-284zM422 434h219l-111 376z"/>
    <glyph glyph-name="glyph472" horiz-adv-x="489" d="M265 1557l143 -77q-58 -119 -61 -246l-1 -139h-216v140q1 105 39 193.5t96 128.5z"/>
    <glyph glyph-name="k.ss05" horiz-adv-x="981" d="M388 446v-446h-284v1560h284v-875l218 397h332l-318 -505l356 -577h-334z"/>
    <glyph glyph-name="glyph474" horiz-adv-x="817" d="M707 1458q0 -105 -82.5 -169.5t-220.5 -64.5q-137 0 -220 65t-83 169h184q0 -54 32 -83t87 -29t87 29t32 83h184zM195 1645h194l96 -187h-143z"/>
    <glyph glyph-name="glyph475" horiz-adv-x="956" d="M384 1490h151l245 -230h-203l-118 126l-118 -126h-202zM854 1665h220l-203 -272h-157z"/>
    <glyph glyph-name="C.ss06" horiz-adv-x="1211" d="M1138 485q-19 -248 -150.5 -377t-358.5 -129q-159 0 -282 88t-191 250.5t-70 370.5v63q0 214 68.5 379.5t192 256t280.5 90.5q229 0 361.5 -134t151.5 -382h-294q-14 147 -65.5 209t-153.5 62q-114 0 -180 -129t-66 -353v-47q0 -229 65 -354.5t183 -125.5q96 0 149 62.5 t66 199.5h294z"/>
    <glyph glyph-name="G.ss06" horiz-adv-x="1237" d="M1138 182q-63 -90 -189.5 -146.5t-274.5 -56.5q-168 0 -302.5 90t-209.5 253t-76 369v57q0 213 69 379t195 258t285 92q221 0 350.5 -125.5t153.5 -359.5h-287q-12 113 -66.5 176.5t-141.5 63.5q-119 0 -191 -132.5t-72 -353.5v-48q0 -217 81 -346t212 -129 q70 0 111.5 19.5t58.5 42.5v245h-183v223h477v-571z"/>
    <glyph glyph-name="D.ss06" horiz-adv-x="1213" d="M119 0v1456h393q177 0 316.5 -89t217 -248.5t79.5 -359.5v-53q0 -204 -77 -365t-216.5 -250.5t-317.5 -90.5h-395zM413 1211v-967h79q163 0 250.5 117.5t87.5 350.5v38q0 222 -83.5 340.5t-244.5 120.5h-89z"/>
    <glyph glyph-name="O.ss06" horiz-adv-x="1306" d="M1219 707q0 -204 -72.5 -371.5t-203 -262t-290.5 -94.5q-157 0 -287 92t-205 261t-75 377v40q0 204 73 372t203 262t290 94q158 0 288.5 -93t204 -261t74.5 -369v-47zM926 751q0 208 -75.5 344t-198.5 136q-121 0 -197 -134t-76 -354v-36q0 -209 75 -346t199 -137 q123 0 198 135.5t75 354.5v37z"/>
    <glyph glyph-name="Q.ss06" horiz-adv-x="1307" d="M1219 715q0 -195 -58.5 -349.5t-163.5 -251.5l202 -197l-186 -170l-244 245q-61 -13 -116 -13q-162 0 -290.5 91.5t-201.5 258t-75 373.5v37q0 212 72 381.5t202 263t292 93.5q161 0 289.5 -91.5t202 -259t75.5 -374.5v-37zM926 741q0 220 -74 355t-200 135 q-123 0 -198 -132.5t-75 -361.5v-22q0 -220 74 -355.5t200 -135.5q125 0 199 134t74 363v20z"/>
    <glyph glyph-name="one.oldstyle" horiz-adv-x="1015" d="M705 0h-283v818l-286 -107v237l543 216h26v-1164z"/>
    <glyph glyph-name="two.oldstyle" horiz-adv-x="1009" d="M934 0h-831v182l395 406q64 69 90.5 120t26.5 105q0 136 -119 136q-59 0 -93 -48t-34 -128h-283q0 180 113.5 294t296.5 114q192 0 296 -91t104 -251q0 -74 -22.5 -134.5t-73 -125t-179.5 -183.5l-113 -163h426v-233z"/>
    <glyph glyph-name="three.oldstyle" horiz-adv-x="971" d="M486 929h-392v236h751v-167l-257 -368q131 -26 220 -150.5t89 -298.5q0 -244 -145.5 -387t-387.5 -143q-163 0 -331 103l54 222q124 -88 260 -88q112 0 182.5 83t70.5 216t-61 193.5t-193 61.5h-83v139z"/>
    <glyph glyph-name="four.oldstyle" horiz-adv-x="1039" d="M837 235h133v-236h-133v-300h-282v300h-488l-13 185l501 980h282v-929zM332 235h223v517l-12 -22z"/>
    <glyph glyph-name="five.oldstyle" horiz-adv-x="990" d="M136 382l60 782h708v-242h-478l-25 -302q58 45 161 45q179 0 277.5 -127.5t98.5 -362.5q0 -154 -57 -274.5t-164 -186.5t-253 -66q-200 0 -356 120l85 214q45 -45 110 -71.5t131 -26.5q106 0 163.5 74.5t57.5 214.5q0 129 -44.5 201t-124.5 72q-32 0 -65 -21.5t-51 -59.5 z"/>
    <glyph glyph-name="seven.oldstyle" horiz-adv-x="939" d="M934 1001l-464 -1302h-283l449 1230h-569v235h867v-163z"/>
    <glyph glyph-name="dollar.c2sc" horiz-adv-x="971" d="M620 313q0 57 -33.5 92t-125.5 64q-205 56 -284 137.5t-79 230.5q0 137 90.5 231t235.5 110v217h151v-222q150 -25 234 -119t84 -237h-282q0 66 -35.5 107t-95.5 41q-53 0 -83 -33t-30 -84q0 -48 33.5 -79t120.5 -62q196 -50 282 -139t86 -246q0 -140 -83.5 -227.5 t-230.5 -105.5v-226h-151v226q-165 19 -262 120t-97 263h284q0 -97 36 -135.5t127 -38.5q108 0 108 115z"/>
    <glyph glyph-name="sterling.c2sc" horiz-adv-x="1055" d="M784 475h-293q-4 -144 -88 -240h557v-235h-818v235h9q54 18 54 240h-126v169h122l-2 86q-6 207 93.5 329t274.5 122q178 0 279 -109t101 -306h-284q0 181 -94 181q-44 0 -67.5 -55.5t-19.5 -161.5l3 -86h299v-169z"/>
    <glyph glyph-name="yen.c2sc" horiz-adv-x="990" d="M494 717l169 448h306l-242 -541h147v-170h-223l-18 -42v-25h241v-169h-241v-218h-284v218h-240v169h240v39l-13 28h-227v170h152l-241 541h306z"/>
    <glyph glyph-name="Gamma.c2sc" horiz-adv-x="854" d="M815 929h-440v-929h-283v1165h723v-236z"/>
    <glyph glyph-name="uni2206.c2sc" horiz-adv-x="1031" d="M1018 0h-1005l348 1165h307zM520 847l-6 31l-6 -34l-143 -609h300z"/>
    <glyph glyph-name="Theta.c2sc" horiz-adv-x="1068" d="M673 454h-275v235h275v-235zM1001 559q0 -171 -58 -301.5t-165 -202t-243 -71.5t-243.5 70t-167 202t-59.5 303v45q0 172 58.5 303.5t165.5 202.5t244 71q200 0 328 -145.5t139 -388.5zM718 605q0 165 -48.5 253.5t-136.5 88.5q-91 0 -138 -88.5t-47 -253.5v-46 q0 -166 49.5 -254.5t137.5 -88.5q85 0 133.5 89.5t49.5 248.5v51z"/>
    <glyph glyph-name="Lambda.c2sc" horiz-adv-x="1031" d="M310 0h-297l348 1165h307l350 -1165h-297l-201 847l-6 31l-6 -34z"/>
    <glyph glyph-name="Xi.c2sc" horiz-adv-x="832" d="M750 0h-668v235h668v-235zM682 485h-534v236h534v-236zM750 929h-668v236h668v-236z"/>
    <glyph glyph-name="Pi.c2sc" horiz-adv-x="1094" d="M1002 0h-283v929h-344v-929h-283v1165h910v-1165z"/>
    <glyph glyph-name="Sigma.c2sc" horiz-adv-x="976" d="M617 592l-195 -357h476v-235h-815v152l242 449l-242 413v151h798v-236h-450l186 -320v-17z"/>
    <glyph glyph-name="Phi.c2sc" horiz-adv-x="1319" d="M803 1046q209 -17 330 -137.5t121 -323.5q0 -206 -119 -331.5t-332 -145.5v-108h-283v107q-212 17 -333 143t-121 333q0 204 119 324.5t335 138.5v119h283v-119zM349 583q-2 -119 44.5 -179t126.5 -73v492q-169 -26 -171 -240zM970 585q0 102 -42 163t-125 74v-491 q167 31 167 254z"/>
    <glyph glyph-name="Psi.c2sc" horiz-adv-x="1268" d="M776 512q75 20 108 94.5t35 241.5v317h283v-306q-3 -255 -114 -407t-312 -178v-274h-284v273q-201 24 -312 176t-114 410v306h283v-305q1 -160 35.5 -239.5t107.5 -104.5v649h284v-653z"/>
    <glyph glyph-name="uni2126.c2sc" horiz-adv-x="1074" d="M575 242q76 37 111.5 120t35.5 241v51q0 145 -47.5 219t-138.5 74q-184 0 -184 -302v-38q0 -159 36 -243t115 -122v-242h-410v238h159q-83 70 -133 176t-50 241v32q0 136 59 250t166 179t242 65q205 0 337 -141.5t132 -363.5v-21q0 -136 -50.5 -242t-133.5 -175h166v-238 h-412v242z"/>
    <glyph glyph-name="afii10051.c2sc" horiz-adv-x="1280" d="M324 929h-277v236h839v-236h-279v-186q101 27 197 27q193 0 303 -108.5t110 -303.5q0 -189 -108.5 -283.5t-322.5 -94.5v222q78 0 112.5 33.5t34.5 117.5q0 97 -41.5 139.5t-124.5 42.5q-69 0 -160 -26v-509h-283v929z"/>
    <glyph glyph-name="afii10053.c2sc" horiz-adv-x="1012" d="M961 400q-8 -193 -127.5 -304.5t-315.5 -111.5q-212 0 -333.5 150.5t-121.5 424.5v49q0 264 123 418.5t329 154.5q196 0 313 -112t135 -313h-284q0 190 -164 190q-75 0 -115 -60.5t-50 -185.5h237v-235h-238q8 -128 46.5 -187.5t122.5 -59.5q81 0 120 43.5t40 138.5h283z "/>
    <glyph glyph-name="afii10058.c2sc" horiz-adv-x="1640" d="M1577 400q0 -178 -118.5 -289t-315.5 -111h-432v929h-197l-10 -301q-11 -249 -53.5 -379.5t-127.5 -189.5t-235 -59h-41l-4 239l31 5q61 10 89 48t41.5 122t19.5 284l15 467h756v-371h148q197 0 315.5 -109t118.5 -285zM995 559v-324h153q67 0 107 48.5t40 118.5 q0 69 -40.5 113t-107.5 44h-152z"/>
    <glyph glyph-name="afii10059.c2sc" horiz-adv-x="1630" d="M375 688h326v477h284v-371h148q196 0 314.5 -109t118.5 -285q0 -178 -118.5 -289t-314.5 -111h-432v453h-326v-453h-283v1165h283v-477zM985 559v-324h152q67 0 107 48.5t40 118.5q0 69 -40.5 113t-107.5 44h-151z"/>
    <glyph glyph-name="afii10060.c2sc" horiz-adv-x="1290" d="M321 929h-276v236h839v-236h-279v-186q101 27 191 27q209 0 312.5 -110.5t105.5 -320.5v-339h-284v334q-1 106 -38.5 153.5t-126.5 47.5q-72 0 -160 -25v-510h-284v929z"/>
    <glyph glyph-name="afii10145.c2sc" horiz-adv-x="1094" d="M1002 0h-300v-345h-284v345h-326v1165h283v-930h344v930h283v-1165z"/>
    <glyph glyph-name="afii10018.c2sc" horiz-adv-x="1027" d="M854 930h-479v-166h149q203 0 318 -100t115 -279q0 -178 -115 -281.5t-320 -103.5h-430v1165h762v-235zM527 235q71 0 109 39t38 113q0 142 -152 142h-147v-294h152z"/>
    <glyph glyph-name="afii10021.c2sc" horiz-adv-x="1260" d="M126 235q76 88 106 177.5t34 288.5l4 464h770v-930h137v-568h-283v333h-568v-333h-282v568h82zM438 235h319v694h-207l-1 -165q-5 -340 -111 -529z"/>
    <glyph glyph-name="afii10024.c2sc" horiz-adv-x="1439" d="M925 438h-64v-438h-283v438h-65l-133 -438h-345l242 615l-221 550h326l134 -450h62v450h283v-450h62l132 450h328l-222 -540l242 -625h-345z"/>
    <glyph glyph-name="afii10025.c2sc" horiz-adv-x="968" d="M587 823q0 124 -123 124q-43 0 -70.5 -27t-27.5 -70h-284q0 155 106 243t279 88q191 0 297 -84t106 -232q0 -88 -44 -158.5t-119 -110.5q88 -35 133.5 -106t45.5 -165q0 -158 -111 -249.5t-308 -91.5q-181 0 -290 94t-109 257h284q2 -61 35.5 -90t83.5 -29q132 0 132 139 q0 140 -137 142h-118v195h131q108 4 108 131z"/>
    <glyph glyph-name="afii10026.c2sc" horiz-adv-x="1082" d="M707 1165h283v-1165h-283v655l-332 -655h-283v1165h283v-652z"/>
    <glyph glyph-name="afii10028.c2sc" horiz-adv-x="998" d="M451 438h-78v-438h-283v1165h283v-450h81l159 450h323l-262 -556l288 -609h-343z"/>
    <glyph glyph-name="afii10029.c2sc" horiz-adv-x="1087" d="M995 1165v-1165h-284v929h-197l-10 -295q-10 -245 -51.5 -376.5t-123.5 -193t-227 -64.5h-55l-4 239l31 5q63 12 90 50t40 123.5t20 281.5l15 466h756z"/>
    <glyph glyph-name="afii10037.c2sc" horiz-adv-x="1011" d="M528 661l164 504h297l-351 -915l-37 -82q-89 -183 -264 -188h-34l-69 3l-4 235q20 -4 67 -4q39 0 65 19.5t46 71.5l-366 860h305z"/>
    <glyph glyph-name="afii10040.c2sc" horiz-adv-x="1263" d="M1002 235h192l-20 -568h-262v333h-820v1165h283v-930h344v930h283v-930z"/>
    <glyph glyph-name="afii10041.c2sc" horiz-adv-x="1064" d="M972 0h-283v406q-91 -26 -160 -26q-229 0 -337.5 106.5t-112.5 317.5v361h284v-345q0 -108 37.5 -156.5t128.5 -48.5q70 0 160 25v525h283v-1165z"/>
    <glyph glyph-name="afii10042.c2sc" horiz-adv-x="1513" d="M1421 0h-1329v1165h283v-930h239v930h284v-930h240v930h283v-1165z"/>
    <glyph glyph-name="afii10043.c2sc" horiz-adv-x="1682" d="M1421 235h192l-20 -568h-262v333h-1239v1165h283v-930h239v930h284v-930h240v930h283v-930z"/>
    <glyph glyph-name="afii10044.c2sc" horiz-adv-x="1271" d="M1208 400q0 -178 -118.5 -289t-314.5 -111h-432v929h-313v236h596v-371h149q196 0 314.5 -109t118.5 -285zM779 235q67 0 107 48.5t40 118.5q0 69 -40.5 113t-107.5 44h-152v-324h153z"/>
    <glyph glyph-name="afii10045.c2sc" horiz-adv-x="1424" d="M957 400q0 -178 -118.5 -289t-315.5 -111h-431v1165h283v-371h147q198 0 316.5 -109t118.5 -285zM527 235q67 0 107 48.5t40 118.5q0 69 -40.5 113t-107.5 44h-151v-324h152zM1332 0h-282v1165h282v-1165z"/>
    <glyph glyph-name="afii10046.c2sc" horiz-adv-x="1020" d="M957 400q0 -178 -118.5 -289t-315.5 -111h-431v1165h283v-371h147q198 0 316.5 -109t118.5 -285zM527 235q67 0 107 48.5t40 118.5q0 69 -40.5 113t-107.5 44h-151v-324h152z"/>
    <glyph glyph-name="afii10047.c2sc" horiz-adv-x="1014" d="M334 400q2 -95 41 -138.5t120 -43.5q83 0 121.5 59.5t46.5 187.5h-237v235h237q-11 125 -51.5 185.5t-114.5 60.5q-159 0 -164 -190h-283q15 199 132.5 312t314.5 113q208 0 330 -155t122 -423v-48q0 -270 -121.5 -420.5t-332.5 -150.5q-198 0 -317.5 113.5t-125.5 302.5 h282z"/>
    <glyph glyph-name="afii10048.c2sc" horiz-adv-x="1491" d="M1425 559q0 -171 -58 -301.5t-165 -202t-244 -71.5q-188 0 -313 127t-151 344h-120v-455h-282v1165h282v-475h119q20 224 146.5 357.5t316.5 133.5q136 0 242.5 -70t166 -201t60.5 -299v-52zM1142 605q0 165 -49 253.5t-137 88.5q-90 0 -137 -88.5t-47 -253.5v-46 q0 -166 49.5 -254.5t136.5 -88.5q84 0 133.5 88.5t50.5 249.5v51z"/>
    <glyph glyph-name="afii10049.c2sc" horiz-adv-x="1018" d="M60 0l223 528q-158 94 -158 283q0 161 107 256t289 98h405v-1165h-283v409h-105l-171 -409h-307zM407 788q0 -66 32 -105.5t89 -39.5h115v286h-115q-53 0 -87 -38.5t-34 -102.5z"/>
    <glyph glyph-name="uni0492.c2sc" horiz-adv-x="951" d="M634 464h-163v-464h-284v464h-160v183h160v518h724v-236h-440v-282h163v-183z"/>
    <glyph glyph-name="uni0496.c2sc" horiz-adv-x="1549" d="M1161 625l151 -391h188v-567h-232v333h-210l-133 438h-64v-438h-283v438h-65l-133 -438h-345l242 615l-221 550h326l134 -450h62v450h283v-450h62l132 450h328z"/>
    <glyph glyph-name="uni049A.c2sc" horiz-adv-x="1081" d="M674 609l177 -375h196v-567h-232v333h-196l-168 438h-78v-438h-283v1165h283v-450h81l159 450h323z"/>
    <glyph glyph-name="uni049C.c2sc" horiz-adv-x="1165" d="M373 715h50v218h158v-218h40l159 450h323l-262 -556l288 -609h-343l-168 438h-37v-204h-158v204h-50v-438h-283v1165h283v-450z"/>
    <glyph glyph-name="uni04A0.c2sc" horiz-adv-x="1281" d="M726 438h-77v-438h-283v930h-314v235h597v-450h81l159 450h324l-262 -557l287 -608h-343z"/>
    <glyph glyph-name="uni04A8.c2sc" horiz-adv-x="1377" d="M1305 -13q-207 0 -364 55q-130 -63 -282 -63q-176 0 -310 71.5t-207.5 204.5t-76.5 310v78q0 161 56.5 288.5t157.5 196t229 68.5l-1 -245q-74 0 -116.5 -85t-42.5 -240v-39q0 -172 81.5 -267.5t233.5 -95.5q-139 158 -142 409v50q0 234 103.5 373.5t273.5 139.5 q179 0 285 -132t108 -366v-88q0 -220 -130 -388q54 -8 144 -8v-227zM788 641q0 -216 112 -318q104 109 108 293v57q0 146 -25.5 212.5t-78.5 66.5q-51 0 -83.5 -66t-32.5 -200v-45z"/>
    <glyph glyph-name="uni04B0.c2sc" horiz-adv-x="969" d="M487 718l168 447h306l-336 -755v-410h-284v426l-329 739h307zM787 339h-607v183h607v-183z"/>
    <glyph glyph-name="uni04B2.c2sc" horiz-adv-x="1106" d="M484 791l140 374h325l-287 -578l189 -353h186v-567h-232v333h-164l-153 380l-147 -380h-326l296 587l-289 578h323z"/>
    <glyph glyph-name="uni04B4.c2sc" horiz-adv-x="1525" d="M1236 235h193l-20 -568h-262v333h-820v929h-280v236h816v-236h-254v-694h345v930h282v-930z"/>
    <glyph glyph-name="uni04B8.c2sc" horiz-adv-x="1064" d="M972 0h-283v406l-78 -18v-214h-158v209q-366 30 -374 419v363h284v-358q3 -150 90 -181v247h158v-251l78 18v525h283v-1165z"/>
    <glyph glyph-name="uni04BA.c2sc" horiz-adv-x="1064" d="M92 1165h283v-406q99 26 160 26q228 0 336.5 -106.5t112.5 -317.5v-361h-283v343q0 110 -38 158.5t-128 48.5q-76 0 -160 -26v-524h-283v1165z"/>
    <glyph glyph-name="uni04BC.c2sc" horiz-adv-x="1408" d="M908 -16q-234 0 -377.5 128t-165.5 357q-157 9 -241.5 130t-84.5 330h217q0 -195 108 -223q11 142 76 253.5t173.5 174t234.5 62.5q224 0 346 -144t123 -407v-177h-671q11 -127 76 -186.5t186 -59.5q139 0 255 52l66 -221q-34 -24 -129 -46.5t-192 -22.5zM850 960 q-89 0 -143 -68.5t-62 -188.5h390v20q0 108 -49.5 172.5t-135.5 64.5z"/>
    <glyph glyph-name="uni04D8.c2sc" horiz-adv-x="1088" d="M480 1196q252 0 397.5 -151t145.5 -415v-97q0 -159 -63 -284t-175 -195t-248 -70q-224 0 -346.5 144t-122.5 413v170h670q-11 128 -77 187.5t-185 59.5q-128 0 -254 -53l-66 221q36 25 130.5 47.5t193.5 22.5zM535 220q92 0 143.5 68.5t59.5 187.5h-388v-20 q0 -110 50 -173t135 -63z"/>
    <glyph glyph-name="uni04E0.c2sc" horiz-adv-x="969" d="M854 1165v-192l-236 -288q123 -23 196 -115t73 -228q0 -169 -112.5 -265.5t-307.5 -96.5q-182 0 -290.5 94.5t-108.5 260.5h284q4 -123 129 -123q122 0 122 140q0 154 -144 154h-116v200l171 223h-411v236h751z"/>
    <glyph glyph-name="uni04E8.c2sc" horiz-adv-x="1068" d="M1001 559q0 -171 -58 -301.5t-165 -202t-243 -71.5t-243.5 70t-167 202t-59.5 303v45q0 172 58.5 303.5t165.5 202.5t244 71q200 0 328 -145.5t139 -388.5zM533 947q-154 0 -181 -249h361q-13 121 -59.5 185t-120.5 64zM535 216q72 0 118 64t60 182h-360q13 -118 59 -182 t123 -64z"/>
    <glyph glyph-name="lira.c2sc" horiz-adv-x="1055" d="M482 719h302v-169h-295l2 -41v-28h293v-169h-331q-19 -42 -50 -77h557v-235h-818v235h9q30 10 43 77h-115v169h126v12l-2 57h-124v169h120v11q-6 207 93.5 329t274.5 122q178 0 279 -103.5t101 -289.5h-284q0 159 -94 159q-44 0 -67.5 -55.5t-19.5 -161.5v-11z"/>
    <glyph glyph-name="Euro.c2sc" horiz-adv-x="920" d="M774 371h-283q28 -152 157 -152q65 0 167 26l23 -230q-99 -31 -190 -31q-180 0 -298 102t-144 285h-121v169h114v76h-114v170h122q26 187 141.5 292.5t297.5 105.5q90 0 194 -34l-22 -230q-95 29 -172 29q-126 0 -155 -163h283v-170h-291v-76h291v-169z"/>
    <glyph glyph-name="afii61352.c2sc" horiz-adv-x="1836" d="M1674 226h-496v148h496v-148zM1134 849q0 149 82 242t215 93t216 -91.5t83 -248.5v-60q0 -152 -82.5 -243t-214.5 -91t-215.5 91.5t-83.5 247.5v60zM1300 784q0 -85 35 -136.5t98 -51.5q61 0 95.5 50.5t34.5 138.5v64q0 87 -35.5 137t-96.5 50q-59 0 -94.5 -48.5 t-36.5 -134.5v-69zM986 0h-283l-328 723v-723h-283v1165h283l328 -724v724h283v-1165z"/>
    <glyph glyph-name="uni20BD.c2sc" horiz-adv-x="1182" d="M766 131h-235v-131h-282v131h-195v209h195v65h-195v209h195v551h450q185 0 300 -105.5t115 -276.5q0 -172 -114.5 -275t-303.5 -103h-165v-65h235v-209zM531 614h168q60 0 96 45t36 116q0 69 -36 112t-98 43h-166v-316z"/>
    <glyph glyph-name="b.ss06" horiz-adv-x="1030" d="M964 529q0 -248 -100 -398.5t-273 -150.5q-143 0 -227 122l-15 -102h-246v1536h283v-527q79 93 203 93q175 0 275 -147t100 -426zM681 550q0 315 -165 315q-88 0 -130 -83v-488q42 -79 132 -79q149 0 162 266z"/>
    <glyph glyph-name="c.ss06" horiz-adv-x="965" d="M508 215q59 0 95 43t38 117h264q-4 -172 -116 -283.5t-276 -111.5q-202 0 -321.5 148.5t-119.5 406.5v19q0 249 119 398.5t320 149.5q176 0 283 -115t111 -309h-264q-5 92 -40.5 140.5t-94.5 48.5q-77 0 -114.5 -76.5t-37.5 -264.5q0 -168 39 -239.5t115 -71.5z"/>
    <glyph glyph-name="d.ss06" horiz-adv-x="1037" d="M71 550q0 249 103 400.5t273 151.5q120 0 201 -93v527h283v-1536h-245l-17 103q-87 -123 -224 -123q-166 0 -270 153.5t-104 416.5zM354 529q0 -143 43.5 -228t121.5 -85q84 0 129 81v485q-46 83 -127 83q-79 0 -123 -85t-44 -251z"/>
    <glyph glyph-name="g.ss06" horiz-adv-x="1034" d="M71 551q0 247 102 399t274 152q146 0 226 -107l13 87h245v-1010q-3 -235 -122.5 -366.5t-336.5 -131.5q-73 0 -145 20t-125 54l42 209q103 -56 196 -56q106 0 156 66.5t52 203.5q-79 -91 -203 -91q-167 0 -270.5 154t-103.5 417zM354 530q0 -144 43.5 -229t121.5 -85 q87 0 129 74v498q-43 77 -127 77q-79 0 -123 -85t-44 -250z"/>
    <glyph glyph-name="o.ss06" horiz-adv-x="1040" d="M66 551q0 159 56 286t159 196t238 69q195 0 319 -139.5t135 -371.5l1 -61q0 -161 -56.5 -287.5t-159.5 -194.5t-237 -68q-206 0 -330.5 152t-124.5 405v14zM348 530q0 -150 45 -232.5t128 -82.5q81 0 126 83.5t45 252.5q0 144 -45.5 230t-127.5 86q-81 0 -126 -85.5 t-45 -251.5z"/>
    <glyph glyph-name="p.ss06" horiz-adv-x="1035" d="M963 530q0 -245 -102 -397.5t-270 -152.5q-126 0 -205 92v-488h-283v1498h261l9 -86q83 106 216 106q170 0 272 -149t102 -423zM681 551q0 145 -45 229.5t-123 84.5q-86 0 -127 -76v-501q42 -73 129 -73q77 0 121.5 84.5t44.5 251.5z"/>
    <glyph glyph-name="q.ss06" horiz-adv-x="1039" d="M71 550q0 252 103 402t274 150q136 0 222 -115l16 95h245v-1498h-283v486q-80 -90 -202 -90q-167 0 -271 152t-104 418zM354 529q0 -143 44 -228.5t122 -85.5q86 0 128 71v506q-44 75 -126 75q-79 0 -123.5 -85t-44.5 -253z"/>
    <glyph glyph-name="e.ss07" horiz-adv-x="982" d="M557 -20q-215 0 -347 147t-132 391v30q0 250 117.5 402t315.5 152q195 0 303.5 -137t108.5 -390v-129h-560q27 -231 235 -231q58 0 124 19.5t111 51.5l50 -203q-57 -47 -144 -75t-182 -28zM511 867q-129 0 -147 -223h281v26q0 197 -134 197z"/>
    <glyph glyph-name="g.ss07" horiz-adv-x="1030" d="M67 551q0 255 95.5 403t262.5 148q146 0 225 -106l13 86h247v-1011q-2 -236 -122.5 -366.5t-337.5 -130.5q-150 0 -259 69l42 209q98 -51 186 -51q108 0 157.5 67t50.5 204q-79 -92 -203 -92q-162 0 -259.5 149.5t-97.5 421.5zM349 530q0 -314 149 -314q89 0 129 83v481 q-40 85 -127 85q-75 0 -113 -79.5t-38 -255.5z"/>
    <glyph glyph-name="glyph552" horiz-adv-x="950" d="M776 1255h-202l-118 126l-119 -126h-202l245 230h150zM201 1388h-157l-202 272h219z"/>
    <glyph glyph-name="glyph553" horiz-adv-x="907" d="M776 1260h-195l-125 133l-127 -133h-194l240 230h160zM682 1387l-13 113q94 8 94 55q0 59 -92 59l7 114q127 0 189.5 -43.5t62.5 -120.5q0 -47 -26.5 -80.5t-73.5 -41.5v-55h-148z"/>
    <glyph glyph-name="glyph554" horiz-adv-x="948" d="M776 1260h-195l-125 126l-127 -126h-194l246 225h149zM672 1697q0 -63 -33 -109.5t-81 -46.5q-38 0 -94 32t-84 32q-18 0 -28.5 -21t-10.5 -50l-93 29q0 64 31.5 111t80.5 47q28 0 89.5 -31.5t88.5 -31.5q16 0 28 22.5t12 53.5z"/>
    <glyph glyph-name="glyph555" horiz-adv-x="826" d="M707 1456q0 -105 -82.5 -169.5t-220.5 -64.5q-137 0 -220 65t-83 169h184q0 -55 31.5 -83.5t87.5 -28.5t87.5 28.5t31.5 83.5h184zM431 1645h194l-147 -187h-143z"/>
    <glyph glyph-name="glyph556" horiz-adv-x="827" d="M714 1456q0 -104 -82 -168t-223 -64t-224.5 63.5t-83.5 168.5h186q0 -50 31 -78.5t91 -28.5q58 0 89 28.5t31 78.5h185zM316 1487l-16 106q106 4 106 49q0 32 -27 42.5t-76 10.5l6 107q151 0 224.5 -40t73.5 -111q0 -45 -30 -74.5t-85 -37.5l-1 -52h-175z"/>
    <glyph glyph-name="glyph557" horiz-adv-x="817" d="M707 1456q0 -107 -84 -172t-221 -65q-136 0 -220 65t-84 172h184q0 -53 32.5 -80.5t87.5 -27.5q59 0 90 29t31 79h184zM652 1729q0 -75 -41 -128t-98 -53q-46 0 -106 33.5t-94 33.5q-22 0 -36 -24.5t-14 -61.5l-113 34q0 75 40 129t99 54q35 0 100.5 -33.5t99.5 -33.5 q20 0 34.5 24.5t14.5 61.5z"/>
    <glyph glyph-name="glyph558" horiz-adv-x="450" d="M364 -357h-283v564h283v-564z"/>
    <glyph glyph-name="afii10050.c2sc" horiz-adv-x="854" d="M533 1476h282v-547h-440v-929h-283v1165h441v311z"/>
    <glyph glyph-name="glyph560" horiz-adv-x="511" d="M409 261v-305q-3 -189 -91.5 -291t-245.5 -102q-69 0 -125 17l12 233q39 -12 82 -12q81 0 83 158v302h285z"/>
    <glyph glyph-name="zero.frac" horiz-adv-x="687" d="M610 974q0 -152 -70 -236.5t-196 -84.5q-128 0 -197.5 84t-70.5 232v171q0 150 70 237t196 87q122 0 194 -83t74 -233v-174zM412 1148q0 150 -70 150q-66 0 -68 -140v-192q0 -148 70 -148q67 0 68 141v189z"/>
    <glyph glyph-name="four.frac" horiz-adv-x="687" d="M550 991h64v-168h-64v-159h-197v159h-278l-12 136l290 494h197v-462zM248 991h105v201l-8 -13z"/>
    <glyph glyph-name="five.frac" horiz-adv-x="687" d="M84 1045l46 408h432v-162h-272l-14 -134q57 26 102 26q114 0 170.5 -66t56.5 -188q0 -120 -73 -198t-193 -78q-114 0 -192 66.5t-78 167.5h197q2 -69 73 -69q69 0 69 112t-84 112q-54 0 -84 -37z"/>
    <glyph glyph-name="six.frac" horiz-adv-x="687" d="M505 1469v-168q-115 0 -165 -40.5t-65 -126.5q57 57 139 57q98 0 154.5 -70t56.5 -194q0 -118 -76 -196t-193 -78q-131 0 -206 81.5t-77 232.5v59q0 208 106.5 325.5t302.5 117.5h23zM350 1027q-55 0 -80 -43v-44q0 -64 19 -93t61 -29q33 0 55.5 32t22.5 79q0 98 -78 98z "/>
    <glyph glyph-name="seven.frac" horiz-adv-x="687" d="M608 1337l-269 -673h-208l270 623h-341v166h548v-116z"/>
    <glyph glyph-name="eight.frac" horiz-adv-x="687" d="M593 1240q0 -115 -96 -170q110 -60 110 -188q0 -109 -70 -169t-193 -60q-122 0 -194 60t-72 169q0 127 111 188q-97 55 -97 170q0 106 68.5 165t181.5 59q116 0 183.5 -59.5t67.5 -164.5zM410 903q0 80 -68 80q-65 0 -65 -80q0 -40 18 -62.5t49 -22.5q66 0 66 85z M395 1226q0 73 -53 73q-51 0 -51 -73q0 -77 53 -77q51 0 51 77z"/>
    <glyph glyph-name="nine.frac" horiz-adv-x="687" d="M406 958q-52 -43 -110 -43q-102 0 -161.5 65.5t-59.5 196.5q0 120 76.5 203.5t189.5 83.5q122 0 193.5 -82.5t73.5 -232.5v-64q0 -215 -97.5 -324t-306.5 -109v163q109 0 150 34.5t52 108.5zM351 1068q38 0 59 31v83q0 116 -69 116q-33 0 -50.5 -36.5t-17.5 -87.5 q0 -106 78 -106z"/>
    <glyph glyph-name="K.ss05" horiz-adv-x="1160" d="M413 619v-619h-294v1456h294v-638l347 638h362l-436 -722l459 -734h-365z"/>
    <glyph glyph-name="one.pnum" horiz-adv-x="878" d="M661 0h-284v1112l-277 -107v236l531 217h30v-1458z"/>
    <glyph glyph-name="nine.oldstyle" horiz-adv-x="1047" d="M443 -86q204 0 244 320q-95 -72 -218 -72q-174 0 -271.5 136.5t-97.5 366.5q0 145 54 264t151 187t216 68q206 0 331.5 -154t127.5 -412v-176q0 -237 -60.5 -408.5t-175 -263t-266.5 -91.5q-125 0 -260 62l52 218q101 -45 173 -45zM535 385q101 0 163 71v192 q0 144 -44 222.5t-118 78.5q-67 0 -111 -81.5t-44 -202.5q0 -131 41.5 -205.5t112.5 -74.5z"/>
    <glyph glyph-name="OE.c2sc" horiz-adv-x="1441" d="M1402 0h-575l-292 -16q-136 0 -243.5 70t-167 202t-59.5 303v45q0 172 58.5 303.5t165.5 202.5t244 71l290 -16h581v-236h-453v-210h379v-235h-379v-250h451v-234zM535 216l133 7v715l-135 9q-91 0 -138 -88.5t-47 -253.5v-46q0 -166 49.5 -254.5t137.5 -88.5z"/>
    <glyph glyph-name="zero.oldstyle" horiz-adv-x="1071" d="M988 574q0 -279 -123 -437t-332 -158q-199 0 -323 144.5t-135 400.5l-1 63q0 276 122.5 436t334.5 160q209 0 333 -158.5t124 -450.5zM706 608q0 162 -46.5 251t-128.5 89q-81 0 -127 -89.5t-46 -248.5v-54q0 -161 45.5 -251.5t129.5 -90.5q80 0 125.5 86.5t47.5 241.5 v66z"/>
    <glyph glyph-name="seven.pnum" horiz-adv-x="970" d="M894 1293l-437 -1293h-283l439 1221h-546v235h827v-163z"/>
    <glyph glyph-name="glyph574" horiz-adv-x="548" d="M423 1082v-1122q-2 -191 -90.5 -294t-245.5 -103q-70 0 -126 17l13 231q43 -13 82 -13q84 0 84 175v1109h283z"/>
    <glyph glyph-name="glyph575" horiz-adv-x="551" d="M423 1082v-1122q-2 -191 -90.5 -294t-245.5 -103q-70 0 -126 17l13 231q43 -13 82 -13q84 0 84 175v1109h283z"/>
    <glyph glyph-name="glyph576" horiz-adv-x="537" d="M407 0h-283v1082h283v-1082z"/>
    <glyph glyph-name="glyph577" horiz-adv-x="537" d="M407 0h-283v1082h283v-1082zM350 10q-64 -42 -94 -82t-30 -93q0 -65 51 -65q25 0 62 20l27 -158q-65 -44 -146 -44q-91 0 -147 57t-56 152t46 159.5t144 113.5z"/>
    <glyph glyph-name="glyph578" horiz-adv-x="537" d="M407 0h-283v1082h283v-1082z"/>
    <glyph glyph-name="germandbls.c2sc" horiz-adv-x="1003" d="M487 253q47 -47 92 -47q38 0 60 40t22 107q0 139 -152 141h-77v182l121 217q-41 59 -90 59q-42 0 -69 -52.5t-27 -155.5v-744h-275v749q1 214 98 322.5t277 108.5q124 0 219.5 -62.5t176.5 -176.5l-186 -269q122 -29 191 -109.5t69 -208.5q0 -170 -90 -272.5t-235 -102.5 q-118 0 -204 59z"/>
    <glyph glyph-name="uni00A0" unicode=" " horiz-adv-x="472"/>
    <glyph glyph-name="uni00AD" unicode="­" horiz-adv-x="744" d="M612 506h-489v236h489v-236z"/>
    <glyph glyph-name="Dcroat" unicode="Đ" horiz-adv-x="1187" d="M147 0v641h-156v183h156v632h385q255 0 406.5 -162t154.5 -444v-236q0 -287 -151.5 -450.5t-417.5 -163.5h-377zM598 641h-157v-397h102q139 3 196 81.5t60 266.5v250q0 204 -57 284.5t-194 84.5h-107v-387h157v-183z"/>
    <glyph glyph-name="Eth" unicode="Ð" horiz-adv-x="1187" d="M147 0v641h-156v183h156v632h385q255 0 406.5 -162t154.5 -444v-236q0 -287 -151.5 -450.5t-417.5 -163.5h-377zM598 641h-157v-397h102q139 3 196 81.5t60 266.5v250q0 204 -57 284.5t-194 84.5h-107v-387h157v-183z"/>
    <glyph glyph-name="hbar" unicode="ħ" horiz-adv-x="1038" d="M570 1215h-161v-228q92 115 226 115q148 0 225 -104t78 -310v-688h-284v685q0 95 -29.5 137.5t-95.5 42.5q-77 0 -120 -71v-794h-283v1215h-163v183h163v138h283v-138h161v-183z"/>
    <glyph glyph-name="Tbar" unicode="Ŧ" horiz-adv-x="1112" d="M844 746h-144v-746h-295v746h-168v183h168v282h-354v245h1009v-245h-360v-282h144v-183z"/>
    <glyph glyph-name="tbar" unicode="ŧ" horiz-adv-x="629" d="M432 1348v-266h145v-213h-145v-157h159v-183h-159v-197q0 -64 17.5 -88t67.5 -24q41 0 67 7l-2 -220q-72 -27 -156 -27q-272 0 -277 309v240h-165v183h165v157h-125v213h125v266h283z"/>
    <glyph glyph-name="Agrave" unicode="À" horiz-adv-x="1223" d="M812 298h-401l-78 -298h-311l455 1456h269l458 -1456h-314zM475 543h272l-136 519zM758 1536h-239l-276 310h317z"/>
    <glyph glyph-name="Aacute" unicode="Á" horiz-adv-x="1223" d="M812 298h-401l-78 -298h-311l455 1456h269l458 -1456h-314zM475 543h272l-136 519zM671 1846h318l-278 -310h-236z"/>
    <glyph glyph-name="Acircumflex" unicode="Â" horiz-adv-x="1223" d="M812 298h-401l-78 -298h-311l455 1456h269l458 -1456h-314zM475 543h272l-136 519zM960 1566v-12h-221l-125 144l-125 -144h-216v16l260 276h162z"/>
    <glyph glyph-name="Atilde" unicode="Ã" horiz-adv-x="1223" d="M812 298h-401l-78 -298h-311l455 1456h269l458 -1456h-314zM475 543h272l-136 519zM938 1831q0 -111 -56.5 -188.5t-142.5 -77.5q-32 0 -56.5 9t-69 37t-63 34t-40.5 6q-27 0 -45 -24.5t-18 -70.5l-160 9q0 111 57 189.5t140 78.5q22 0 42.5 -6.5t71 -35t72.5 -36 t44 -7.5q26 0 45.5 24.5t19.5 70.5z"/>
    <glyph glyph-name="Adieresis" unicode="Ä" horiz-adv-x="1223" d="M812 298h-401l-78 -298h-311l455 1456h269l458 -1456h-314zM475 543h272l-136 519zM229 1675q0 55 40.5 91.5t98.5 36.5t98.5 -36.5t40.5 -91.5q0 -54 -40.5 -90.5t-98.5 -36.5t-98.5 36.5t-40.5 90.5zM718 1675q0 54 40.5 90.5t98.5 36.5t98.5 -36.5t40.5 -90.5 q0 -52 -38.5 -89.5t-100.5 -37.5t-100.5 37.5t-38.5 89.5z"/>
    <glyph glyph-name="Aring" unicode="Å" horiz-adv-x="1223" d="M812 298h-401l-78 -298h-311l455 1456h269l458 -1456h-314zM475 543h272l-136 519zM392 1730q0 86 65 145.5t158 59.5q92 0 157.5 -58.5t65.5 -146.5q0 -85 -64 -143t-159 -58q-97 0 -160 59t-63 142zM615 1623q50 0 79 31t29 76q0 46 -29.5 77.5t-78.5 31.5 q-47 0 -77 -31t-30 -78t30.5 -77t76.5 -30z"/>
    <glyph glyph-name="Aringacute" unicode="Ǻ" horiz-adv-x="1223" d="M812 298h-401l-78 -298h-311l455 1456h269l458 -1456h-314zM475 543h272l-136 519zM706 2000h250l-241 -208h-170zM433 1566q0 80 53 133.5t128 53.5q73 0 125 -53t52 -134q0 -80 -50.5 -132t-126.5 -52q-78 0 -129.5 52.5t-51.5 131.5zM538 1566q0 -39 21.5 -64 t54.5 -25q32 0 52 25t20 64q0 40 -20 65.5t-52 25.5q-33 0 -54.5 -25.5t-21.5 -65.5z"/>
    <glyph glyph-name="Ccedilla" unicode="Ç" horiz-adv-x="1168" d="M1104 485q-11 -249 -140 -377t-364 -128q-247 0 -378.5 162.5t-131.5 463.5v245q0 300 136 462.5t378 162.5q238 0 361.5 -133t140.5 -382h-295q-4 154 -47.5 212.5t-159.5 58.5q-118 0 -167 -82.5t-52 -271.5v-275q0 -217 48.5 -298t166.5 -81q116 0 160 56.5t50 204.5 h294zM706 6l-9 -58q58 -13 89.5 -57.5t31.5 -115.5q0 -110 -79 -174t-226 -64l-6 167q73 0 73 82q0 40 -25.5 56t-86.5 21l27 143h211z"/>
    <glyph glyph-name="Egrave" unicode="È" horiz-adv-x="1005" d="M869 630h-458v-386h542v-244h-836v1456h834v-245h-540v-344h458v-237zM700 1539h-239l-276 310h317z"/>
    <glyph glyph-name="Eacute" unicode="É" horiz-adv-x="1005" d="M869 630h-458v-386h542v-244h-836v1456h834v-245h-540v-344h458v-237zM613 1849h318l-278 -310h-236z"/>
    <glyph glyph-name="Ecircumflex" unicode="Ê" horiz-adv-x="1005" d="M869 630h-458v-386h542v-244h-836v1456h834v-245h-540v-344h458v-237zM902 1569v-12h-221l-125 144l-125 -144h-216v16l260 276h162z"/>
    <glyph glyph-name="Edieresis" unicode="Ë" horiz-adv-x="1005" d="M869 630h-458v-386h542v-244h-836v1456h834v-245h-540v-344h458v-237zM171 1678q0 55 40.5 91.5t98.5 36.5t98.5 -36.5t40.5 -91.5q0 -54 -40.5 -90.5t-98.5 -36.5t-98.5 36.5t-40.5 90.5zM660 1678q0 54 40.5 90.5t98.5 36.5t98.5 -36.5t40.5 -90.5q0 -52 -38.5 -89.5 t-100.5 -37.5t-100.5 37.5t-38.5 89.5z"/>
    <glyph glyph-name="Igrave" unicode="Ì" horiz-adv-x="554" d="M424 0h-294v1456h294v-1456zM420 1539h-239l-276 310h317z"/>
    <glyph glyph-name="Iacute" unicode="Í" horiz-adv-x="554" d="M424 0h-294v1456h294v-1456zM332 1849h318l-278 -310h-236z"/>
    <glyph glyph-name="Icircumflex" unicode="Î" horiz-adv-x="554" d="M424 0h-294v1456h294v-1456zM622 1569v-12h-221l-125 144l-125 -144h-216v16l260 276h162z"/>
    <glyph glyph-name="Idieresis" unicode="Ï" horiz-adv-x="554" d="M424 0h-294v1456h294v-1456zM-109 1678q0 55 40.5 91.5t98.5 36.5t98.5 -36.5t40.5 -91.5q0 -54 -40.5 -90.5t-98.5 -36.5t-98.5 36.5t-40.5 90.5zM380 1678q0 54 40.5 90.5t98.5 36.5t98.5 -36.5t40.5 -90.5q0 -52 -38.5 -89.5t-100.5 -37.5t-100.5 37.5t-38.5 89.5z "/>
    <glyph glyph-name="Ntilde" unicode="Ñ" horiz-adv-x="1254" d="M1135 0h-294l-430 955v-955h-294v1456h294l431 -956v956h293v-1456zM954 1831q0 -111 -56.5 -188.5t-142.5 -77.5q-32 0 -56.5 9t-69 37t-63 34t-40.5 6q-27 0 -45 -24.5t-18 -70.5l-160 9q0 111 57 189.5t140 78.5q22 0 42.5 -6.5t71 -35t72.5 -36t44 -7.5 q26 0 45.5 24.5t19.5 70.5z"/>
    <glyph glyph-name="Ograve" unicode="Ò" horiz-adv-x="1236" d="M1142 597q0 -293 -138.5 -455t-384.5 -162q-245 0 -385 160.5t-142 449.5v249q0 300 139 468.5t386 168.5q243 0 383 -165.5t142 -464.5v-249zM847 841q0 197 -56 293t-174 96q-117 0 -173 -92.5t-58 -281.5v-259q0 -191 57 -281.5t176 -90.5q115 0 171 88.5t57 274.5 v253zM762 1536h-239l-276 310h317z"/>
    <glyph glyph-name="Oacute" unicode="Ó" horiz-adv-x="1236" d="M1142 597q0 -293 -138.5 -455t-384.5 -162q-245 0 -385 160.5t-142 449.5v249q0 300 139 468.5t386 168.5q243 0 383 -165.5t142 -464.5v-249zM847 841q0 197 -56 293t-174 96q-117 0 -173 -92.5t-58 -281.5v-259q0 -191 57 -281.5t176 -90.5q115 0 171 88.5t57 274.5 v253zM675 1846h318l-278 -310h-236z"/>
    <glyph glyph-name="Ocircumflex" unicode="Ô" horiz-adv-x="1236" d="M1142 597q0 -293 -138.5 -455t-384.5 -162q-245 0 -385 160.5t-142 449.5v249q0 300 139 468.5t386 168.5q243 0 383 -165.5t142 -464.5v-249zM847 841q0 197 -56 293t-174 96q-117 0 -173 -92.5t-58 -281.5v-259q0 -191 57 -281.5t176 -90.5q115 0 171 88.5t57 274.5 v253zM964 1566v-12h-221l-125 144l-125 -144h-216v16l260 276h162z"/>
    <glyph glyph-name="Otilde" unicode="Õ" horiz-adv-x="1236" d="M1142 597q0 -293 -138.5 -455t-384.5 -162q-245 0 -385 160.5t-142 449.5v249q0 300 139 468.5t386 168.5q243 0 383 -165.5t142 -464.5v-249zM847 841q0 197 -56 293t-174 96q-117 0 -173 -92.5t-58 -281.5v-259q0 -191 57 -281.5t176 -90.5q115 0 171 88.5t57 274.5 v253zM942 1831q0 -111 -56.5 -188.5t-142.5 -77.5q-32 0 -56.5 9t-69 37t-63 34t-40.5 6q-27 0 -45 -24.5t-18 -70.5l-160 9q0 111 57 189.5t140 78.5q22 0 42.5 -6.5t71 -35t72.5 -36t44 -7.5q26 0 45.5 24.5t19.5 70.5z"/>
    <glyph glyph-name="Odieresis" unicode="Ö" horiz-adv-x="1236" d="M1142 597q0 -293 -138.5 -455t-384.5 -162q-245 0 -385 160.5t-142 449.5v249q0 300 139 468.5t386 168.5q243 0 383 -165.5t142 -464.5v-249zM847 841q0 197 -56 293t-174 96q-117 0 -173 -92.5t-58 -281.5v-259q0 -191 57 -281.5t176 -90.5q115 0 171 88.5t57 274.5 v253zM233 1675q0 55 40.5 91.5t98.5 36.5t98.5 -36.5t40.5 -91.5q0 -54 -40.5 -90.5t-98.5 -36.5t-98.5 36.5t-40.5 90.5zM722 1675q0 54 40.5 90.5t98.5 36.5t98.5 -36.5t40.5 -90.5q0 -52 -38.5 -89.5t-100.5 -37.5t-100.5 37.5t-38.5 89.5z"/>
    <glyph glyph-name="Ugrave" unicode="Ù" horiz-adv-x="1170" d="M1064 1456v-1008q-2 -227 -125 -347.5t-353 -120.5q-234 0 -357.5 122t-123.5 353v1001h296v-1002q0 -124 40 -177t145 -53t144 52.5t40 172.5v1007h294zM722 1536h-239l-276 310h317z"/>
    <glyph glyph-name="Uacute" unicode="Ú" horiz-adv-x="1170" d="M1064 1456v-1008q-2 -227 -125 -347.5t-353 -120.5q-234 0 -357.5 122t-123.5 353v1001h296v-1002q0 -124 40 -177t145 -53t144 52.5t40 172.5v1007h294zM635 1846h318l-278 -310h-236z"/>
    <glyph glyph-name="Ucircumflex" unicode="Û" horiz-adv-x="1170" d="M1064 1456v-1008q-2 -227 -125 -347.5t-353 -120.5q-234 0 -357.5 122t-123.5 353v1001h296v-1002q0 -124 40 -177t145 -53t144 52.5t40 172.5v1007h294zM924 1566v-12h-221l-125 144l-125 -144h-216v16l260 276h162z"/>
    <glyph glyph-name="Udieresis" unicode="Ü" horiz-adv-x="1170" d="M1064 1456v-1008q-2 -227 -125 -347.5t-353 -120.5q-234 0 -357.5 122t-123.5 353v1001h296v-1002q0 -124 40 -177t145 -53t144 52.5t40 172.5v1007h294zM193 1675q0 55 40.5 91.5t98.5 36.5t98.5 -36.5t40.5 -91.5q0 -54 -40.5 -90.5t-98.5 -36.5t-98.5 36.5t-40.5 90.5 zM682 1675q0 54 40.5 90.5t98.5 36.5t98.5 -36.5t40.5 -90.5q0 -52 -38.5 -89.5t-100.5 -37.5t-100.5 37.5t-38.5 89.5z"/>
    <glyph glyph-name="Yacute" unicode="Ý" horiz-adv-x="1111" d="M556 802l219 654h320l-390 -928v-528h-298v528l-391 928h320zM615 1846h318l-278 -310h-236z"/>
    <glyph glyph-name="agrave" unicode="à" horiz-adv-x="964" d="M617 0q-12 25 -24 84q-76 -104 -206 -104q-136 0 -225.5 90t-89.5 233q0 170 108.5 263t312.5 95h86v87q0 73 -25 103t-73 30q-106 0 -106 -124h-283q0 150 112.5 247.5t284.5 97.5q178 0 275.5 -92.5t97.5 -264.5v-509q2 -140 40 -219v-17h-285zM450 202q47 0 80 19 t49 45v225h-68q-72 0 -113.5 -46t-41.5 -123q0 -120 94 -120zM622 1226h-239l-276 310h317z"/>
    <glyph glyph-name="aacute" unicode="á" horiz-adv-x="964" d="M617 0q-12 25 -24 84q-76 -104 -206 -104q-136 0 -225.5 90t-89.5 233q0 170 108.5 263t312.5 95h86v87q0 73 -25 103t-73 30q-106 0 -106 -124h-283q0 150 112.5 247.5t284.5 97.5q178 0 275.5 -92.5t97.5 -264.5v-509q2 -140 40 -219v-17h-285zM450 202q47 0 80 19 t49 45v225h-68q-72 0 -113.5 -46t-41.5 -123q0 -120 94 -120zM535 1536h318l-278 -310h-236z"/>
    <glyph glyph-name="acircumflex" unicode="â" horiz-adv-x="964" d="M617 0q-12 25 -24 84q-76 -104 -206 -104q-136 0 -225.5 90t-89.5 233q0 170 108.5 263t312.5 95h86v87q0 73 -25 103t-73 30q-106 0 -106 -124h-283q0 150 112.5 247.5t284.5 97.5q178 0 275.5 -92.5t97.5 -264.5v-509q2 -140 40 -219v-17h-285zM450 202q47 0 80 19 t49 45v225h-68q-72 0 -113.5 -46t-41.5 -123q0 -120 94 -120zM824 1256v-12h-221l-125 144l-125 -144h-216v16l260 276h162z"/>
    <glyph glyph-name="atilde" unicode="ã" horiz-adv-x="964" d="M617 0q-12 25 -24 84q-76 -104 -206 -104q-136 0 -225.5 90t-89.5 233q0 170 108.5 263t312.5 95h86v87q0 73 -25 103t-73 30q-106 0 -106 -124h-283q0 150 112.5 247.5t284.5 97.5q178 0 275.5 -92.5t97.5 -264.5v-509q2 -140 40 -219v-17h-285zM450 202q47 0 80 19 t49 45v225h-68q-72 0 -113.5 -46t-41.5 -123q0 -120 94 -120zM802 1522q0 -111 -56.5 -188.5t-142.5 -77.5q-32 0 -56.5 9t-69 37t-63 34t-40.5 6q-27 0 -45 -24.5t-18 -70.5l-160 9q0 111 57 189.5t140 78.5q22 0 42.5 -6.5t71 -35t72.5 -36t44 -7.5q26 0 45.5 24.5 t19.5 70.5z"/>
    <glyph glyph-name="adieresis" unicode="ä" horiz-adv-x="964" d="M617 0q-12 25 -24 84q-76 -104 -206 -104q-136 0 -225.5 90t-89.5 233q0 170 108.5 263t312.5 95h86v87q0 73 -25 103t-73 30q-106 0 -106 -124h-283q0 150 112.5 247.5t284.5 97.5q178 0 275.5 -92.5t97.5 -264.5v-509q2 -140 40 -219v-17h-285zM450 202q47 0 80 19 t49 45v225h-68q-72 0 -113.5 -46t-41.5 -123q0 -120 94 -120zM93 1365q0 55 40.5 91.5t98.5 36.5t98.5 -36.5t40.5 -91.5q0 -54 -40.5 -90.5t-98.5 -36.5t-98.5 36.5t-40.5 90.5zM582 1365q0 54 40.5 90.5t98.5 36.5t98.5 -36.5t40.5 -90.5q0 -52 -38.5 -89.5t-100.5 -37.5 t-100.5 37.5t-38.5 89.5z"/>
    <glyph glyph-name="aring" unicode="å" horiz-adv-x="964" d="M617 0q-12 25 -24 84q-76 -104 -206 -104q-136 0 -225.5 90t-89.5 233q0 170 108.5 263t312.5 95h86v87q0 73 -25 103t-73 30q-106 0 -106 -124h-283q0 150 112.5 247.5t284.5 97.5q178 0 275.5 -92.5t97.5 -264.5v-509q2 -140 40 -219v-17h-285zM450 202q47 0 80 19 t49 45v225h-68q-72 0 -113.5 -46t-41.5 -123q0 -120 94 -120zM256 1420q0 86 65 145.5t158 59.5q92 0 157.5 -58.5t65.5 -146.5q0 -85 -64 -143t-159 -58q-97 0 -160 59t-63 142zM479 1313q50 0 79 31t29 76q0 46 -29.5 77.5t-78.5 31.5q-47 0 -77 -31t-30 -78t30.5 -77 t76.5 -30z"/>
    <glyph glyph-name="aringacute" unicode="ǻ" horiz-adv-x="964" d="M617 0q-12 25 -24 84q-76 -104 -206 -104q-136 0 -225.5 90t-89.5 233q0 170 108.5 263t312.5 95h86v87q0 73 -25 103t-73 30q-106 0 -106 -124h-283q0 150 112.5 247.5t284.5 97.5q178 0 275.5 -92.5t97.5 -264.5v-509q2 -140 40 -219v-17h-285zM450 202q47 0 80 19 t49 45v225h-68q-72 0 -113.5 -46t-41.5 -123q0 -120 94 -120zM570 1691h250l-241 -208h-170zM297 1257q0 80 53 133.5t128 53.5q73 0 125 -53t52 -134q0 -80 -50.5 -132t-126.5 -52q-78 0 -129.5 52.5t-51.5 131.5zM402 1257q0 -39 21.5 -64t54.5 -25q32 0 52 25t20 64 q0 40 -20 65.5t-52 25.5q-33 0 -54.5 -25.5t-21.5 -65.5z"/>
    <glyph glyph-name="ccedilla" unicode="ç" horiz-adv-x="942" d="M494 215q123 0 125 160h266q-2 -177 -109 -286t-276 -109q-209 0 -319 130t-112 383v86q0 255 108.5 389t320.5 134q179 0 282 -110.5t105 -313.5h-266q-1 91 -30 140t-96 49q-74 0 -106 -52.5t-34 -203.5v-110q0 -132 13 -184.5t43 -77t85 -24.5zM596 6l-9 -58 q58 -13 89.5 -57.5t31.5 -115.5q0 -110 -79 -174t-226 -64l-6 167q73 0 73 82q0 40 -25.5 56t-86.5 21l27 143h211z"/>
    <glyph glyph-name="egrave" unicode="è" d="M540 -20q-218 0 -340 130t-122 372v86q0 256 112 395t321 139q204 0 307 -130.5t105 -386.5v-139h-563q6 -120 53 -175.5t145 -55.5q142 0 237 97l111 -171q-52 -72 -151 -116.5t-215 -44.5zM362 644h283v26q-2 97 -32 147t-104 50t-107.5 -53t-39.5 -170zM617 1226h-239 l-276 310h317z"/>
    <glyph glyph-name="eacute" unicode="é" d="M540 -20q-218 0 -340 130t-122 372v86q0 256 112 395t321 139q204 0 307 -130.5t105 -386.5v-139h-563q6 -120 53 -175.5t145 -55.5q142 0 237 97l111 -171q-52 -72 -151 -116.5t-215 -44.5zM362 644h283v26q-2 97 -32 147t-104 50t-107.5 -53t-39.5 -170zM530 1536h318 l-278 -310h-236z"/>
    <glyph glyph-name="ecircumflex" unicode="ê" d="M540 -20q-218 0 -340 130t-122 372v86q0 256 112 395t321 139q204 0 307 -130.5t105 -386.5v-139h-563q6 -120 53 -175.5t145 -55.5q142 0 237 97l111 -171q-52 -72 -151 -116.5t-215 -44.5zM362 644h283v26q-2 97 -32 147t-104 50t-107.5 -53t-39.5 -170zM819 1256v-12 h-221l-125 144l-125 -144h-216v16l260 276h162z"/>
    <glyph glyph-name="edieresis" unicode="ë" d="M540 -20q-218 0 -340 130t-122 372v86q0 256 112 395t321 139q204 0 307 -130.5t105 -386.5v-139h-563q6 -120 53 -175.5t145 -55.5q142 0 237 97l111 -171q-52 -72 -151 -116.5t-215 -44.5zM362 644h283v26q-2 97 -32 147t-104 50t-107.5 -53t-39.5 -170zM89 1365 q0 55 40.5 91.5t98.5 36.5t98.5 -36.5t40.5 -91.5q0 -54 -40.5 -90.5t-98.5 -36.5t-98.5 36.5t-40.5 90.5zM578 1365q0 54 40.5 90.5t98.5 36.5t98.5 -36.5t40.5 -90.5q0 -52 -38.5 -89.5t-100.5 -37.5t-100.5 37.5t-38.5 89.5z"/>
    <glyph glyph-name="igrave" unicode="ì" horiz-adv-x="537" d="M407 0h-283v1082h283v-1082zM413 1211h-239l-276 310h317z"/>
    <glyph glyph-name="iacute" unicode="í" horiz-adv-x="537" d="M407 0h-283v1082h283v-1082zM325 1521h318l-278 -310h-236z"/>
    <glyph glyph-name="icircumflex" unicode="î" horiz-adv-x="537" d="M407 0h-283v1082h283v-1082zM615 1241v-12h-221l-125 144l-125 -144h-216v16l260 276h162z"/>
    <glyph glyph-name="idieresis" unicode="ï" horiz-adv-x="537" d="M407 0h-283v1082h283v-1082zM-116 1350q0 55 40.5 91.5t98.5 36.5t98.5 -36.5t40.5 -91.5q0 -54 -40.5 -90.5t-98.5 -36.5t-98.5 36.5t-40.5 90.5zM373 1350q0 54 40.5 90.5t98.5 36.5t98.5 -36.5t40.5 -90.5q0 -52 -38.5 -89.5t-100.5 -37.5t-100.5 37.5t-38.5 89.5z "/>
    <glyph glyph-name="ntilde" unicode="ñ" horiz-adv-x="1008" d="M362 1082l8 -107q96 127 251 127q279 0 287 -391v-711h-284v690q0 92 -27.5 133.5t-96.5 41.5q-77 0 -120 -79v-786h-284v1082h266zM827 1522q0 -111 -56.5 -188.5t-142.5 -77.5q-32 0 -56.5 9t-69 37t-63 34t-40.5 6q-27 0 -45 -24.5t-18 -70.5l-160 9q0 111 57 189.5 t140 78.5q22 0 42.5 -6.5t71 -35t72.5 -36t44 -7.5q26 0 45.5 24.5t19.5 70.5z"/>
    <glyph glyph-name="ograve" unicode="ò" horiz-adv-x="1019" d="M70 576q0 246 116 386t321 140q207 0 323 -140t116 -388v-69q0 -247 -115 -386t-322 -139q-208 0 -323.5 139.5t-115.5 387.5v69zM354 505q0 -290 155 -290q143 0 154 242l1 119q0 148 -41 219.5t-116 71.5q-72 0 -112.5 -71.5t-40.5 -219.5v-71zM649 1226h-239l-276 310 h317z"/>
    <glyph glyph-name="oacute" unicode="ó" horiz-adv-x="1019" d="M70 576q0 246 116 386t321 140q207 0 323 -140t116 -388v-69q0 -247 -115 -386t-322 -139q-208 0 -323.5 139.5t-115.5 387.5v69zM354 505q0 -290 155 -290q143 0 154 242l1 119q0 148 -41 219.5t-116 71.5q-72 0 -112.5 -71.5t-40.5 -219.5v-71zM562 1536h318l-278 -310 h-236z"/>
    <glyph glyph-name="ocircumflex" unicode="ô" horiz-adv-x="1019" d="M70 576q0 246 116 386t321 140q207 0 323 -140t116 -388v-69q0 -247 -115 -386t-322 -139q-208 0 -323.5 139.5t-115.5 387.5v69zM354 505q0 -290 155 -290q143 0 154 242l1 119q0 148 -41 219.5t-116 71.5q-72 0 -112.5 -71.5t-40.5 -219.5v-71zM851 1256v-12h-221 l-125 144l-125 -144h-216v16l260 276h162z"/>
    <glyph glyph-name="otilde" unicode="õ" horiz-adv-x="1019" d="M70 576q0 246 116 386t321 140q207 0 323 -140t116 -388v-69q0 -247 -115 -386t-322 -139q-208 0 -323.5 139.5t-115.5 387.5v69zM354 505q0 -290 155 -290q143 0 154 242l1 119q0 148 -41 219.5t-116 71.5q-72 0 -112.5 -71.5t-40.5 -219.5v-71zM829 1522 q0 -111 -56.5 -188.5t-142.5 -77.5q-32 0 -56.5 9t-69 37t-63 34t-40.5 6q-27 0 -45 -24.5t-18 -70.5l-160 9q0 111 57 189.5t140 78.5q22 0 42.5 -6.5t71 -35t72.5 -36t44 -7.5q26 0 45.5 24.5t19.5 70.5z"/>
    <glyph glyph-name="odieresis" unicode="ö" horiz-adv-x="1019" d="M70 576q0 246 116 386t321 140q207 0 323 -140t116 -388v-69q0 -247 -115 -386t-322 -139q-208 0 -323.5 139.5t-115.5 387.5v69zM354 505q0 -290 155 -290q143 0 154 242l1 119q0 148 -41 219.5t-116 71.5q-72 0 -112.5 -71.5t-40.5 -219.5v-71zM120 1365 q0 55 40.5 91.5t98.5 36.5t98.5 -36.5t40.5 -91.5q0 -54 -40.5 -90.5t-98.5 -36.5t-98.5 36.5t-40.5 90.5zM609 1365q0 54 40.5 90.5t98.5 36.5t98.5 -36.5t40.5 -90.5q0 -52 -38.5 -89.5t-100.5 -37.5t-100.5 37.5t-38.5 89.5z"/>
    <glyph glyph-name="ugrave" unicode="ù" horiz-adv-x="1008" d="M635 99q-88 -119 -236 -119q-149 0 -226 102.5t-77 298.5v701h283v-708q2 -158 105 -158q97 0 140 84v782h285v-1082h-266zM643 1226h-239l-276 310h317z"/>
    <glyph glyph-name="uacute" unicode="ú" horiz-adv-x="1008" d="M635 99q-88 -119 -236 -119q-149 0 -226 102.5t-77 298.5v701h283v-708q2 -158 105 -158q97 0 140 84v782h285v-1082h-266zM556 1536h318l-278 -310h-236z"/>
    <glyph glyph-name="ucircumflex" unicode="û" horiz-adv-x="1008" d="M635 99q-88 -119 -236 -119q-149 0 -226 102.5t-77 298.5v701h283v-708q2 -158 105 -158q97 0 140 84v782h285v-1082h-266zM845 1256v-12h-221l-125 144l-125 -144h-216v16l260 276h162z"/>
    <glyph glyph-name="udieresis" unicode="ü" horiz-adv-x="1008" d="M635 99q-88 -119 -236 -119q-149 0 -226 102.5t-77 298.5v701h283v-708q2 -158 105 -158q97 0 140 84v782h285v-1082h-266zM114 1365q0 55 40.5 91.5t98.5 36.5t98.5 -36.5t40.5 -91.5q0 -54 -40.5 -90.5t-98.5 -36.5t-98.5 36.5t-40.5 90.5zM603 1365q0 54 40.5 90.5 t98.5 36.5t98.5 -36.5t40.5 -90.5q0 -52 -38.5 -89.5t-100.5 -37.5t-100.5 37.5t-38.5 89.5z"/>
    <glyph glyph-name="yacute" unicode="ý" horiz-adv-x="914" d="M450 471l144 611h302l-356 -1244q-80 -275 -301 -275q-51 0 -116 19v221l33 -1q66 0 99.5 25.5t50.5 88.5l22 73l-312 1093h304zM515 1536h318l-278 -310h-236z"/>
    <glyph glyph-name="ydieresis" unicode="ÿ" horiz-adv-x="914" d="M450 471l144 611h302l-356 -1244q-80 -275 -301 -275q-51 0 -116 19v221l33 -1q66 0 99.5 25.5t50.5 88.5l22 73l-312 1093h304zM74 1365q0 55 40.5 91.5t98.5 36.5t98.5 -36.5t40.5 -91.5q0 -54 -40.5 -90.5t-98.5 -36.5t-98.5 36.5t-40.5 90.5zM563 1365 q0 54 40.5 90.5t98.5 36.5t98.5 -36.5t40.5 -90.5q0 -52 -38.5 -89.5t-100.5 -37.5t-100.5 37.5t-38.5 89.5z"/>
    <glyph glyph-name="Amacron" unicode="Ā" horiz-adv-x="1223" d="M812 298h-401l-78 -298h-311l455 1456h269l458 -1456h-314zM475 543h272l-136 519zM932 1598h-631v167h631v-167z"/>
    <glyph glyph-name="amacron" unicode="ā" horiz-adv-x="964" d="M617 0q-12 25 -24 84q-76 -104 -206 -104q-136 0 -225.5 90t-89.5 233q0 170 108.5 263t312.5 95h86v87q0 73 -25 103t-73 30q-106 0 -106 -124h-283q0 150 112.5 247.5t284.5 97.5q178 0 275.5 -92.5t97.5 -264.5v-509q2 -140 40 -219v-17h-285zM450 202q47 0 80 19 t49 45v225h-68q-72 0 -113.5 -46t-41.5 -123q0 -120 94 -120zM796 1289h-631v167h631v-167z"/>
    <glyph glyph-name="Abreve" unicode="Ă" horiz-adv-x="1223" d="M812 298h-401l-78 -298h-311l455 1456h269l458 -1456h-314zM475 543h272l-136 519zM962 1837q0 -133 -95.5 -215t-251.5 -82q-157 0 -252.5 82t-95.5 215h207q0 -62 37.5 -96.5t103.5 -34.5q65 0 102 34.5t37 96.5h208z"/>
    <glyph glyph-name="abreve" unicode="ă" horiz-adv-x="964" d="M617 0q-12 25 -24 84q-76 -104 -206 -104q-136 0 -225.5 90t-89.5 233q0 170 108.5 263t312.5 95h86v87q0 73 -25 103t-73 30q-106 0 -106 -124h-283q0 150 112.5 247.5t284.5 97.5q178 0 275.5 -92.5t97.5 -264.5v-509q2 -140 40 -219v-17h-285zM450 202q47 0 80 19 t49 45v225h-68q-72 0 -113.5 -46t-41.5 -123q0 -120 94 -120zM826 1527q0 -133 -95.5 -215t-251.5 -82q-157 0 -252.5 82t-95.5 215h207q0 -62 37.5 -96.5t103.5 -34.5q65 0 102 34.5t37 96.5h208z"/>
    <glyph glyph-name="Aogonek" unicode="Ą" horiz-adv-x="1223" d="M746 1456l458 -1456h-86q-64 -42 -94 -82t-30 -93q0 -65 51 -65q25 0 62 20l27 -158q-65 -44 -146 -44q-91 0 -147 57t-56 152q0 139 103 219l-76 292h-401l-78 -298h-311l455 1456h269zM475 543h272l-136 519z"/>
    <glyph glyph-name="aogonek" unicode="ą" horiz-adv-x="964" d="M616 1q-10 22 -23 83q-76 -104 -206 -104q-136 0 -225.5 90t-89.5 233q0 170 108.5 263t312.5 95h86v87q0 73 -25 103t-73 30q-106 0 -106 -124h-283q0 150 112.5 247.5t284.5 97.5q178 0 275.5 -92.5t97.5 -264.5v-509q2 -140 40 -219v-17h-49q-64 -42 -94 -82t-30 -93 q0 -65 51 -65q25 0 62 20l27 -158q-65 -44 -146 -44q-91 0 -147 57t-56 152q0 133 96 214zM450 202q47 0 80 19t49 45v225h-68q-72 0 -113.5 -46t-41.5 -123q0 -120 94 -120z"/>
    <glyph glyph-name="Cacute" unicode="Ć" horiz-adv-x="1168" d="M1104 485q-11 -249 -140 -377t-364 -128q-247 0 -378.5 162.5t-131.5 463.5v245q0 300 136 462.5t378 162.5q238 0 361.5 -133t140.5 -382h-295q-4 154 -47.5 212.5t-159.5 58.5q-118 0 -167 -82.5t-52 -271.5v-275q0 -217 48.5 -298t166.5 -81q116 0 160 56.5t50 204.5 h294zM657 1854h318l-278 -310h-236z"/>
    <glyph glyph-name="cacute" unicode="ć" horiz-adv-x="942" d="M494 215q123 0 125 160h266q-2 -177 -109 -286t-276 -109q-209 0 -319 130t-112 383v86q0 255 108.5 389t320.5 134q179 0 282 -110.5t105 -313.5h-266q-1 91 -30 140t-96 49q-74 0 -106 -52.5t-34 -203.5v-110q0 -132 13 -184.5t43 -77t85 -24.5zM523 1536h318 l-278 -310h-236z"/>
    <glyph glyph-name="Ccircumflex" unicode="Ĉ" horiz-adv-x="1168" d="M1104 485q-11 -249 -140 -377t-364 -128q-247 0 -378.5 162.5t-131.5 463.5v245q0 300 136 462.5t378 162.5q238 0 361.5 -133t140.5 -382h-295q-4 154 -47.5 212.5t-159.5 58.5q-118 0 -167 -82.5t-52 -271.5v-275q0 -217 48.5 -298t166.5 -81q116 0 160 56.5t50 204.5 h294zM946 1574v-12h-221l-125 144l-125 -144h-216v16l260 276h162z"/>
    <glyph glyph-name="ccircumflex" unicode="ĉ" horiz-adv-x="942" d="M494 215q123 0 125 160h266q-2 -177 -109 -286t-276 -109q-209 0 -319 130t-112 383v86q0 255 108.5 389t320.5 134q179 0 282 -110.5t105 -313.5h-266q-1 91 -30 140t-96 49q-74 0 -106 -52.5t-34 -203.5v-110q0 -132 13 -184.5t43 -77t85 -24.5zM812 1256v-12h-221 l-125 144l-125 -144h-216v16l260 276h162z"/>
    <glyph glyph-name="Cdotaccent" unicode="Ċ" horiz-adv-x="1168" d="M1104 485q-11 -249 -140 -377t-364 -128q-247 0 -378.5 162.5t-131.5 463.5v245q0 300 136 462.5t378 162.5q238 0 361.5 -133t140.5 -382h-295q-4 154 -47.5 212.5t-159.5 58.5q-118 0 -167 -82.5t-52 -271.5v-275q0 -217 48.5 -298t166.5 -81q116 0 160 56.5t50 204.5 h294zM451 1710q0 62 42 100t107 38t107 -38t42 -100q0 -60 -40 -98t-109 -38t-109 38t-40 98z"/>
    <glyph glyph-name="cdotaccent" unicode="ċ" horiz-adv-x="942" d="M494 215q123 0 125 160h266q-2 -177 -109 -286t-276 -109q-209 0 -319 130t-112 383v86q0 255 108.5 389t320.5 134q179 0 282 -110.5t105 -313.5h-266q-1 91 -30 140t-96 49q-74 0 -106 -52.5t-34 -203.5v-110q0 -132 13 -184.5t43 -77t85 -24.5zM317 1392q0 62 42 100 t107 38t107 -38t42 -100q0 -60 -40 -98t-109 -38t-109 38t-40 98z"/>
    <glyph glyph-name="Ccaron" unicode="Č" horiz-adv-x="1168" d="M1104 485q-11 -249 -140 -377t-364 -128q-247 0 -378.5 162.5t-131.5 463.5v245q0 300 136 462.5t378 162.5q238 0 361.5 -133t140.5 -382h-295q-4 154 -47.5 212.5t-159.5 58.5q-118 0 -167 -82.5t-52 -271.5v-275q0 -217 48.5 -298t166.5 -81q116 0 160 56.5t50 204.5 h294zM599 1713l116 142h241v-11l-268 -281h-176l-268 283v9h240z"/>
    <glyph glyph-name="ccaron" unicode="č" horiz-adv-x="942" d="M494 215q123 0 125 160h266q-2 -177 -109 -286t-276 -109q-209 0 -319 130t-112 383v86q0 255 108.5 389t320.5 134q179 0 282 -110.5t105 -313.5h-266q-1 91 -30 140t-96 49q-74 0 -106 -52.5t-34 -203.5v-110q0 -132 13 -184.5t43 -77t85 -24.5zM465 1395l116 142h241 v-11l-268 -281h-176l-268 283v9h240z"/>
    <glyph glyph-name="Dcaron" unicode="Ď" horiz-adv-x="1157" d="M117 0v1456h385q255 0 406.5 -162t154.5 -444v-236q0 -287 -151.5 -450.5t-417.5 -163.5h-377zM411 1211v-967h88q147 0 207 77.5t63 267.5v253q0 204 -57 284.5t-194 84.5h-107zM449 1708l116 142h241v-11l-268 -281h-176l-268 283v9h240z"/>
    <glyph glyph-name="dcaron" unicode="ď" horiz-adv-x="1165" d="M65 574q0 266 90 397t262 131q125 0 208 -108v542h285v-1536h-257l-13 110q-87 -130 -224 -130q-170 0 -259.5 130t-91.5 382v82zM349 503q0 -160 34 -223.5t115 -63.5q84 0 127 75v494q-42 80 -126 80q-78 0 -114 -63t-36 -224v-75zM1107 1112l-138 79q62 119 65 240 v106h204v-76q-1 -91 -37.5 -188.5t-93.5 -160.5z"/>
    <glyph glyph-name="Emacron" unicode="Ē" horiz-adv-x="1005" d="M869 630h-458v-386h542v-244h-836v1456h834v-245h-540v-344h458v-237zM874 1601h-631v167h631v-167z"/>
    <glyph glyph-name="emacron" unicode="ē" d="M540 -20q-218 0 -340 130t-122 372v86q0 256 112 395t321 139q204 0 307 -130.5t105 -386.5v-139h-563q6 -120 53 -175.5t145 -55.5q142 0 237 97l111 -171q-52 -72 -151 -116.5t-215 -44.5zM362 644h283v26q-2 97 -32 147t-104 50t-107.5 -53t-39.5 -170zM791 1289h-631 v167h631v-167z"/>
    <glyph glyph-name="Ebreve" unicode="Ĕ" horiz-adv-x="1005" d="M869 630h-458v-386h542v-244h-836v1456h834v-245h-540v-344h458v-237zM904 1840q0 -133 -95.5 -215t-251.5 -82q-157 0 -252.5 82t-95.5 215h207q0 -62 37.5 -96.5t103.5 -34.5q65 0 102 34.5t37 96.5h208z"/>
    <glyph glyph-name="ebreve" unicode="ĕ" d="M540 -20q-218 0 -340 130t-122 372v86q0 256 112 395t321 139q204 0 307 -130.5t105 -386.5v-139h-563q6 -120 53 -175.5t145 -55.5q142 0 237 97l111 -171q-52 -72 -151 -116.5t-215 -44.5zM362 644h283v26q-2 97 -32 147t-104 50t-107.5 -53t-39.5 -170zM821 1527 q0 -133 -95.5 -215t-251.5 -82q-157 0 -252.5 82t-95.5 215h207q0 -62 37.5 -96.5t103.5 -34.5q65 0 102 34.5t37 96.5h208z"/>
    <glyph glyph-name="Edotaccent" unicode="Ė" horiz-adv-x="1005" d="M869 630h-458v-386h542v-244h-836v1456h834v-245h-540v-344h458v-237zM407 1705q0 62 42 100t107 38t107 -38t42 -100q0 -60 -40 -98t-109 -38t-109 38t-40 98z"/>
    <glyph glyph-name="edotaccent" unicode="ė" d="M540 -20q-218 0 -340 130t-122 372v86q0 256 112 395t321 139q204 0 307 -130.5t105 -386.5v-139h-563q6 -120 53 -175.5t145 -55.5q142 0 237 97l111 -171q-52 -72 -151 -116.5t-215 -44.5zM362 644h283v26q-2 97 -32 147t-104 50t-107.5 -53t-39.5 -170zM324 1392 q0 62 42 100t107 38t107 -38t42 -100q0 -60 -40 -98t-109 -38t-109 38t-40 98z"/>
    <glyph glyph-name="Eogonek" unicode="Ę" horiz-adv-x="1005" d="M869 630h-458v-386h542v-244h-145q-64 -42 -94 -82t-30 -93q0 -65 51 -65q25 0 62 20l27 -158q-65 -44 -146 -44q-91 0 -147 57t-56 152q0 132 95 213h-453v1456h834v-245h-540v-344h458v-237z"/>
    <glyph glyph-name="eogonek" unicode="ę" d="M906 141q-73 -95 -199 -136q-87 -66 -87 -148q0 -65 51 -65q25 0 62 20l27 -158q-65 -44 -146 -44q-91 0 -147 57t-56 152q0 99 50 166q-186 23 -284.5 151t-98.5 343v89q0 256 112 395t321 139q204 0 307 -130.5t105 -386.5v-139h-563q6 -120 53 -175.5t145 -55.5 q142 0 237 97zM362 644h283v26q-2 97 -32 147t-104 50t-107.5 -53t-39.5 -170z"/>
    <glyph glyph-name="Ecaron" unicode="Ě" horiz-adv-x="1005" d="M869 630h-458v-386h542v-244h-836v1456h834v-245h-540v-344h458v-237zM555 1708l116 142h241v-11l-268 -281h-176l-268 283v9h240z"/>
    <glyph glyph-name="ecaron" unicode="ě" d="M540 -20q-218 0 -340 130t-122 372v86q0 256 112 395t321 139q204 0 307 -130.5t105 -386.5v-139h-563q6 -120 53 -175.5t145 -55.5q142 0 237 97l111 -171q-52 -72 -151 -116.5t-215 -44.5zM362 644h283v26q-2 97 -32 147t-104 50t-107.5 -53t-39.5 -170zM472 1395 l116 142h241v-11l-268 -281h-176l-268 283v9h240z"/>
    <glyph glyph-name="Gcircumflex" unicode="Ĝ" horiz-adv-x="1198" d="M1107 165q-85 -92 -208.5 -138.5t-270.5 -46.5q-251 0 -390 155.5t-143 452.5v262q0 301 131.5 463.5t383.5 162.5q237 0 357.5 -117t139.5 -367h-286q-12 139 -58 189.5t-144 50.5q-119 0 -173 -87t-56 -277v-264q0 -199 59.5 -289.5t195.5 -90.5q87 0 141 35l26 18v267 h-206v222h501v-601zM949 1574v-12h-221l-125 144l-125 -144h-216v16l260 276h162z"/>
    <glyph glyph-name="gcircumflex" unicode="ĝ" horiz-adv-x="1030" d="M69 574q0 266 96 397t269 131q147 0 227 -116l11 96h255v-1082q0 -207 -116 -316.5t-333 -109.5q-89 0 -187 35.5t-146 90.5l95 196q40 -42 104 -68.5t121 -26.5q95 0 136.5 45.5t42.5 146.5v93q-81 -106 -211 -106q-173 0 -267.5 134.5t-96.5 379.5v80zM352 503 q0 -150 39 -218.5t124 -68.5q87 0 129 63v517q-44 69 -127 69q-84 0 -124.5 -69t-40.5 -222v-71zM829 1256v-12h-221l-125 144l-125 -144h-216v16l260 276h162z"/>
    <glyph glyph-name="Gbreve" unicode="Ğ" horiz-adv-x="1198" d="M1107 165q-85 -92 -208.5 -138.5t-270.5 -46.5q-251 0 -390 155.5t-143 452.5v262q0 301 131.5 463.5t383.5 162.5q237 0 357.5 -117t139.5 -367h-286q-12 139 -58 189.5t-144 50.5q-119 0 -173 -87t-56 -277v-264q0 -199 59.5 -289.5t195.5 -90.5q87 0 141 35l26 18v267 h-206v222h501v-601zM951 1845q0 -133 -95.5 -215t-251.5 -82q-157 0 -252.5 82t-95.5 215h207q0 -62 37.5 -96.5t103.5 -34.5q65 0 102 34.5t37 96.5h208z"/>
    <glyph glyph-name="gbreve" unicode="ğ" horiz-adv-x="1030" d="M69 574q0 266 96 397t269 131q147 0 227 -116l11 96h255v-1082q0 -207 -116 -316.5t-333 -109.5q-89 0 -187 35.5t-146 90.5l95 196q40 -42 104 -68.5t121 -26.5q95 0 136.5 45.5t42.5 146.5v93q-81 -106 -211 -106q-173 0 -267.5 134.5t-96.5 379.5v80zM352 503 q0 -150 39 -218.5t124 -68.5q87 0 129 63v517q-44 69 -127 69q-84 0 -124.5 -69t-40.5 -222v-71zM831 1527q0 -133 -95.5 -215t-251.5 -82q-157 0 -252.5 82t-95.5 215h207q0 -62 37.5 -96.5t103.5 -34.5q65 0 102 34.5t37 96.5h208z"/>
    <glyph glyph-name="Gdotaccent" unicode="Ġ" horiz-adv-x="1198" d="M1107 165q-85 -92 -208.5 -138.5t-270.5 -46.5q-251 0 -390 155.5t-143 452.5v262q0 301 131.5 463.5t383.5 162.5q237 0 357.5 -117t139.5 -367h-286q-12 139 -58 189.5t-144 50.5q-119 0 -173 -87t-56 -277v-264q0 -199 59.5 -289.5t195.5 -90.5q87 0 141 35l26 18v267 h-206v222h501v-601zM454 1710q0 62 42 100t107 38t107 -38t42 -100q0 -60 -40 -98t-109 -38t-109 38t-40 98z"/>
    <glyph glyph-name="gdotaccent" unicode="ġ" horiz-adv-x="1030" d="M69 574q0 266 96 397t269 131q147 0 227 -116l11 96h255v-1082q0 -207 -116 -316.5t-333 -109.5q-89 0 -187 35.5t-146 90.5l95 196q40 -42 104 -68.5t121 -26.5q95 0 136.5 45.5t42.5 146.5v93q-81 -106 -211 -106q-173 0 -267.5 134.5t-96.5 379.5v80zM352 503 q0 -150 39 -218.5t124 -68.5q87 0 129 63v517q-44 69 -127 69q-84 0 -124.5 -69t-40.5 -222v-71zM334 1392q0 62 42 100t107 38t107 -38t42 -100q0 -60 -40 -98t-109 -38t-109 38t-40 98z"/>
    <glyph glyph-name="Gcommaaccent" unicode="Ģ" horiz-adv-x="1198" d="M1107 165q-85 -92 -208.5 -138.5t-270.5 -46.5q-251 0 -390 155.5t-143 452.5v262q0 301 131.5 463.5t383.5 162.5q237 0 357.5 -117t139.5 -367h-286q-12 139 -58 189.5t-144 50.5q-119 0 -173 -87t-56 -277v-264q0 -199 59.5 -289.5t195.5 -90.5q87 0 141 35l26 18v267 h-206v222h501v-601zM586 -519l-138 79q62 119 65 240v106h204v-76q-1 -91 -37.5 -188.5t-93.5 -160.5z"/>
    <glyph glyph-name="gcommaaccent" unicode="ģ" horiz-adv-x="1030" d="M69 574q0 266 96 397t269 131q147 0 227 -116l11 96h255v-1082q0 -207 -116 -316.5t-333 -109.5q-89 0 -187 35.5t-146 90.5l95 196q40 -42 104 -68.5t121 -26.5q95 0 136.5 45.5t42.5 146.5v93q-81 -106 -211 -106q-173 0 -267.5 134.5t-96.5 379.5v80zM352 503 q0 -150 39 -218.5t124 -68.5q87 0 129 63v517q-44 69 -127 69q-84 0 -124.5 -69t-40.5 -222v-71zM505 1721l143 -77q-58 -119 -61 -246l-1 -139h-216v140q1 105 39 193.5t96 128.5z"/>
    <glyph glyph-name="Hcircumflex" unicode="Ĥ" horiz-adv-x="1257" d="M1138 0h-293v623h-434v-623h-294v1456h294v-589h434v589h293v-1456zM973 1569v-12h-221l-125 144l-125 -144h-216v16l260 276h162z"/>
    <glyph glyph-name="hcircumflex" unicode="ĥ" horiz-adv-x="1008" d="M379 987q92 115 226 115q148 0 225 -104t78 -310v-688h-284v685q0 95 -29.5 137.5t-95.5 42.5q-77 0 -120 -71v-794h-283v1536h283v-549zM815 1638v-12h-221l-125 144l-125 -144h-216v16l260 276h162z"/>
    <glyph glyph-name="Itilde" unicode="Ĩ" horiz-adv-x="554" d="M424 0h-294v1456h294v-1456zM600 1834q0 -111 -56.5 -188.5t-142.5 -77.5q-32 0 -56.5 9t-69 37t-63 34t-40.5 6q-27 0 -45 -24.5t-18 -70.5l-160 9q0 111 57 189.5t140 78.5q22 0 42.5 -6.5t71 -35t72.5 -36t44 -7.5q26 0 45.5 24.5t19.5 70.5z"/>
    <glyph glyph-name="itilde" unicode="ĩ" horiz-adv-x="537" d="M407 0h-283v1082h283v-1082zM593 1506q0 -111 -56.5 -188.5t-142.5 -77.5q-32 0 -56.5 9t-69 37t-63 34t-40.5 6q-27 0 -45 -24.5t-18 -70.5l-160 9q0 111 57 189.5t140 78.5q22 0 42.5 -6.5t71 -35t72.5 -36t44 -7.5q26 0 45.5 24.5t19.5 70.5z"/>
    <glyph glyph-name="Imacron" unicode="Ī" horiz-adv-x="554" d="M424 0h-294v1456h294v-1456zM594 1601h-631v167h631v-167z"/>
    <glyph glyph-name="imacron" unicode="ī" horiz-adv-x="537" d="M407 0h-283v1082h283v-1082zM587 1273h-631v167h631v-167z"/>
    <glyph glyph-name="Ibreve" unicode="Ĭ" horiz-adv-x="554" d="M424 0h-294v1456h294v-1456zM624 1840q0 -133 -95.5 -215t-251.5 -82q-157 0 -252.5 82t-95.5 215h207q0 -62 37.5 -96.5t103.5 -34.5q65 0 102 34.5t37 96.5h208z"/>
    <glyph glyph-name="ibreve" unicode="ĭ" horiz-adv-x="537" d="M407 0h-283v1082h283v-1082zM617 1512q0 -133 -95.5 -215t-251.5 -82q-157 0 -252.5 82t-95.5 215h207q0 -62 37.5 -96.5t103.5 -34.5q65 0 102 34.5t37 96.5h208z"/>
    <glyph glyph-name="Iogonek" unicode="Į" horiz-adv-x="554" d="M424 0h-294v1456h294v-1456zM369 2q-64 -42 -94 -82t-30 -93q0 -65 51 -65q25 0 62 20l27 -158q-65 -44 -146 -44q-91 0 -147 57t-56 152t46 159.5t144 113.5z"/>
    <glyph glyph-name="iogonek" unicode="į" horiz-adv-x="516" d="M400 0h-284v1082h284v-1082zM103 1362q0 66 42 108t112 42t112 -42t42 -108q0 -65 -41.5 -108t-112.5 -43t-112.5 43t-41.5 108zM358 0q-64 -42 -94 -82t-30 -93q0 -65 51 -65q25 0 62 20l27 -158q-65 -44 -146 -44q-91 0 -147 57t-56 152t46 159.5t144 113.5z"/>
    <glyph glyph-name="Idotaccent" unicode="İ" horiz-adv-x="554" d="M424 0h-294v1456h294v-1456zM126 1705q0 62 42 100t107 38t107 -38t42 -100q0 -60 -40 -98t-109 -38t-109 38t-40 98z"/>
    <glyph glyph-name="IJ" unicode="Ĳ" horiz-adv-x="1558" d="M424 0h-294v1456h294v-1456zM1150 1456h294v-1008q0 -212 -118 -340t-304 -128q-200 0 -311 119t-111 331h295q0 -206 127 -206q128 0 128 238v994z"/>
    <glyph glyph-name="ij" unicode="ĳ" horiz-adv-x="1019" d="M400 0h-284v1082h284v-1082zM103 1362q0 66 42 108t112 42t112 -42t42 -108q0 -65 -41.5 -108t-112.5 -43t-112.5 43t-41.5 108zM917 1082v-1140q0 -185 -85 -282t-241 -97q-66 0 -128 17l-1 231q47 -9 75 -9q94 0 96 132v1148h284zM614 1362q0 66 42 108t112 42t112 -42 t42 -108q0 -65 -41.5 -108t-112.5 -43t-112.5 43t-41.5 108z"/>
    <glyph glyph-name="Jcircumflex" unicode="Ĵ" horiz-adv-x="1004" d="M596 1456h294v-1008q0 -212 -118 -340t-304 -128q-200 0 -311 119t-111 331h295q0 -206 127 -206q128 0 128 238v994zM1077 1566v-12h-221l-125 144l-125 -144h-216v16l260 276h162z"/>
    <glyph glyph-name="jcircumflex" unicode="ĵ" horiz-adv-x="550" d="M423 1082v-1122q-2 -191 -90.5 -294t-245.5 -103q-70 0 -126 17l13 231q43 -13 82 -13q84 0 84 175v1109h283zM608 1231v-12h-221l-125 144l-125 -144h-216v16l260 276h162z"/>
    <glyph glyph-name="Kcommaaccent" unicode="Ķ" horiz-adv-x="1133" d="M527 562l-116 -146v-416h-294v1456h294v-635l93 157l271 478h360l-417 -640l424 -816h-349zM544 -456l-138 79q62 119 65 240v106h204v-76q-1 -91 -37.5 -188.5t-93.5 -160.5z"/>
    <glyph glyph-name="kcommaaccent" unicode="ķ" d="M462 417l-76 -85v-332h-283v1536h283v-830l35 52l196 324h337l-314 -446l344 -636h-324zM473 -477l-138 79q62 119 65 240v106h204v-76q-1 -91 -37.5 -188.5t-93.5 -160.5z"/>
    <glyph glyph-name="Lacute" unicode="Ĺ" d="M411 244h516v-244h-810v1456h294v-1212zM327 1846h318l-278 -310h-236z"/>
    <glyph glyph-name="lacute" unicode="ĺ" horiz-adv-x="516" d="M400 0h-284v1536h284v-1536zM314 1928h318l-278 -310h-236z"/>
    <glyph glyph-name="Lcommaaccent" unicode="Ļ" d="M411 244h516v-244h-810v1456h294v-1212zM493 -507l-138 79q62 119 65 240v106h204v-76q-1 -91 -37.5 -188.5t-93.5 -160.5z"/>
    <glyph glyph-name="lcommaaccent" unicode="ļ" horiz-adv-x="516" d="M400 0h-284v1536h284v-1536zM229 -507l-138 79q62 119 65 240v106h204v-76q-1 -91 -37.5 -188.5t-93.5 -160.5z"/>
    <glyph glyph-name="Lcaron" unicode="Ľ" d="M411 244h516v-244h-810v1456h294v-1212zM693 1031l-138 79q62 119 65 240v106h204v-76q-1 -91 -37.5 -188.5t-93.5 -160.5z"/>
    <glyph glyph-name="lcaron" unicode="ľ" horiz-adv-x="666" d="M400 0h-284v1536h284v-1536zM592 1112l-138 79q62 119 65 240v106h204v-76q-1 -91 -37.5 -188.5t-93.5 -160.5z"/>
    <glyph glyph-name="Ldot" unicode="Ŀ" d="M411 244h516v-244h-810v1456h294v-1212zM517 829q0 62 42 100t107 38t107 -38t42 -100q0 -60 -40 -98t-109 -38t-109 38t-40 98z"/>
    <glyph glyph-name="ldot" unicode="ŀ" horiz-adv-x="736" d="M400 0h-284v1536h284v-1536zM471 772q0 62 42 100t107 38t107 -38t42 -100q0 -60 -40 -98t-109 -38t-109 38t-40 98z"/>
    <glyph glyph-name="Nacute" unicode="Ń" horiz-adv-x="1254" d="M1135 0h-294l-430 955v-955h-294v1456h294l431 -956v956h293v-1456zM687 1846h318l-278 -310h-236z"/>
    <glyph glyph-name="nacute" unicode="ń" horiz-adv-x="1008" d="M362 1082l8 -107q96 127 251 127q279 0 287 -391v-711h-284v690q0 92 -27.5 133.5t-96.5 41.5q-77 0 -120 -79v-786h-284v1082h266zM560 1536h318l-278 -310h-236z"/>
    <glyph glyph-name="Ncommaaccent" unicode="Ņ" horiz-adv-x="1254" d="M1135 0h-294l-430 955v-955h-294v1456h294l431 -956v956h293v-1456zM600 -515l-138 79q62 119 65 240v106h204v-76q-1 -91 -37.5 -188.5t-93.5 -160.5z"/>
    <glyph glyph-name="ncommaaccent" unicode="ņ" horiz-adv-x="1008" d="M362 1082l8 -107q96 127 251 127q279 0 287 -391v-711h-284v690q0 92 -27.5 133.5t-96.5 41.5q-77 0 -120 -79v-786h-284v1082h266zM473 -507l-138 79q62 119 65 240v106h204v-76q-1 -91 -37.5 -188.5t-93.5 -160.5z"/>
    <glyph glyph-name="Ncaron" unicode="Ň" horiz-adv-x="1254" d="M1135 0h-294l-430 955v-955h-294v1456h294l431 -956v956h293v-1456zM629 1705l116 142h241v-11l-268 -281h-176l-268 283v9h240z"/>
    <glyph glyph-name="ncaron" unicode="ň" horiz-adv-x="1008" d="M362 1082l8 -107q96 127 251 127q279 0 287 -391v-711h-284v690q0 92 -27.5 133.5t-96.5 41.5q-77 0 -120 -79v-786h-284v1082h266zM502 1395l116 142h241v-11l-268 -281h-176l-268 283v9h240z"/>
    <glyph glyph-name="napostrophe" unicode="ŉ" horiz-adv-x="1008" d="M362 1082l8 -107q96 127 251 127q279 0 287 -391v-711h-284v690q0 92 -27.5 133.5t-96.5 41.5q-77 0 -120 -79v-786h-284v1082h266zM52 1111l-138 79q62 119 65 240v106h204v-76q-1 -91 -37.5 -188.5t-93.5 -160.5z"/>
    <glyph glyph-name="Omacron" unicode="Ō" horiz-adv-x="1236" d="M1142 597q0 -293 -138.5 -455t-384.5 -162q-245 0 -385 160.5t-142 449.5v249q0 300 139 468.5t386 168.5q243 0 383 -165.5t142 -464.5v-249zM847 841q0 197 -56 293t-174 96q-117 0 -173 -92.5t-58 -281.5v-259q0 -191 57 -281.5t176 -90.5q115 0 171 88.5t57 274.5 v253zM936 1598h-631v167h631v-167z"/>
    <glyph glyph-name="omacron" unicode="ō" horiz-adv-x="1019" d="M70 576q0 246 116 386t321 140q207 0 323 -140t116 -388v-69q0 -247 -115 -386t-322 -139q-208 0 -323.5 139.5t-115.5 387.5v69zM354 505q0 -290 155 -290q143 0 154 242l1 119q0 148 -41 219.5t-116 71.5q-72 0 -112.5 -71.5t-40.5 -219.5v-71zM823 1289h-631v167h631 v-167z"/>
    <glyph glyph-name="Obreve" unicode="Ŏ" horiz-adv-x="1236" d="M1142 597q0 -293 -138.5 -455t-384.5 -162q-245 0 -385 160.5t-142 449.5v249q0 300 139 468.5t386 168.5q243 0 383 -165.5t142 -464.5v-249zM847 841q0 197 -56 293t-174 96q-117 0 -173 -92.5t-58 -281.5v-259q0 -191 57 -281.5t176 -90.5q115 0 171 88.5t57 274.5 v253zM966 1837q0 -133 -95.5 -215t-251.5 -82q-157 0 -252.5 82t-95.5 215h207q0 -62 37.5 -96.5t103.5 -34.5q65 0 102 34.5t37 96.5h208z"/>
    <glyph glyph-name="obreve" unicode="ŏ" horiz-adv-x="1019" d="M70 576q0 246 116 386t321 140q207 0 323 -140t116 -388v-69q0 -247 -115 -386t-322 -139q-208 0 -323.5 139.5t-115.5 387.5v69zM354 505q0 -290 155 -290q143 0 154 242l1 119q0 148 -41 219.5t-116 71.5q-72 0 -112.5 -71.5t-40.5 -219.5v-71zM853 1527 q0 -133 -95.5 -215t-251.5 -82q-157 0 -252.5 82t-95.5 215h207q0 -62 37.5 -96.5t103.5 -34.5q65 0 102 34.5t37 96.5h208z"/>
    <glyph glyph-name="Ohungarumlaut" unicode="Ő" horiz-adv-x="1236" d="M1142 597q0 -293 -138.5 -455t-384.5 -162q-245 0 -385 160.5t-142 449.5v249q0 300 139 468.5t386 168.5q243 0 383 -165.5t142 -464.5v-249zM847 841q0 197 -56 293t-174 96q-117 0 -173 -92.5t-58 -281.5v-259q0 -191 57 -281.5t176 -90.5q115 0 171 88.5t57 274.5 v253zM837 1845h247l-220 -301h-207zM490 1845h244l-191 -301h-202z"/>
    <glyph glyph-name="ohungarumlaut" unicode="ő" horiz-adv-x="1019" d="M70 576q0 246 116 386t321 140q207 0 323 -140t116 -388v-69q0 -247 -115 -386t-322 -139q-208 0 -323.5 139.5t-115.5 387.5v69zM354 505q0 -290 155 -290q143 0 154 242l1 119q0 148 -41 219.5t-116 71.5q-72 0 -112.5 -71.5t-40.5 -219.5v-71zM724 1535h247l-220 -301 h-207zM377 1535h244l-191 -301h-202z"/>
    <glyph glyph-name="Racute" unicode="Ŕ" horiz-adv-x="1134" d="M558 532h-146v-532h-294v1456h469q221 0 341.5 -114.5t120.5 -325.5q0 -290 -211 -406l255 -596v-14h-316zM412 777h167q88 0 132 58.5t44 156.5q0 219 -171 219h-172v-434zM578 1846h318l-278 -310h-236z"/>
    <glyph glyph-name="racute" unicode="ŕ" horiz-adv-x="679" d="M637 809l-94 8q-116 0 -157 -102v-715h-284v1082h267l8 -117q67 137 185 137q48 0 78 -13zM421 1536h318l-278 -310h-236z"/>
    <glyph glyph-name="Rcommaaccent" unicode="Ŗ" horiz-adv-x="1134" d="M558 532h-146v-532h-294v1456h469q221 0 341.5 -114.5t120.5 -325.5q0 -290 -211 -406l255 -596v-14h-316zM412 777h167q88 0 132 58.5t44 156.5q0 219 -171 219h-172v-434zM507 -507l-138 79q62 119 65 240v106h204v-76q-1 -91 -37.5 -188.5t-93.5 -160.5z"/>
    <glyph glyph-name="rcommaaccent" unicode="ŗ" horiz-adv-x="679" d="M637 809l-94 8q-116 0 -157 -102v-715h-284v1082h267l8 -117q67 137 185 137q48 0 78 -13zM220 -507l-138 79q62 119 65 240v106h204v-76q-1 -91 -37.5 -188.5t-93.5 -160.5z"/>
    <glyph glyph-name="Rcaron" unicode="Ř" horiz-adv-x="1134" d="M558 532h-146v-532h-294v1456h469q221 0 341.5 -114.5t120.5 -325.5q0 -290 -211 -406l255 -596v-14h-316zM412 777h167q88 0 132 58.5t44 156.5q0 219 -171 219h-172v-434zM520 1705l116 142h241v-11l-268 -281h-176l-268 283v9h240z"/>
    <glyph glyph-name="rcaron" unicode="ř" horiz-adv-x="679" d="M637 809l-94 8q-116 0 -157 -102v-715h-284v1082h267l8 -117q67 137 185 137q48 0 78 -13zM364 1395l116 142h241v-11l-268 -281h-176l-268 283v9h240z"/>
    <glyph glyph-name="Sacute" unicode="Ś" horiz-adv-x="1106" d="M732 382q0 89 -45.5 134.5t-165.5 94.5q-219 83 -315 194.5t-96 263.5q0 184 130.5 295.5t331.5 111.5q134 0 239 -56.5t161.5 -159.5t56.5 -234h-293q0 102 -43.5 155.5t-125.5 53.5q-77 0 -120 -45.5t-43 -122.5q0 -60 48 -108.5t170 -100.5q213 -77 309.5 -189 t96.5 -285q0 -190 -121 -297t-329 -107q-141 0 -257 58t-181.5 166t-65.5 255h295q0 -126 49 -183t160 -57q154 0 154 163zM624 1846h318l-278 -310h-236z"/>
    <glyph glyph-name="sacute" unicode="ś" horiz-adv-x="930" d="M582 290q0 36 -34.5 66.5t-153.5 82.5q-175 71 -240.5 147t-65.5 189q0 142 102.5 234.5t271.5 92.5q178 0 285 -92t107 -247h-283q0 132 -110 132q-45 0 -74 -28t-29 -78q0 -36 32 -63.5t151 -78.5q173 -64 244.5 -142.5t71.5 -203.5q0 -145 -109 -233t-286 -88 q-119 0 -210 46.5t-142.5 129.5t-51.5 179h269q2 -74 34.5 -111t106.5 -37q114 0 114 103zM523 1536h318l-278 -310h-236z"/>
    <glyph glyph-name="Scircumflex" unicode="Ŝ" horiz-adv-x="1106" d="M732 382q0 89 -45.5 134.5t-165.5 94.5q-219 83 -315 194.5t-96 263.5q0 184 130.5 295.5t331.5 111.5q134 0 239 -56.5t161.5 -159.5t56.5 -234h-293q0 102 -43.5 155.5t-125.5 53.5q-77 0 -120 -45.5t-43 -122.5q0 -60 48 -108.5t170 -100.5q213 -77 309.5 -189 t96.5 -285q0 -190 -121 -297t-329 -107q-141 0 -257 58t-181.5 166t-65.5 255h295q0 -126 49 -183t160 -57q154 0 154 163zM913 1566v-12h-221l-125 144l-125 -144h-216v16l260 276h162z"/>
    <glyph glyph-name="scircumflex" unicode="ŝ" horiz-adv-x="930" d="M582 290q0 36 -34.5 66.5t-153.5 82.5q-175 71 -240.5 147t-65.5 189q0 142 102.5 234.5t271.5 92.5q178 0 285 -92t107 -247h-283q0 132 -110 132q-45 0 -74 -28t-29 -78q0 -36 32 -63.5t151 -78.5q173 -64 244.5 -142.5t71.5 -203.5q0 -145 -109 -233t-286 -88 q-119 0 -210 46.5t-142.5 129.5t-51.5 179h269q2 -74 34.5 -111t106.5 -37q114 0 114 103zM812 1256v-12h-221l-125 144l-125 -144h-216v16l260 276h162z"/>
    <glyph glyph-name="Scedilla" unicode="Ş" horiz-adv-x="1106" d="M732 382q0 89 -45.5 134.5t-165.5 94.5q-219 83 -315 194.5t-96 263.5q0 184 130.5 295.5t331.5 111.5q134 0 239 -56.5t161.5 -159.5t56.5 -234h-293q0 102 -43.5 155.5t-125.5 53.5q-77 0 -120 -45.5t-43 -122.5q0 -60 48 -108.5t170 -100.5q213 -77 309.5 -189 t96.5 -285q0 -190 -121 -297t-329 -107q-141 0 -257 58t-181.5 166t-65.5 255h295q0 -126 49 -183t160 -57q154 0 154 163zM678 7l-9 -58q58 -13 89.5 -57.5t31.5 -115.5q0 -110 -79 -174t-226 -64l-6 167q73 0 73 82q0 40 -25.5 56t-86.5 21l27 143h211z"/>
    <glyph glyph-name="scedilla" unicode="ş" horiz-adv-x="930" d="M582 290q0 36 -34.5 66.5t-153.5 82.5q-175 71 -240.5 147t-65.5 189q0 142 102.5 234.5t271.5 92.5q178 0 285 -92t107 -247h-283q0 132 -110 132q-45 0 -74 -28t-29 -78q0 -36 32 -63.5t151 -78.5q173 -64 244.5 -142.5t71.5 -203.5q0 -145 -109 -233t-286 -88 q-119 0 -210 46.5t-142.5 129.5t-51.5 179h269q2 -74 34.5 -111t106.5 -37q114 0 114 103zM575 -2l-9 -58q58 -13 89.5 -57.5t31.5 -115.5q0 -110 -79 -174t-226 -64l-6 167q73 0 73 82q0 40 -25.5 56t-86.5 21l27 143h211z"/>
    <glyph glyph-name="Scommaaccent" unicode="Ș" horiz-adv-x="1106" d="M732 382q0 89 -45.5 134.5t-165.5 94.5q-219 83 -315 194.5t-96 263.5q0 184 130.5 295.5t331.5 111.5q134 0 239 -56.5t161.5 -159.5t56.5 -234h-293q0 102 -43.5 155.5t-125.5 53.5q-77 0 -120 -45.5t-43 -122.5q0 -60 48 -108.5t170 -100.5q213 -77 309.5 -189 t96.5 -285q0 -190 -121 -297t-329 -107q-141 0 -257 58t-181.5 166t-65.5 255h295q0 -126 49 -183t160 -57q154 0 154 163zM541 -517l-138 79q62 119 65 240v106h204v-76q-1 -91 -37.5 -188.5t-93.5 -160.5z"/>
    <glyph glyph-name="scommaaccent" unicode="ș" horiz-adv-x="930" d="M582 290q0 36 -34.5 66.5t-153.5 82.5q-175 71 -240.5 147t-65.5 189q0 142 102.5 234.5t271.5 92.5q178 0 285 -92t107 -247h-283q0 132 -110 132q-45 0 -74 -28t-29 -78q0 -36 32 -63.5t151 -78.5q173 -64 244.5 -142.5t71.5 -203.5q0 -145 -109 -233t-286 -88 q-119 0 -210 46.5t-142.5 129.5t-51.5 179h269q2 -74 34.5 -111t106.5 -37q114 0 114 103zM438 -527l-138 79q62 119 65 240v106h204v-76q-1 -91 -37.5 -188.5t-93.5 -160.5z"/>
    <glyph glyph-name="Scaron" unicode="Š" horiz-adv-x="1106" d="M732 382q0 89 -45.5 134.5t-165.5 94.5q-219 83 -315 194.5t-96 263.5q0 184 130.5 295.5t331.5 111.5q134 0 239 -56.5t161.5 -159.5t56.5 -234h-293q0 102 -43.5 155.5t-125.5 53.5q-77 0 -120 -45.5t-43 -122.5q0 -60 48 -108.5t170 -100.5q213 -77 309.5 -189 t96.5 -285q0 -190 -121 -297t-329 -107q-141 0 -257 58t-181.5 166t-65.5 255h295q0 -126 49 -183t160 -57q154 0 154 163zM566 1705l116 142h241v-11l-268 -281h-176l-268 283v9h240z"/>
    <glyph glyph-name="scaron" unicode="š" horiz-adv-x="930" d="M582 290q0 36 -34.5 66.5t-153.5 82.5q-175 71 -240.5 147t-65.5 189q0 142 102.5 234.5t271.5 92.5q178 0 285 -92t107 -247h-283q0 132 -110 132q-45 0 -74 -28t-29 -78q0 -36 32 -63.5t151 -78.5q173 -64 244.5 -142.5t71.5 -203.5q0 -145 -109 -233t-286 -88 q-119 0 -210 46.5t-142.5 129.5t-51.5 179h269q2 -74 34.5 -111t106.5 -37q114 0 114 103zM465 1395l116 142h241v-11l-268 -281h-176l-268 283v9h240z"/>
    <glyph glyph-name="uni021A" unicode="Ț" horiz-adv-x="1112" d="M1060 1211h-360v-1211h-295v1211h-354v245h1009v-245zM523 -510l-138 79q62 119 65 240v106h204v-76q-1 -91 -37.5 -188.5t-93.5 -160.5z"/>
    <glyph glyph-name="uni021B" unicode="ț" horiz-adv-x="629" d="M432 1348v-266h145v-213h-145v-537q0 -64 17.5 -88t67.5 -24q41 0 67 7l-2 -220q-72 -27 -156 -27q-274 0 -277 314v575h-125v213h125v266h283zM359 -517l-138 79q62 119 65 240v106h204v-76q-1 -91 -37.5 -188.5t-93.5 -160.5z"/>
    <glyph glyph-name="Tcommaaccent" unicode="Ţ" horiz-adv-x="1112" d="M1060 1211h-360v-1211h-295v1211h-354v245h1009v-245zM660 14l-9 -58q58 -13 89.5 -57.5t31.5 -115.5q0 -110 -79 -174t-226 -64l-6 167q73 0 73 82q0 40 -25.5 56t-86.5 21l27 143h211z"/>
    <glyph glyph-name="tcommaaccent" unicode="ţ" horiz-adv-x="629" d="M432 1348v-266h145v-213h-145v-537q0 -64 17.5 -88t67.5 -24q41 0 67 7l-2 -220q-72 -27 -156 -27q-274 0 -277 314v575h-125v213h125v266h283zM496 7l-9 -58q58 -13 89.5 -57.5t31.5 -115.5q0 -110 -79 -174t-226 -64l-6 167q73 0 73 82q0 40 -25.5 56t-86.5 21l27 143 h211z"/>
    <glyph glyph-name="Tcaron" unicode="Ť" horiz-adv-x="1112" d="M1060 1211h-360v-1211h-295v1211h-354v245h1009v-245zM550 1705l116 142h241v-11l-268 -281h-176l-268 283v9h240z"/>
    <glyph glyph-name="tcaron" unicode="ť" horiz-adv-x="669" d="M432 1348v-266h145v-213h-145v-537q0 -64 17.5 -88t67.5 -24q41 0 67 7l-2 -220q-72 -27 -156 -27q-274 0 -277 314v575h-125v213h125v266h283zM649 1243l-138 79q62 119 65 240v106h204v-76q-1 -91 -37.5 -188.5t-93.5 -160.5z"/>
    <glyph glyph-name="Utilde" unicode="Ũ" horiz-adv-x="1170" d="M1064 1456v-1008q-2 -227 -125 -347.5t-353 -120.5q-234 0 -357.5 122t-123.5 353v1001h296v-1002q0 -124 40 -177t145 -53t144 52.5t40 172.5v1007h294zM902 1831q0 -111 -56.5 -188.5t-142.5 -77.5q-32 0 -56.5 9t-69 37t-63 34t-40.5 6q-27 0 -45 -24.5t-18 -70.5 l-160 9q0 111 57 189.5t140 78.5q22 0 42.5 -6.5t71 -35t72.5 -36t44 -7.5q26 0 45.5 24.5t19.5 70.5z"/>
    <glyph glyph-name="utilde" unicode="ũ" horiz-adv-x="1008" d="M635 99q-88 -119 -236 -119q-149 0 -226 102.5t-77 298.5v701h283v-708q2 -158 105 -158q97 0 140 84v782h285v-1082h-266zM823 1522q0 -111 -56.5 -188.5t-142.5 -77.5q-32 0 -56.5 9t-69 37t-63 34t-40.5 6q-27 0 -45 -24.5t-18 -70.5l-160 9q0 111 57 189.5t140 78.5 q22 0 42.5 -6.5t71 -35t72.5 -36t44 -7.5q26 0 45.5 24.5t19.5 70.5z"/>
    <glyph glyph-name="Umacron" unicode="Ū" horiz-adv-x="1170" d="M1064 1456v-1008q-2 -227 -125 -347.5t-353 -120.5q-234 0 -357.5 122t-123.5 353v1001h296v-1002q0 -124 40 -177t145 -53t144 52.5t40 172.5v1007h294zM896 1598h-631v167h631v-167z"/>
    <glyph glyph-name="umacron" unicode="ū" horiz-adv-x="1008" d="M635 99q-88 -119 -236 -119q-149 0 -226 102.5t-77 298.5v701h283v-708q2 -158 105 -158q97 0 140 84v782h285v-1082h-266zM817 1289h-631v167h631v-167z"/>
    <glyph glyph-name="Ubreve" unicode="Ŭ" horiz-adv-x="1170" d="M1064 1456v-1008q-2 -227 -125 -347.5t-353 -120.5q-234 0 -357.5 122t-123.5 353v1001h296v-1002q0 -124 40 -177t145 -53t144 52.5t40 172.5v1007h294zM926 1837q0 -133 -95.5 -215t-251.5 -82q-157 0 -252.5 82t-95.5 215h207q0 -62 37.5 -96.5t103.5 -34.5 q65 0 102 34.5t37 96.5h208z"/>
    <glyph glyph-name="ubreve" unicode="ŭ" horiz-adv-x="1008" d="M635 99q-88 -119 -236 -119q-149 0 -226 102.5t-77 298.5v701h283v-708q2 -158 105 -158q97 0 140 84v782h285v-1082h-266zM847 1527q0 -133 -95.5 -215t-251.5 -82q-157 0 -252.5 82t-95.5 215h207q0 -62 37.5 -96.5t103.5 -34.5q65 0 102 34.5t37 96.5h208z"/>
    <glyph glyph-name="Uring" unicode="Ů" horiz-adv-x="1170" d="M1064 1456v-1008q-2 -227 -125 -347.5t-353 -120.5q-234 0 -357.5 122t-123.5 353v1001h296v-1002q0 -124 40 -177t145 -53t144 52.5t40 172.5v1007h294zM356 1730q0 86 65 145.5t158 59.5q92 0 157.5 -58.5t65.5 -146.5q0 -85 -64 -143t-159 -58q-97 0 -160 59t-63 142z M579 1623q50 0 79 31t29 76q0 46 -29.5 77.5t-78.5 31.5q-47 0 -77 -31t-30 -78t30.5 -77t76.5 -30z"/>
    <glyph glyph-name="uring" unicode="ů" horiz-adv-x="1008" d="M635 99q-88 -119 -236 -119q-149 0 -226 102.5t-77 298.5v701h283v-708q2 -158 105 -158q97 0 140 84v782h285v-1082h-266zM277 1420q0 86 65 145.5t158 59.5q92 0 157.5 -58.5t65.5 -146.5q0 -85 -64 -143t-159 -58q-97 0 -160 59t-63 142zM500 1313q50 0 79 31t29 76 q0 46 -29.5 77.5t-78.5 31.5q-47 0 -77 -31t-30 -78t30.5 -77t76.5 -30z"/>
    <glyph glyph-name="Uhungarumlaut" unicode="Ű" horiz-adv-x="1170" d="M1064 1456v-1008q-2 -227 -125 -347.5t-353 -120.5q-234 0 -357.5 122t-123.5 353v1001h296v-1002q0 -124 40 -177t145 -53t144 52.5t40 172.5v1007h294zM797 1845h247l-220 -301h-207zM450 1845h244l-191 -301h-202z"/>
    <glyph glyph-name="uhungarumlaut" unicode="ű" horiz-adv-x="1008" d="M635 99q-88 -119 -236 -119q-149 0 -226 102.5t-77 298.5v701h283v-708q2 -158 105 -158q97 0 140 84v782h285v-1082h-266zM718 1535h247l-220 -301h-207zM371 1535h244l-191 -301h-202z"/>
    <glyph glyph-name="Uogonek" unicode="Ų" horiz-adv-x="1170" d="M1064 1456v-994q0 -332 -237 -437q-67 -56 -67 -132q0 -65 51 -65q25 0 62 20l27 -158q-65 -44 -146 -44q-91 0 -147 57t-56 152q0 73 26 125q-227 2 -348.5 122.5t-123.5 344.5v1009h296v-1002q0 -124 40 -177t145 -53t144 52.5t40 172.5v1007h294z"/>
    <glyph glyph-name="uogonek" unicode="ų" horiz-adv-x="1008" d="M877 0q-64 -42 -94 -82t-30 -93q0 -65 51 -65q25 0 62 20l27 -158q-65 -44 -146 -44q-91 0 -147 57t-56 152q0 58 20 112.5t79 102.5l-8 97q-88 -119 -236 -119q-149 0 -226 102.5t-77 298.5v701h283v-708q2 -158 105 -158q97 0 140 84v782h285v-1082h-32z"/>
    <glyph glyph-name="Wcircumflex" unicode="Ŵ" horiz-adv-x="1534" d="M1063 541l138 915h291l-259 -1456h-295l-170 858l-168 -858h-296l-260 1456h293l137 -914l171 914h247zM1121 1566v-12h-221l-125 144l-125 -144h-216v16l260 276h162z"/>
    <glyph glyph-name="wcircumflex" unicode="ŵ" horiz-adv-x="1296" d="M891 475l97 607h271l-224 -1082h-235l-153 626l-153 -626h-236l-224 1082h272l96 -608l144 608h201zM992 1256v-12h-221l-125 144l-125 -144h-216v16l260 276h162z"/>
    <glyph glyph-name="Ycircumflex" unicode="Ŷ" horiz-adv-x="1111" d="M556 802l219 654h320l-390 -928v-528h-298v528l-391 928h320zM904 1566v-12h-221l-125 144l-125 -144h-216v16l260 276h162z"/>
    <glyph glyph-name="ycircumflex" unicode="ŷ" horiz-adv-x="914" d="M450 471l144 611h302l-356 -1244q-80 -275 -301 -275q-51 0 -116 19v221l33 -1q66 0 99.5 25.5t50.5 88.5l22 73l-312 1093h304zM805 1256v-12h-221l-125 144l-125 -144h-216v16l260 276h162z"/>
    <glyph glyph-name="Ydieresis" unicode="Ÿ" horiz-adv-x="1111" d="M556 802l219 654h320l-390 -928v-528h-298v528l-391 928h320zM173 1675q0 55 40.5 91.5t98.5 36.5t98.5 -36.5t40.5 -91.5q0 -54 -40.5 -90.5t-98.5 -36.5t-98.5 36.5t-40.5 90.5zM662 1675q0 54 40.5 90.5t98.5 36.5t98.5 -36.5t40.5 -90.5q0 -52 -38.5 -89.5 t-100.5 -37.5t-100.5 37.5t-38.5 89.5z"/>
    <glyph glyph-name="Zacute" unicode="Ź" horiz-adv-x="1086" d="M422 244h600v-244h-944v177l594 1034h-600v245h939v-173zM609 1846h318l-278 -310h-236z"/>
    <glyph glyph-name="zacute" unicode="ź" horiz-adv-x="927" d="M416 235h428v-235h-764v177l418 669h-408v236h748v-171zM517 1536h318l-278 -310h-236z"/>
    <glyph glyph-name="Zdotaccent" unicode="Ż" horiz-adv-x="1086" d="M422 244h600v-244h-944v177l594 1034h-600v245h939v-173zM403 1702q0 62 42 100t107 38t107 -38t42 -100q0 -60 -40 -98t-109 -38t-109 38t-40 98z"/>
    <glyph glyph-name="zdotaccent" unicode="ż" horiz-adv-x="927" d="M416 235h428v-235h-764v177l418 669h-408v236h748v-171zM311 1392q0 62 42 100t107 38t107 -38t42 -100q0 -60 -40 -98t-109 -38t-109 38t-40 98z"/>
    <glyph glyph-name="Zcaron" unicode="Ž" horiz-adv-x="1086" d="M422 244h600v-244h-944v177l594 1034h-600v245h939v-173zM551 1705l116 142h241v-11l-268 -281h-176l-268 283v9h240z"/>
    <glyph glyph-name="zcaron" unicode="ž" horiz-adv-x="927" d="M416 235h428v-235h-764v177l418 669h-408v236h748v-171zM459 1395l116 142h241v-11l-268 -281h-176l-268 283v9h240z"/>
    <glyph glyph-name="AEacute" unicode="Ǽ" horiz-adv-x="1674" d="M1602 0h-778l-12 333h-333l-132 -333h-332l643 1456h892v-238h-485l13 -352h404v-238h-396l13 -390h503v-238zM577 582h226l-18 524zM856 1858h318l-278 -310h-236z"/>
    <glyph glyph-name="aeacute" unicode="ǽ" horiz-adv-x="1491" d="M1063 -20q-205 0 -324 136q-56 -66 -140 -101t-184 -35q-162 0 -253 89.5t-91 249.5q0 157 105.5 243t313.5 88h125v55q0 76 -29 119t-81 43q-57 0 -89 -36t-32 -87l-282 19q0 150 113 244.5t293 94.5q170 0 270 -94q106 96 265 94q181 0 284 -130t105 -353v-170h-540 q9 -115 60.5 -175t141.5 -60q63 0 116 16t125 61l72 -191q-48 -48 -145 -84t-199 -36zM471 193q72 0 144 67v200h-115q-63 0 -104.5 -40.5t-41.5 -104.5q0 -122 117 -122zM1043 867q-132 0 -150 -223h262v28q0 87 -26.5 141t-85.5 54zM802 1537h318l-278 -310h-236z"/>
    <glyph glyph-name="Oslashacute" unicode="Ǿ" horiz-adv-x="1233" d="M1158 695q0 -214 -65.5 -376t-187.5 -250.5t-279 -88.5q-134 0 -242 64l-68 -139h-177l120 245q-167 197 -167 553v56q0 215 66.5 378.5t188 251t277.5 87.5q139 0 252 -70l55 112h178l-110 -223q158 -199 159 -535v-65zM389 695q0 -139 22 -234l347 705q-55 60 -134 60 q-113 0 -173.5 -116t-61.5 -342v-73zM860 761q0 118 -19 213l-341 -695q51 -51 126 -51q112 0 172.5 118t61.5 342v73zM678 1920h318l-278 -310h-236z"/>
    <glyph glyph-name="oslashacute" unicode="ǿ" horiz-adv-x="1017" d="M71 551q0 252 119 401.5t317 149.5q79 0 149 -25l57 139h152l-87 -212q168 -148 168 -474q0 -251 -118 -400.5t-319 -149.5q-78 0 -142 22l-59 -144h-152l88 214q-173 149 -173 479zM354 530q0 -100 13 -157l197 480q-26 14 -57 14q-139 0 -152 -268zM663 551 q0 79 -12 145l-193 -471q21 -10 51 -10q140 0 153 264zM534 1532h318l-278 -310h-236z"/>
    <glyph glyph-name="Dcroat.c2sc" horiz-adv-x="996" d="M92 0v1165h342q143 0 256 -71t176.5 -199.5t63.5 -289.5v-46q0 -242 -136.5 -400.5t-363.5 -158.5h-338zM375 929v-695h62q111 0 159.5 70t50.5 238v64q0 176 -48.5 249t-159.5 74h-64zM521 490h-607v183h607v-183z"/>
    </font>
</defs>
</svg>
